<?xml version="1.0" encoding="utf-8"?>
<svg id="Layer_1" style="enable-background:new 0 0 496.158 496.158;" width="500px" height="500px" x="0px" y="0px" viewBox="0 0 496.158 496.158" xmlns="http://www.w3.org/2000/svg">
  <path style="fill:#56B48C;" d="M248.082,0.003C111.07,0.003,0,111.061,0,248.085c0,137,111.07,248.07,248.082,248.07&#10;&#9;c137.006,0,248.076-111.07,248.076-248.07C496.158,111.061,385.088,0.003,248.082,0.003z"/>
  <path style="fill:#FFFFFF;" d="M 301.24 190.703 C 297.658 182.973 293.284 176.482 288.117 171.233 C 282.948 165.984 276.947 161.998 270.111 159.27 C 263.275 156.544 255.666 155.181 247.285 155.181 C 234.59 155.181 223.664 158.254 214.509 164.397 C 205.354 170.543 198.375 179.473 193.574 191.191 C 190.806 198.271 188.771 206.736 187.47 216.582 C 186.167 226.43 185.517 237.498 185.517 249.785 C 185.517 259.306 186.106 268.157 187.287 276.335 C 188.466 284.514 190.318 291.981 192.842 298.735 C 197.805 311.106 205.19 320.79 214.997 327.788 C 224.803 334.788 235.891 338.286 248.262 338.286 C 259.004 338.286 268.77 335.681 277.559 330.473 C 286.348 325.265 293.508 317.86 299.043 308.256 C 303.438 300.443 306.447 291.736 308.076 282.133 C 309.703 272.531 310.517 261.057 310.517 247.709 C 310.517 223.133 307.424 204.13 301.24 190.703 Z M 274.506 283.354 C 272.797 293.04 269.826 300.486 265.596 305.693 C 261.364 310.902 255.504 313.506 248.018 313.506 C 240.774 313.506 235.036 311.004 230.805 305.999 C 226.573 300.994 223.561 293.609 221.772 283.843 C 219.981 274.077 219.086 261.546 219.086 246.245 C 219.086 223.704 221.181 207.02 225.373 196.196 C 229.563 185.374 237.031 179.961 247.773 179.961 C 255.259 179.961 261.119 182.383 265.351 187.224 C 269.581 192.067 272.593 199.229 274.384 208.708 C 276.173 218.189 277.07 230.375 277.07 245.268 C 277.07 260.975 276.215 273.67 274.506 283.354 Z"/>
  <g/>
  <g/>
  <g/>
  <g/>
  <g/>
  <g/>
  <g/>
  <g/>
  <g/>
  <g/>
  <g/>
  <g/>
  <g/>
  <g/>
  <g/>
</svg>