<?xml version="1.0" encoding="utf-8"?>
<svg id="Layer_1" style="enable-background:new 0 0 496.158 496.158;" x="0px" y="0px" width="500px" height="500px" viewBox="0 0 496.158 496.158" xmlns="http://www.w3.org/2000/svg">
  <path style="fill:#56B48C;" d="M248.082,0.003C111.07,0.003,0,111.061,0,248.085c0,137,111.07,248.07,248.082,248.07&#10;&#9;c137.006,0,248.076-111.07,248.076-248.07C496.158,111.061,385.088,0.003,248.082,0.003z"/>
  <path style="fill:#FFFFFF;" d="M 325.118 268.406 C 322.335 261.521 318.208 255.468 312.74 250.242 C 307.27 245.019 300.385 240.794 292.086 237.571 C 301.85 232.787 309.199 226.635 314.132 219.114 C 319.062 211.595 321.529 203.051 321.529 193.479 C 321.529 185.96 320.112 178.856 317.281 172.166 C 314.448 165.478 310.103 159.472 304.244 154.148 C 298.385 148.827 291.06 144.652 282.271 141.624 C 273.482 138.598 263.276 137.083 251.656 137.083 C 237.886 137.083 225.849 139.672 215.548 144.847 C 205.244 150.024 197.432 156.932 192.11 165.575 C 186.786 174.218 184.127 183.423 184.127 193.187 C 184.127 213.402 194.136 228.197 214.156 237.572 C 189.35 247.339 176.949 265.356 176.949 291.625 C 176.949 303.93 179.879 315.04 185.738 324.95 C 191.597 334.863 200.288 342.652 211.812 348.314 C 223.334 353.977 237.202 356.81 253.414 356.81 C 269.038 356.81 282.612 353.977 294.137 348.314 C 305.659 342.651 314.4 334.814 320.358 324.803 C 326.314 314.794 329.294 303.636 329.294 291.331 C 329.293 282.933 327.901 275.291 325.118 268.406 Z M 230.343 173.63 C 235.957 167.917 243.355 165.061 252.535 165.061 C 258.589 165.061 263.961 166.379 268.648 169.016 C 273.335 171.653 276.972 175.267 279.561 179.856 C 282.147 184.447 283.443 189.623 283.443 195.383 C 283.443 199.681 282.711 203.612 281.246 207.175 C 279.781 210.741 277.705 213.817 275.02 216.404 C 272.333 218.993 269.11 221.018 265.352 222.483 C 261.591 223.948 257.416 224.68 252.828 224.68 C 243.746 224.68 236.323 221.922 230.562 216.404 C 224.799 210.888 221.919 203.978 221.919 195.676 C 221.92 186.693 224.726 179.343 230.343 173.63 Z M 284.469 310.374 C 281.343 316.233 277.046 320.774 271.578 323.997 C 266.108 327.22 259.955 328.831 253.121 328.831 C 246.383 328.831 240.278 327.245 234.81 324.07 C 229.34 320.898 225.018 316.405 221.846 310.593 C 218.671 304.784 217.085 298.069 217.085 290.451 C 217.085 278.538 220.454 269.261 227.192 262.619 C 233.93 255.979 242.28 252.658 252.241 252.658 C 259.272 252.658 265.619 254.173 271.284 257.199 C 276.947 260.227 281.341 264.574 284.468 270.236 C 287.592 275.901 289.156 282.541 289.156 290.158 C 289.156 297.775 287.593 304.514 284.469 310.374 Z"/>
  <g/>
  <g/>
  <g/>
  <g/>
  <g/>
  <g/>
  <g/>
  <g/>
  <g/>
  <g/>
  <g/>
  <g/>
  <g/>
  <g/>
  <g/>
</svg>