<?xml version="1.0" encoding="UTF-8" standalone="no"?>
<!DOCTYPE svg PUBLIC "-//W3C//DTD SVG 1.1//EN" "http://www.w3.org/Graphics/SVG/1.1/DTD/svg11.dtd">
<svg width="500px" height="500px" viewBox="0 0 64 64" version="1.1" xmlns="http://www.w3.org/2000/svg" xmlns:xlink="http://www.w3.org/1999/xlink" xml:space="preserve" style="fill-rule:evenodd;clip-rule:evenodd;stroke-linejoin:round;stroke-miterlimit:1.41421;">
    <g id="Layer-1" transform="matrix(-1,0,-0,1,63.9996,0)">
        <path d="M48.623,27.346C45.571,28.821 45.627,28.718 43,27.203L34.775,22.454C33.067,21.469 31.203,21 29.363,21C25.613,21 21.967,22.945 19.957,26.426L18.24,29.361L23.804,39C25.59,42.094 28.892,44 32.464,44L44.881,44L46.103,41.882C47.611,39.269 52.399,25.519 48.623,27.346" style="fill:rgb(71,71,94);fill-rule:nonzero;"/>
        <g>
            <clipPath id="_clip1">
                <path d="M19.958,26.426L18.239,29.362L23.804,39C25.591,42.094 28.892,44 32.465,44L44.881,44L46.103,41.882C47.611,39.27 52.4,25.52 48.623,27.347C45.572,28.821 45.627,28.718 43,27.204L34.775,22.454C33.068,21.469 31.203,21 29.363,21C25.613,21 21.967,22.946 19.958,26.426Z"/>
            </clipPath>
            <g clip-path="url(#_clip1)">
                <g opacity="0.300003">
                    <rect x="16.875" y="20" width="37.625" height="12" style="fill:rgb(217,147,173);fill-rule:nonzero;"/>
                </g>
            </g>
        </g>
        <path d="M50.042,34.872L60.243,36.417L63.999,29.912C61.56,27.495 58.205,26 54.5,26C49.498,26 45.132,28.721 42.799,32.762C41.654,34.745 36.311,44 36.311,44L47.688,44L50.042,34.872Z" style="fill:rgb(148,135,163);fill-rule:nonzero;"/>
        <g>
            <g opacity="0.300003">
                <clipPath id="_clip2">
                    <rect x="36.311" y="26" width="27.689" height="18"/>
                </clipPath>
                <g clip-path="url(#_clip2)">
                    <path d="M50.042,34.872L60.243,36.417L63.999,29.912C61.56,27.495 58.205,26 54.5,26C49.498,26 45.132,28.721 42.799,32.762C41.654,34.745 36.311,44 36.311,44L47.688,44L50.042,34.872Z" style="fill:rgb(71,71,94);fill-rule:nonzero;"/>
                </g>
            </g>
        </g>
        <path d="M15,41.5C15,44.536 12.538,47 9.5,47C6.462,47 4,44.536 4,41.5C4,38.464 6.462,36 9.5,36C12.538,36 15,38.464 15,41.5M9.5,32C4.252,32 0,36.252 0,41.5C0,46.748 4.252,51 9.5,51C14.748,51 19,46.748 19,41.5C19,36.252 14.748,32 9.5,32M60,41.5C60,44.536 57.538,47 54.5,47C51.462,47 49,44.536 49,41.5C49,38.464 51.462,36 54.5,36C57.538,36 60,38.464 60,41.5M54.5,32C49.252,32 45,36.252 45,41.5C45,46.748 49.252,51 54.5,51C59.748,51 64,46.748 64,41.5C64,36.252 59.748,32 54.5,32" style="fill:rgb(71,71,94);fill-rule:nonzero;"/>
        <g>
            <clipPath id="_clip3">
                <path d="M45,41.5C45,46.748 49.252,51 54.5,51C59.748,51 64,46.748 64,41.5C64,36.252 59.748,32 54.5,32C49.252,32 45,36.252 45,41.5ZM49,41.5C49,38.464 51.462,36 54.5,36C57.538,36 60,38.464 60,41.5C60,44.536 57.538,47 54.5,47C51.462,47 49,44.536 49,41.5ZM0,41.5C0,46.748 4.253,51 9.5,51C14.747,51 19,46.748 19,41.5C19,36.252 14.747,32 9.5,32C4.253,32 0,36.252 0,41.5ZM4,41.5C4,38.464 6.462,36 9.5,36C12.538,36 15,38.464 15,41.5C15,44.536 12.538,47 9.5,47C6.462,47 4,44.536 4,41.5Z"/>
            </clipPath>
            <g clip-path="url(#_clip3)">
                <g>
                    <g opacity="0.149994">
                        <clipPath id="_clip4">
                            <rect x="0" y="32" width="13.394" height="19"/>
                        </clipPath>
                        <g clip-path="url(#_clip4)">
                            <path d="M13.394,32L0,32L0,51L2.425,51L13.394,32Z" style="fill:white;fill-rule:nonzero;"/>
                        </g>
                    </g>
                </g>
                <g>
                    <g opacity="0.149994">
                        <clipPath id="_clip5">
                            <rect x="51.824" y="32" width="12.176" height="19"/>
                        </clipPath>
                        <g clip-path="url(#_clip5)">
                            <path d="M64,32L62.794,32L51.824,51L64,51L64,32Z" style="fill:white;fill-rule:nonzero;"/>
                        </g>
                    </g>
                </g>
            </g>
        </g>
        <path d="M19.24,25.094L26.07,36.924C26.856,38.285 28.935,40 32.465,40L63.879,40L61.52,44L32.465,44C28.892,44 25.591,42.094 23.804,39L17.508,28.093L19.24,25.094Z" style="fill:rgb(166,166,159);fill-rule:nonzero;"/>
        <g>
            <clipPath id="_clip6">
                <path d="M17.508,28.094L23.804,39C25.591,42.094 28.892,44 32.465,44L61.52,44L63.879,40L32.465,40C28.935,40 26.856,38.285 26.069,36.923L19.239,25.094L17.508,28.094Z"/>
            </clipPath>
            <g clip-path="url(#_clip6)">
                <g opacity="0.300003">
                    <clipPath id="_clip7">
                        <rect x="15.508" y="24.094" width="32.295" height="19.906"/>
                    </clipPath>
                    <g clip-path="url(#_clip7)">
                        <path d="M15.508,24.094L47.803,24.094L36.311,44L15.508,44L15.508,24.094Z" style="fill:rgb(35,31,32);fill-rule:nonzero;"/>
                    </g>
                </g>
            </g>
        </g>
        <path d="M11,21L14.62,21C16.1,21 17.392,21.804 18.084,22.999C18.425,23.587 19.24,25 19.24,25C19.24,25 18.426,26.41 18.086,26.998C17.395,28.194 16.102,29 14.62,29L11,29L11,21Z" style="fill:rgb(148,135,163);fill-rule:nonzero;"/>
        <path d="M9.499,43C9.245,43 8.987,42.936 8.75,42.799C8.033,42.385 7.787,41.468 8.202,40.75L20.465,19.508C22.816,15.443 24.553,14 29.613,14L32.355,14C33.183,14 33.856,14.671 33.856,15.5C33.856,16.329 33.183,17 32.355,17L29.613,17C25.772,17 24.941,17.76 23.062,21.009L10.799,42.25C10.522,42.731 10.018,43 9.499,43" style="fill:rgb(166,166,159);fill-rule:nonzero;"/>
        <clipPath id="_clip8">
            <path d="M29.613,14C24.552,14 22.817,15.443 20.464,19.508L8.201,40.75C7.787,41.468 8.033,42.385 8.75,42.799C8.986,42.936 9.244,43 9.499,43C10.017,43 10.522,42.731 10.799,42.25L23.062,21.01C24.942,17.76 25.771,17 29.613,17L32.355,17C33.184,17 33.855,16.329 33.855,15.5C33.855,14.671 33.184,14 32.355,14L29.613,14Z"/>
        </clipPath>
        <g clip-path="url(#_clip8)">
            <path d="M35.242,17L28.5,17C27.672,17 27,16.329 27,15.5C27,14.671 27.672,14 28.5,14L35.243,14L35.242,17Z" style="fill:rgb(71,71,94);fill-rule:nonzero;"/>
        </g>
    </g>
</svg>
