<?xml version="1.0" encoding="utf-8"?>
<svg id="Layer_1" style="enable-background:new 0 0 496.158 496.158;" width="500px" height="500px" x="0px" y="0px" viewBox="0 0 496.158 496.158" xmlns="http://www.w3.org/2000/svg">
  <path style="fill:#56B48C;" d="M248.082,0.003C111.07,0.003,0,111.061,0,248.085c0,137,111.07,248.07,248.082,248.07&#10;&#9;c137.006,0,248.076-111.07,248.076-248.07C496.158,111.061,385.088,0.003,248.082,0.003z"/>
  <path style="fill:#FFFFFF;" d="M 189.631 145.419 C 186.504 141.416 182.355 139.413 177.18 139.413 C 172.588 139.413 169.464 140.292 167.805 142.05 C 166.143 143.808 162.579 148.495 157.112 156.113 C 151.641 163.73 145.368 170.615 138.289 176.767 C 131.208 182.919 121.759 188.779 109.944 194.345 C 102.034 198.057 96.515 201.083 93.391 203.427 C 90.264 205.771 88.703 209.433 88.703 214.413 C 88.703 218.711 90.289 222.495 93.464 225.766 C 96.637 229.039 100.276 230.673 104.377 230.673 C 112.969 230.673 129.668 221.152 154.475 202.109 L 154.475 335.41 C 154.475 343.224 156.281 349.132 159.895 353.135 C 163.506 357.138 168.292 359.141 174.25 359.141 C 187.628 359.141 194.318 349.327 194.318 329.698 L 194.318 161.972 C 194.318 154.941 192.755 149.425 189.631 145.419 Z"/>
  <g/>
  <g/>
  <g/>
  <g/>
  <g/>
  <g/>
  <g/>
  <g/>
  <g/>
  <g/>
  <g/>
  <g/>
  <g/>
  <g/>
  <g/>
  <path style="fill:#FFFFFF;" d="M 344.847 139.627 C 341.72 135.624 337.571 133.621 332.396 133.621 C 327.804 133.621 324.68 134.5 323.021 136.258 C 321.359 138.016 317.795 142.703 312.328 150.321 C 306.857 157.938 300.584 164.823 293.505 170.975 C 286.424 177.127 276.975 182.987 265.16 188.553 C 257.25 192.265 251.731 195.291 248.607 197.635 C 245.48 199.979 243.919 203.641 243.919 208.621 C 243.919 212.919 245.505 216.703 248.68 219.974 C 251.853 223.247 255.492 224.881 259.593 224.881 C 268.185 224.881 284.884 215.36 309.691 196.317 L 309.691 329.618 C 309.691 337.432 311.497 343.34 315.111 347.343 C 318.722 351.346 323.508 353.349 329.466 353.349 C 342.844 353.349 349.534 343.535 349.534 323.906 L 349.534 156.18 C 349.534 149.149 347.971 143.633 344.847 139.627 Z"/>
</svg>