<?xml version="1.0" encoding="utf-8"?>
<svg id="Layer_1" style="enable-background:new 0 0 496.158 496.158;" width="500px" height="500px" x="0px" y="0px" viewBox="0 0 496.158 496.158" xmlns="http://www.w3.org/2000/svg">
  <path style="fill:#56B48C;" d="M248.082,0.003C111.07,0.003,0,111.061,0,248.085c0,137,111.07,248.07,248.082,248.07&#10;&#9;c137.006,0,248.076-111.07,248.076-248.07C496.158,111.061,385.088,0.003,248.082,0.003z"/>
  <path style="fill:#FFFFFF;" d="M 189.631 145.419 C 186.504 141.416 182.355 139.413 177.18 139.413 C 172.588 139.413 169.464 140.292 167.805 142.05 C 166.143 143.808 162.579 148.495 157.112 156.113 C 151.641 163.73 145.368 170.615 138.289 176.767 C 131.208 182.919 121.759 188.779 109.944 194.345 C 102.034 198.057 96.515 201.083 93.391 203.427 C 90.264 205.771 88.703 209.433 88.703 214.413 C 88.703 218.711 90.289 222.495 93.464 225.766 C 96.637 229.039 100.276 230.673 104.377 230.673 C 112.969 230.673 129.668 221.152 154.475 202.109 L 154.475 335.41 C 154.475 343.224 156.281 349.132 159.895 353.135 C 163.506 357.138 168.292 359.141 174.25 359.141 C 187.628 359.141 194.318 349.327 194.318 329.698 L 194.318 161.972 C 194.318 154.941 192.755 149.425 189.631 145.419 Z"/>
  <g/>
  <g/>
  <g/>
  <g/>
  <g/>
  <g/>
  <g/>
  <g/>
  <g/>
  <g/>
  <g/>
  <g/>
  <g/>
  <g/>
  <g/>
  <path style="fill:#FFFFFF;" d="M 390.729 327.04 C 386.724 323.916 380.915 322.352 373.297 322.352 L 296.832 322.352 C 299.272 318.642 301.667 315.467 304.01 312.831 C 309.478 306.191 319.56 296.864 334.259 284.852 C 348.955 272.84 359.43 264.028 365.68 258.412 C 371.93 252.798 378.059 245.034 384.064 235.121 C 390.07 225.21 393.073 214.199 393.073 202.089 C 393.073 194.376 391.632 186.928 388.753 179.75 C 385.87 172.572 381.842 166.25 376.667 160.78 C 371.49 155.312 365.484 151.016 358.649 147.889 C 348.102 143.201 335.358 140.858 320.417 140.858 C 308.014 140.858 297.199 142.689 287.971 146.351 C 278.743 150.013 271.125 154.824 265.119 160.78 C 259.113 166.738 254.595 173.378 251.569 180.702 C 248.542 188.026 247.029 195.057 247.029 201.796 C 247.029 207.362 248.639 211.757 251.862 214.98 C 255.085 218.203 259.137 219.814 264.02 219.814 C 269.586 219.814 273.809 218.056 276.691 214.541 C 279.57 211.025 282.159 205.997 284.455 199.453 C 286.749 192.911 288.385 188.906 289.362 187.441 C 296.686 176.212 306.743 170.595 319.538 170.595 C 325.592 170.595 331.184 171.964 336.31 174.697 C 341.438 177.432 345.488 181.266 348.468 186.196 C 351.447 191.129 352.936 196.72 352.936 202.968 C 352.936 208.731 351.544 214.614 348.762 220.619 C 345.978 226.624 341.924 232.484 336.603 238.197 C 331.279 243.91 324.615 249.6 316.608 255.262 C 312.115 258.29 304.645 264.614 294.197 274.232 C 283.745 283.852 272.027 295.399 259.04 308.876 C 255.914 312.197 253.034 316.763 250.397 322.572 C 247.76 328.384 246.443 333.046 246.443 336.561 C 246.443 342.031 248.493 346.792 252.594 350.843 C 256.697 354.897 262.408 356.922 269.733 356.922 L 377.546 356.922 C 383.991 356.922 388.8 355.263 391.975 351.942 C 395.147 348.623 396.736 344.57 396.736 339.784 C 396.736 334.415 394.732 330.167 390.729 327.04 Z"/>
</svg>