<?xml version="1.0" encoding="utf-8"?>
<svg id="Layer_1" style="enable-background:new 0 0 496.158 496.158;" x="0px" y="0px" width="500px" height="500px" viewBox="0 0 496.158 496.158" xmlns="http://www.w3.org/2000/svg">
  <path style="fill:#56B48C;" d="M248.082,0.003C111.07,0.003,0,111.061,0,248.085c0,137,111.07,248.07,248.082,248.07&#10;&#9;c137.006,0,248.076-111.07,248.076-248.07C496.158,111.061,385.088,0.003,248.082,0.003z"/>
  <path style="fill:#FFFFFF;" d="M 189.631 145.419 C 186.504 141.416 182.355 139.413 177.18 139.413 C 172.588 139.413 169.464 140.292 167.805 142.05 C 166.143 143.808 162.579 148.495 157.112 156.113 C 151.641 163.73 145.368 170.615 138.289 176.767 C 131.208 182.919 121.759 188.779 109.944 194.345 C 102.034 198.057 96.515 201.083 93.391 203.427 C 90.264 205.771 88.703 209.433 88.703 214.413 C 88.703 218.711 90.289 222.495 93.464 225.766 C 96.637 229.039 100.276 230.673 104.377 230.673 C 112.969 230.673 129.668 221.152 154.475 202.109 L 154.475 335.41 C 154.475 343.224 156.281 349.132 159.895 353.135 C 163.506 357.138 168.292 359.141 174.25 359.141 C 187.628 359.141 194.318 349.327 194.318 329.698 L 194.318 161.972 C 194.318 154.941 192.755 149.425 189.631 145.419 Z"/>
  <g/>
  <g/>
  <g/>
  <g/>
  <g/>
  <g/>
  <g/>
  <g/>
  <g/>
  <g/>
  <g/>
  <g/>
  <g/>
  <g/>
  <g/>
  <path style="fill:#FFFFFF;" d="M 386.689 270.261 C 384.052 263.866 380.12 258.03 374.897 252.756 C 369.671 247.483 363.251 242.795 355.634 238.693 C 363.544 232.053 369.623 225.242 373.871 218.258 C 378.119 211.277 380.243 202.903 380.243 193.136 C 380.243 185.716 378.778 178.781 375.848 172.335 C 372.918 165.889 368.572 160.227 362.811 155.343 C 357.048 150.461 350.261 146.726 342.45 144.137 C 334.636 141.551 325.993 140.255 316.522 140.255 C 305.682 140.255 295.868 141.793 287.079 144.869 C 278.29 147.945 270.94 152.024 265.033 157.1 C 259.123 162.179 254.633 167.526 251.556 173.14 C 248.48 178.757 246.942 184.103 246.942 189.18 C 246.942 194.453 248.576 198.679 251.849 201.851 C 255.12 205.026 258.708 206.612 262.616 206.612 C 265.935 206.612 268.865 206.026 271.405 204.854 C 273.943 203.682 275.701 202.071 276.678 200.02 C 278.337 196.211 280.168 192.16 282.171 187.862 C 284.171 183.566 286.296 180.05 288.543 177.315 C 290.788 174.582 293.839 172.385 297.698 170.723 C 301.554 169.064 306.462 168.233 312.42 168.233 C 321.209 168.233 328.19 170.943 333.367 176.363 C 338.542 181.783 341.131 188.254 341.131 195.772 C 341.131 205.637 337.883 213.204 331.39 218.477 C 324.894 223.75 317.156 226.387 308.172 226.387 L 302.166 226.387 C 295.231 226.387 290.008 227.829 286.492 230.708 C 282.976 233.59 281.219 237.373 281.219 242.061 C 281.219 246.847 282.684 250.582 285.614 253.267 C 288.544 255.954 292.693 257.295 298.065 257.295 C 299.237 257.295 301.874 257.101 305.975 256.709 C 310.077 256.32 313.102 256.123 315.057 256.123 C 326.19 256.123 334.88 259.371 341.131 265.864 C 347.38 272.36 350.506 281.318 350.506 292.744 C 350.506 300.46 348.675 307.246 345.013 313.105 C 341.351 318.964 336.711 323.384 331.097 326.362 C 325.48 329.342 319.646 330.83 313.592 330.83 C 303.045 330.83 294.865 327.534 289.056 320.942 C 283.244 314.35 277.8 304.268 272.723 290.693 C 271.94 288.448 270.281 286.518 267.743 284.907 C 265.202 283.296 262.566 282.49 259.833 282.49 C 254.363 282.49 249.799 284.225 246.137 287.69 C 242.475 291.158 240.644 295.724 240.644 301.386 C 240.644 305.781 242.182 311.347 245.258 318.085 C 248.334 324.823 252.875 331.342 258.881 337.641 C 264.887 343.94 272.527 349.19 281.806 353.388 C 291.082 357.586 301.581 359.687 313.3 359.687 C 324.822 359.687 335.346 357.856 344.867 354.194 C 354.388 350.532 362.615 345.455 369.55 338.96 C 376.483 332.467 381.731 325.069 385.297 316.768 C 388.86 308.469 390.644 299.874 390.644 290.987 C 390.644 283.568 389.325 276.659 386.689 270.261 Z"/>
</svg>