<?xml version="1.0" encoding="utf-8"?>
<svg id="Layer_1" style="enable-background:new 0 0 496.158 496.158;" x="0px" y="0px" width="500px" height="500px" viewBox="0 0 496.158 496.158" xmlns="http://www.w3.org/2000/svg">
  <path style="fill:#56B48C;" d="M248.082,0.003C111.07,0.003,0,111.061,0,248.085c0,137,111.07,248.07,248.082,248.07&#10;&#9;c137.006,0,248.076-111.07,248.076-248.07C496.158,111.061,385.088,0.003,248.082,0.003z"/>
  <path style="fill:#FFFFFF;" d="M 189.631 145.419 C 186.504 141.416 182.355 139.413 177.18 139.413 C 172.588 139.413 169.464 140.292 167.805 142.05 C 166.143 143.808 162.579 148.495 157.112 156.113 C 151.641 163.73 145.368 170.615 138.289 176.767 C 131.208 182.919 121.759 188.779 109.944 194.345 C 102.034 198.057 96.515 201.083 93.391 203.427 C 90.264 205.771 88.703 209.433 88.703 214.413 C 88.703 218.711 90.289 222.495 93.464 225.766 C 96.637 229.039 100.276 230.673 104.377 230.673 C 112.969 230.673 129.668 221.152 154.475 202.109 L 154.475 335.41 C 154.475 343.224 156.281 349.132 159.895 353.135 C 163.506 357.138 168.292 359.141 174.25 359.141 C 187.628 359.141 194.318 349.327 194.318 329.698 L 194.318 161.972 C 194.318 154.941 192.755 149.425 189.631 145.419 Z"/>
  <g/>
  <g/>
  <g/>
  <g/>
  <g/>
  <g/>
  <g/>
  <g/>
  <g/>
  <g/>
  <g/>
  <g/>
  <g/>
  <g/>
  <g/>
  <path style="fill:#FFFFFF;" d="M 387.481 283.48 C 382.94 281.429 376.909 280.404 369.39 280.404 L 363.091 280.404 L 363.091 167.025 C 363.091 150.033 355.668 141.537 340.825 141.537 C 336.234 141.537 332.304 143.075 329.033 146.151 C 325.76 149.227 321.585 154.185 316.509 161.019 L 238.872 264.876 C 236.723 267.709 234.917 270.102 233.452 272.054 C 231.987 274.009 230.57 276.034 229.204 278.133 C 227.835 280.234 226.81 282.235 226.128 284.139 C 225.443 286.043 225.103 287.925 225.103 289.779 C 225.103 297.007 227.421 302.72 232.061 306.918 C 236.698 311.118 243.656 313.217 252.935 313.217 L 326.47 313.217 L 326.47 340.463 C 326.47 347.787 328.155 353.331 331.524 357.089 C 334.893 360.847 339.311 362.729 344.781 362.729 C 350.347 362.729 354.79 360.898 358.111 357.236 C 361.43 353.574 363.091 347.985 363.091 340.464 L 363.091 313.218 L 372.027 313.218 C 379.447 313.218 385.014 311.925 388.726 309.336 C 392.436 306.75 394.292 302.623 394.292 296.958 C 394.293 290.024 392.022 285.531 387.481 283.48 Z M 326.471 280.404 L 263.483 280.404 L 326.471 195.297 L 326.471 280.404 Z"/>
</svg>