<?xml version="1.0" encoding="utf-8"?>
<svg id="Layer_1" style="enable-background:new 0 0 496.158 496.158;" x="0px" y="0px" width="500px" height="500px" viewBox="0 0 496.158 496.158" xmlns="http://www.w3.org/2000/svg">
  <path style="fill:#56B48C;" d="M248.082,0.003C111.07,0.003,0,111.061,0,248.085c0,137,111.07,248.07,248.082,248.07&#10;&#9;c137.006,0,248.076-111.07,248.076-248.07C496.158,111.061,385.088,0.003,248.082,0.003z"/>
  <path style="fill:#FFFFFF;" d="M 189.631 145.419 C 186.504 141.416 182.355 139.413 177.18 139.413 C 172.588 139.413 169.464 140.292 167.805 142.05 C 166.143 143.808 162.579 148.495 157.112 156.113 C 151.641 163.73 145.368 170.615 138.289 176.767 C 131.208 182.919 121.759 188.779 109.944 194.345 C 102.034 198.057 96.515 201.083 93.391 203.427 C 90.264 205.771 88.703 209.433 88.703 214.413 C 88.703 218.711 90.289 222.495 93.464 225.766 C 96.637 229.039 100.276 230.673 104.377 230.673 C 112.969 230.673 129.668 221.152 154.475 202.109 L 154.475 335.41 C 154.475 343.224 156.281 349.132 159.895 353.135 C 163.506 357.138 168.292 359.141 174.25 359.141 C 187.628 359.141 194.318 349.327 194.318 329.698 L 194.318 161.972 C 194.318 154.941 192.755 149.425 189.631 145.419 Z"/>
  <g/>
  <g/>
  <g/>
  <g/>
  <g/>
  <g/>
  <g/>
  <g/>
  <g/>
  <g/>
  <g/>
  <g/>
  <g/>
  <g/>
  <g/>
  <path style="fill:#FFFFFF;" d="M 384.188 254.834 C 380.672 246.338 375.838 238.991 369.686 232.788 C 363.534 226.588 356.379 221.728 348.226 218.213 C 340.071 214.697 331.307 212.94 321.932 212.94 C 310.213 212.94 297.419 216.652 283.553 224.073 L 291.903 176.612 L 361.483 176.612 C 368.709 176.612 374.177 175.051 377.889 171.924 C 381.599 168.8 383.455 164.698 383.455 159.619 C 383.455 147.999 375.838 142.187 360.603 142.187 L 283.259 142.187 C 274.859 142.187 268.805 144.091 265.095 147.9 C 261.383 151.709 258.844 157.813 257.478 166.211 L 245.174 236.377 C 244.098 242.529 243.563 245.851 243.563 246.338 C 243.563 250.733 245.417 254.665 249.129 258.13 C 252.839 261.598 257.087 263.33 261.873 263.33 C 266.268 263.33 271.857 260.767 278.645 255.64 C 285.431 250.513 290.631 246.924 294.246 244.873 C 297.858 242.822 303.864 241.797 312.264 241.797 C 319.098 241.797 325.301 243.434 330.868 246.704 C 336.434 249.977 340.877 254.933 344.198 261.572 C 347.517 268.214 349.178 276.22 349.178 285.595 C 349.178 294.288 347.64 302.052 344.564 308.886 C 341.488 315.723 337.116 321.094 331.454 324.999 C 325.789 328.906 319.197 330.858 311.679 330.858 C 303.476 330.858 296.053 328.441 289.413 323.607 C 282.771 318.773 277.497 312.012 273.593 303.319 C 269.588 293.848 263.486 289.11 255.282 289.11 C 250.496 289.11 246.516 290.82 243.344 294.237 C 240.169 297.656 238.583 301.268 238.583 305.077 C 238.583 311.328 240.854 318.627 245.395 326.976 C 249.936 335.325 257.649 342.723 268.54 349.168 C 279.428 355.613 293.612 358.836 311.094 358.836 C 326.718 358.836 340.512 355.417 352.476 348.582 C 364.437 341.748 373.593 332.519 379.942 320.896 C 386.289 309.276 389.463 296.385 389.463 282.224 C 389.461 272.463 387.703 263.33 384.188 254.834 Z"/>
</svg>