<?xml version="1.0" encoding="utf-8"?>
<svg id="Layer_1" style="enable-background:new 0 0 496.158 496.158;" x="0px" y="0px" width="500px" height="500px" viewBox="0 0 496.158 496.158" xmlns="http://www.w3.org/2000/svg">
  <path style="fill:#56B48C;" d="M248.082,0.003C111.07,0.003,0,111.061,0,248.085c0,137,111.07,248.07,248.082,248.07&#10;&#9;c137.006,0,248.076-111.07,248.076-248.07C496.158,111.061,385.088,0.003,248.082,0.003z"/>
  <path style="fill:#FFFFFF;" d="M 189.631 145.419 C 186.504 141.416 182.355 139.413 177.18 139.413 C 172.588 139.413 169.464 140.292 167.805 142.05 C 166.143 143.808 162.579 148.495 157.112 156.113 C 151.641 163.73 145.368 170.615 138.289 176.767 C 131.208 182.919 121.759 188.779 109.944 194.345 C 102.034 198.057 96.515 201.083 93.391 203.427 C 90.264 205.771 88.703 209.433 88.703 214.413 C 88.703 218.711 90.289 222.495 93.464 225.766 C 96.637 229.039 100.276 230.673 104.377 230.673 C 112.969 230.673 129.668 221.152 154.475 202.109 L 154.475 335.41 C 154.475 343.224 156.281 349.132 159.895 353.135 C 163.506 357.138 168.292 359.141 174.25 359.141 C 187.628 359.141 194.318 349.327 194.318 329.698 L 194.318 161.972 C 194.318 154.941 192.755 149.425 189.631 145.419 Z"/>
  <g/>
  <g/>
  <g/>
  <g/>
  <g/>
  <g/>
  <g/>
  <g/>
  <g/>
  <g/>
  <g/>
  <g/>
  <g/>
  <g/>
  <g/>
  <path style="fill:#FFFFFF;" d="M 382.089 257.723 C 378.866 249.033 374.3 241.489 368.393 235.091 C 362.483 228.696 355.599 223.764 347.739 220.296 C 339.877 216.831 331.307 215.096 322.031 215.096 C 312.363 215.096 303.622 217 295.81 220.809 C 287.996 224.618 280.77 230.477 274.13 238.387 C 275.398 211.825 279.598 193.368 286.728 183.016 C 290.244 177.939 294.565 173.911 299.692 170.931 C 304.819 167.953 309.969 166.463 315.146 166.463 C 321.591 166.463 327.254 168.246 332.138 171.81 C 337.02 175.376 340.584 180.086 342.831 185.946 C 344.49 190.537 347.079 194.126 350.595 196.713 C 354.111 199.302 357.919 200.595 362.021 200.595 C 366.709 200.595 370.565 198.961 373.593 195.688 C 376.619 192.417 378.134 188.78 378.134 184.775 C 378.134 178.135 375.717 171.202 370.883 163.974 C 366.049 156.748 358.871 150.694 349.35 145.81 C 339.829 140.928 328.817 138.486 316.318 138.486 C 303.329 138.486 291.756 140.928 281.601 145.81 C 271.443 150.694 262.801 157.92 255.673 167.49 C 248.543 177.062 243.075 189.122 239.267 203.672 C 235.458 218.224 233.554 234.727 233.554 253.184 C 233.554 275.841 236.703 295.005 243.002 310.679 C 249.301 326.353 258.406 338.195 270.321 346.201 C 282.234 354.21 296.395 358.213 312.801 358.213 C 327.058 358.213 339.827 355.064 351.107 348.765 C 362.387 342.466 371.175 333.702 377.474 322.471 C 383.773 311.242 386.922 298.741 386.922 284.971 C 386.923 275.498 385.312 266.416 382.089 257.723 Z M 338.144 317.269 C 331.699 325.326 323.543 329.354 313.681 329.354 C 303.328 329.354 294.734 324.959 287.9 316.17 C 281.063 307.381 277.646 296.395 277.646 283.211 C 277.646 275.008 279.331 267.856 282.7 261.751 C 286.069 255.649 290.512 250.984 296.03 247.762 C 301.546 244.539 307.332 242.928 313.388 242.928 C 319.735 242.928 325.546 244.613 330.82 247.982 C 336.094 251.351 340.243 256.235 343.271 262.63 C 346.297 269.027 347.812 276.67 347.812 285.555 C 347.812 298.642 344.589 309.212 338.144 317.269 Z"/>
</svg>