<?xml version="1.0" encoding="utf-8"?>
<svg id="Layer_1" style="enable-background:new 0 0 496.158 496.158;" x="0px" y="0px" width="500px" height="500px" viewBox="0 0 496.158 496.158" xmlns="http://www.w3.org/2000/svg" xmlns:bx="https://boxy-svg.com">
  <path style="fill:#56B48C;" d="M248.082,0.003C111.07,0.003,0,111.061,0,248.085c0,137,111.07,248.07,248.082,248.07&#10;&#9;c137.006,0,248.076-111.07,248.076-248.07C496.158,111.061,385.088,0.003,248.082,0.003z"/>
  <path style="fill:#FFFFFF;" d="M 189.631 145.419 C 186.504 141.416 182.355 139.413 177.18 139.413 C 172.588 139.413 169.464 140.292 167.805 142.05 C 166.143 143.808 162.579 148.495 157.112 156.113 C 151.641 163.73 145.368 170.615 138.289 176.767 C 131.208 182.919 121.759 188.779 109.944 194.345 C 102.034 198.057 96.515 201.083 93.391 203.427 C 90.264 205.771 88.703 209.433 88.703 214.413 C 88.703 218.711 90.289 222.495 93.464 225.766 C 96.637 229.039 100.276 230.673 104.377 230.673 C 112.969 230.673 129.668 221.152 154.475 202.109 L 154.475 335.41 C 154.475 343.224 156.281 349.132 159.895 353.135 C 163.506 357.138 168.292 359.141 174.25 359.141 C 187.628 359.141 194.318 349.327 194.318 329.698 L 194.318 161.972 C 194.318 154.941 192.755 149.425 189.631 145.419 Z"/>
  <g/>
  <g/>
  <g/>
  <g/>
  <g/>
  <g/>
  <g/>
  <g/>
  <g/>
  <g/>
  <g/>
  <g/>
  <g/>
  <g/>
  <g/>
  <path style="fill:#FFFFFF;" d="M 381.524 145.646 C 377.324 142.716 370.538 141.251 361.163 141.251 L 263.604 141.251 C 255.888 141.251 249.882 142.229 245.586 144.181 C 241.288 146.136 239.141 150.48 239.141 157.218 C 239.141 163.567 241.166 168.23 245.22 171.207 C 249.271 174.187 255.401 175.675 263.604 175.675 L 341.973 175.675 C 329.668 191.301 319.048 207 310.113 222.77 C 301.177 238.542 293.73 253.923 287.774 268.913 C 281.816 283.905 277.52 296.77 274.883 307.512 C 272.246 318.256 270.928 326.752 270.928 333 C 270.928 341.107 272.734 347.234 276.348 351.384 C 279.96 355.533 284.745 357.61 290.703 357.61 C 296.952 357.61 301.957 355.68 305.718 351.824 C 309.476 347.968 312.383 341.057 314.434 331.096 C 315.313 326.8 316.338 320.599 317.51 312.492 C 318.682 304.388 319.755 297.796 320.733 292.717 C 321.709 287.64 323.37 281.243 325.713 273.528 C 331.279 256.049 337.406 241.254 344.097 229.143 C 350.785 217.035 357.281 206.903 363.579 198.747 C 369.878 190.594 375.492 183.146 380.425 176.408 C 385.355 169.67 387.822 164.25 387.822 160.148 C 387.823 153.41 385.722 148.576 381.524 145.646 Z" bx:origin="0.169 0.517"/>
</svg>