<?xml version="1.0" encoding="utf-8"?>
<svg id="Layer_1" style="enable-background:new 0 0 496.158 496.158;" x="0px" y="0px" width="500px" height="500px" viewBox="0 0 496.158 496.158" xmlns="http://www.w3.org/2000/svg">
  <path style="fill:#56B48C;" d="M248.082,0.003C111.07,0.003,0,111.061,0,248.085c0,137,111.07,248.07,248.082,248.07&#10;&#9;c137.006,0,248.076-111.07,248.076-248.07C496.158,111.061,385.088,0.003,248.082,0.003z"/>
  <path style="fill:#FFFFFF;" d="M 189.631 145.419 C 186.504 141.416 182.355 139.413 177.18 139.413 C 172.588 139.413 169.464 140.292 167.805 142.05 C 166.143 143.808 162.579 148.495 157.112 156.113 C 151.641 163.73 145.368 170.615 138.289 176.767 C 131.208 182.919 121.759 188.779 109.944 194.345 C 102.034 198.057 96.515 201.083 93.391 203.427 C 90.264 205.771 88.703 209.433 88.703 214.413 C 88.703 218.711 90.289 222.495 93.464 225.766 C 96.637 229.039 100.276 230.673 104.377 230.673 C 112.969 230.673 129.668 221.152 154.475 202.109 L 154.475 335.41 C 154.475 343.224 156.281 349.132 159.895 353.135 C 163.506 357.138 168.292 359.141 174.25 359.141 C 187.628 359.141 194.318 349.327 194.318 329.698 L 194.318 161.972 C 194.318 154.941 192.755 149.425 189.631 145.419 Z"/>
  <g/>
  <g/>
  <g/>
  <g/>
  <g/>
  <g/>
  <g/>
  <g/>
  <g/>
  <g/>
  <g/>
  <g/>
  <g/>
  <g/>
  <g/>
  <path style="fill:#FFFFFF;" d="M 389.803 269.269 C 387.02 262.384 382.893 256.331 377.425 251.105 C 371.955 245.882 365.07 241.657 356.771 238.434 C 366.535 233.65 373.884 227.498 378.817 219.977 C 383.747 212.458 386.214 203.914 386.214 194.342 C 386.214 186.823 384.797 179.719 381.966 173.029 C 379.133 166.341 374.788 160.335 368.929 155.011 C 363.07 149.69 355.745 145.515 346.956 142.487 C 338.167 139.461 327.961 137.946 316.341 137.946 C 302.571 137.946 290.534 140.535 280.233 145.71 C 269.929 150.887 262.117 157.795 256.795 166.438 C 251.471 175.081 248.812 184.286 248.812 194.05 C 248.812 214.265 258.821 229.06 278.841 238.435 C 254.035 248.202 241.634 266.219 241.634 292.488 C 241.634 304.793 244.564 315.903 250.423 325.813 C 256.282 335.726 264.973 343.515 276.497 349.177 C 288.019 354.84 301.887 357.673 318.099 357.673 C 333.723 357.673 347.297 354.84 358.822 349.177 C 370.344 343.514 379.085 335.677 385.043 325.666 C 390.999 315.657 393.979 304.499 393.979 292.194 C 393.978 283.796 392.586 276.154 389.803 269.269 Z M 295.028 174.493 C 300.642 168.78 308.04 165.924 317.22 165.924 C 323.274 165.924 328.646 167.242 333.333 169.879 C 338.02 172.516 341.657 176.13 344.246 180.719 C 346.832 185.31 348.128 190.486 348.128 196.246 C 348.128 200.544 347.396 204.475 345.931 208.038 C 344.466 211.604 342.39 214.68 339.705 217.267 C 337.018 219.856 333.795 221.881 330.037 223.346 C 326.276 224.811 322.101 225.543 317.513 225.543 C 308.431 225.543 301.008 222.785 295.247 217.267 C 289.484 211.751 286.604 204.841 286.604 196.539 C 286.605 187.556 289.411 180.206 295.028 174.493 Z M 349.154 311.237 C 346.028 317.096 341.731 321.637 336.263 324.86 C 330.793 328.083 324.64 329.694 317.806 329.694 C 311.068 329.694 304.963 328.108 299.495 324.933 C 294.025 321.761 289.703 317.268 286.531 311.456 C 283.356 305.647 281.77 298.932 281.77 291.314 C 281.77 279.401 285.139 270.124 291.877 263.482 C 298.615 256.842 306.965 253.521 316.926 253.521 C 323.957 253.521 330.304 255.036 335.969 258.062 C 341.632 261.09 346.026 265.437 349.153 271.099 C 352.277 276.764 353.841 283.404 353.841 291.021 C 353.841 298.638 352.278 305.377 349.154 311.237 Z"/>
</svg>