<?xml version="1.0" encoding="utf-8"?>
<svg id="Layer_1" style="enable-background:new 0 0 496.158 496.158;" x="0px" y="0px" width="500px" height="500px" viewBox="0 0 496.158 496.158" xmlns="http://www.w3.org/2000/svg">
  <path style="fill:#56B48C;" d="M248.082,0.003C111.07,0.003,0,111.061,0,248.085c0,137,111.07,248.07,248.082,248.07&#10;&#9;c137.006,0,248.076-111.07,248.076-248.07C496.158,111.061,385.088,0.003,248.082,0.003z"/>
  <path style="fill:#FFFFFF;" d="M 189.631 145.419 C 186.504 141.416 182.355 139.413 177.18 139.413 C 172.588 139.413 169.464 140.292 167.805 142.05 C 166.143 143.808 162.579 148.495 157.112 156.113 C 151.641 163.73 145.368 170.615 138.289 176.767 C 131.208 182.919 121.759 188.779 109.944 194.345 C 102.034 198.057 96.515 201.083 93.391 203.427 C 90.264 205.771 88.703 209.433 88.703 214.413 C 88.703 218.711 90.289 222.495 93.464 225.766 C 96.637 229.039 100.276 230.673 104.377 230.673 C 112.969 230.673 129.668 221.152 154.475 202.109 L 154.475 335.41 C 154.475 343.224 156.281 349.132 159.895 353.135 C 163.506 357.138 168.292 359.141 174.25 359.141 C 187.628 359.141 194.318 349.327 194.318 329.698 L 194.318 161.972 C 194.318 154.941 192.755 149.425 189.631 145.419 Z"/>
  <g/>
  <g/>
  <g/>
  <g/>
  <g/>
  <g/>
  <g/>
  <g/>
  <g/>
  <g/>
  <g/>
  <g/>
  <g/>
  <g/>
  <g/>
  <path style="fill:#FFFFFF;" d="M 380.889 197.463 C 377.275 184.183 372.1 173.172 365.362 164.431 C 358.624 155.692 350.322 149.027 340.46 144.436 C 330.596 139.847 319.366 137.551 306.769 137.551 C 295.831 137.551 285.844 139.407 276.813 143.117 C 267.779 146.829 259.991 152.005 253.449 158.644 C 246.905 165.286 241.877 173.123 238.361 182.155 C 234.845 191.189 233.088 200.736 233.088 210.793 C 233.088 220.168 234.65 229.129 237.776 237.673 C 240.9 246.219 245.368 253.69 251.179 260.085 C 256.988 266.482 263.872 271.463 271.833 275.026 C 279.791 278.592 288.36 280.373 297.541 280.373 C 307.209 280.373 316.02 278.446 323.981 274.587 C 331.939 270.731 339.142 264.992 345.587 257.375 C 344.219 283.841 340.021 302.298 332.989 312.746 C 329.473 317.923 325.225 321.927 320.245 324.758 C 315.265 327.591 309.991 329.006 304.425 329.006 C 298.174 329.006 292.56 327.225 287.579 323.659 C 282.599 320.096 279.033 315.383 276.886 309.523 C 275.128 304.739 272.539 301.15 269.122 298.756 C 265.703 296.364 261.846 295.167 257.55 295.167 C 252.862 295.167 249.004 296.778 245.978 300.001 C 242.95 303.224 241.437 306.886 241.437 310.987 C 241.437 317.629 243.877 324.537 248.761 331.715 C 253.643 338.893 260.773 344.899 270.148 349.733 C 279.523 354.567 290.557 356.984 303.253 356.984 C 316.144 356.984 327.666 354.615 337.823 349.88 C 347.978 345.145 356.694 337.919 363.97 328.2 C 371.243 318.484 376.787 306.472 380.596 292.165 C 384.405 277.86 386.309 261.33 386.309 242.58 C 386.309 225.784 384.501 210.745 380.889 197.463 Z M 337.017 233.937 C 333.549 239.993 329.056 244.607 323.54 247.78 C 318.021 250.955 312.235 252.541 306.182 252.541 C 296.318 252.541 288.164 248.685 281.719 240.969 C 275.274 233.256 272.051 222.904 272.051 209.914 C 272.051 196.829 275.274 186.307 281.719 178.347 C 288.164 170.389 296.025 166.409 305.303 166.409 C 310.673 166.409 315.63 167.581 320.171 169.925 C 324.712 172.269 328.616 175.491 331.89 179.593 C 335.161 183.695 337.699 188.554 339.507 194.168 C 341.313 199.785 342.217 205.912 342.217 212.552 C 342.217 220.754 340.482 227.883 337.017 233.937 Z"/>
</svg>