<?xml version="1.0" encoding="UTF-8" standalone="no"?>
<!DOCTYPE svg PUBLIC "-//W3C//DTD SVG 1.1//EN" "http://www.w3.org/Graphics/SVG/1.1/DTD/svg11.dtd">
<svg width="500px" height="500px" viewBox="0 0 64 64" version="1.1" xmlns="http://www.w3.org/2000/svg" xmlns:xlink="http://www.w3.org/1999/xlink" xml:space="preserve" style="fill-rule:evenodd;clip-rule:evenodd;stroke-linejoin:round;stroke-miterlimit:1.41421;">
    <g id="Layer-1" transform="matrix(-1,0,-0,1,63.9995,0)">
        <path d="M42.614,60L47.233,60L56.934,43.195L48.805,38.314L38.968,41.249L49.821,47.517L42.614,60ZM28.624,54.434L19,48.877C18.541,48.612 18.206,48.176 18.068,47.663C17.93,47.15 18.003,46.604 18.267,46.145L24.036,36.154L27.5,38.155L22.731,46.413L28.624,49.814L28.624,54.434Z" style="fill:rgb(217,154,87);fill-rule:nonzero;"/>
        <g>
            <g opacity="0.300003">
                <clipPath id="_clip1">
                    <rect x="18" y="36.154" width="38.935" height="23.846"/>
                </clipPath>
                <g clip-path="url(#_clip1)">
                    <path d="M42.614,60L47.233,60L56.934,43.195L48.805,38.314L38.968,41.249L49.821,47.517L42.614,60ZM28.624,54.434L19,48.877C18.541,48.612 18.206,48.176 18.068,47.663C17.93,47.15 18.003,46.604 18.267,46.145L24.036,36.154L27.5,38.155L22.731,46.413L28.624,49.814L28.624,54.434Z" style="fill:rgb(35,31,32);fill-rule:nonzero;"/>
                </g>
            </g>
        </g>
        <path d="M25.624,23.462C24.013,22.532 23,21.209 23,19L23,8L20,8L16.627,8L11.489,8L5.999,8C3.79,8 1.999,9.791 1.999,12L1.999,16L3.999,16C5.456,16 6.384,15.108 6.969,14.096L12.102,17.059C12.102,17.059 11.718,17.695 11.52,18.024C10.568,19.604 10,21.455 10,23.428C10,29.26 14.776,34 20.666,34L32,34L32,25C28.73,25 26.444,23.936 25.624,23.462" style="fill:rgb(217,154,87);fill-rule:nonzero;"/>
        <g>
            <clipPath id="_clip2">
                <path d="M20,8L16.628,8L11.488,8L6,8C3.791,8 2,9.791 2,12L2,16L4,16C5.457,16 6.385,15.107 6.97,14.096L12.101,17.059C12.101,17.059 11.719,17.695 11.52,18.024C10.569,19.604 10,21.455 10,23.428C10,29.26 14.775,34 20.666,34L32,34L32,25C28.73,25 26.444,23.936 25.624,23.462C24.012,22.532 23,21.209 23,19L23,8L20,8Z"/>
            </clipPath>
            <g clip-path="url(#_clip2)">
                <g opacity="0.300003">
                    <clipPath id="_clip3">
                        <rect x="2" y="8" width="15.332" height="10"/>
                    </clipPath>
                    <g clip-path="url(#_clip3)">
                        <path d="M11.558,18L2,18L2,8L17.332,8L11.558,18Z" style="fill:white;fill-rule:nonzero;"/>
                    </g>
                </g>
            </g>
        </g>
        <path d="M53.445,20.719C52.547,19.133 49.84,14.468 48.986,12.996C47.257,10.009 44.025,8 40.326,8C36.625,8 33.394,10.011 31.664,12.999C30.814,14.47 21.263,30.965 21.028,31.423C20.32,32.794 19.921,34.35 19.921,36C19.921,38.417 21.197,40.981 23.582,42.359C24.532,42.908 26.714,44.181 28,44.933L28,60L32,60L32,40.167C33.774,41.191 36.084,42 39,42C43.459,42 47.905,40.119 50.526,36.917C54.755,31.75 55.252,23.908 53.445,20.719" style="fill:rgb(217,154,87);fill-rule:nonzero;"/>
        <g>
            <clipPath id="_clip4">
                <path d="M31.665,13C30.814,14.47 21.263,30.965 21.028,31.423C20.32,32.794 19.921,34.35 19.921,36C19.921,38.417 21.198,40.982 23.582,42.359C24.533,42.908 26.714,44.182 28,44.934L28,60L32,60L32,40.167C33.774,41.191 36.084,42 39,42C43.459,42 47.905,40.119 50.526,36.917C54.755,31.75 55.252,23.909 53.446,20.719C52.547,19.133 49.84,14.468 48.986,12.996C47.258,10.009 44.025,8 40.326,8C36.625,8 33.395,10.011 31.665,13Z"/>
            </clipPath>
            <g clip-path="url(#_clip4)">
                <g opacity="0.300003">
                    <clipPath id="_clip5">
                        <rect x="19.268" y="8" width="25.647" height="43.764"/>
                    </clipPath>
                    <g clip-path="url(#_clip5)">
                        <path d="M44.914,8C44.914,8 40.28,16.018 36.239,23.019C33.781,27.275 32,31.401 32,36.5C32,45.186 32,51.764 32,51.764L19.268,44.413L19.268,8L44.914,8Z" style="fill:white;fill-rule:nonzero;"/>
                    </g>
                </g>
            </g>
        </g>
        <path d="M58,38.268L58,32.311C58,29.465 56.907,26.716 55.652,24.543C54.265,22.139 53.445,20.72 53.445,20.72C53.445,20.72 49.896,26.863 47.995,30.157C46.839,32.16 46.001,34.101 46.001,36.5C46.001,40.587 48.337,42.542 50.495,43.793C51.09,44.137 56.009,46.977 58,48.126L58,60L62,60L62,44.464C59.613,43.087 58,41.241 58,38.268" style="fill:rgb(217,154,87);fill-rule:nonzero;"/>
        <g>
            <g opacity="0.300003">
                <path d="M58,38.268L58,32.311C58,29.465 56.907,26.716 55.652,24.543C54.265,22.139 53.445,20.72 53.445,20.72C53.445,20.72 49.896,26.863 47.995,30.157C46.839,32.16 46.001,34.101 46.001,36.5C46.001,40.587 48.337,42.542 50.495,43.793C51.09,44.137 56.009,46.977 58,48.126L58,60L62,60L62,44.464C59.613,43.087 58,41.241 58,38.268" style="fill:white;fill-rule:nonzero;"/>
            </g>
        </g>
        <path d="M17.332,8C17.332,8 21.319,10.302 23.065,11.31C24.853,12.342 26.954,12.279 27.87,10.693L29.424,8L17.332,8Z" style="fill:rgb(217,154,87);fill-rule:nonzero;"/>
        <g>
            <g opacity="0.300003">
                <clipPath id="_clip6">
                    <rect x="17.332" y="8" width="12.092" height="4"/>
                </clipPath>
                <g clip-path="url(#_clip6)">
                    <path d="M17.332,8C17.332,8 21.319,10.302 23.065,11.31C24.853,12.342 26.954,12.279 27.87,10.693L29.424,8L17.332,8Z" style="fill:rgb(35,31,32);fill-rule:nonzero;"/>
                </g>
            </g>
        </g>
    </g>
</svg>
