<?xml version="1.0" encoding="iso-8859-1"?>
<!-- Generator: Adobe Illustrator 19.0.0, SVG Export Plug-In . SVG Version: 6.00 Build 0)  -->
<svg version="1.1" id="Layer_1" xmlns="http://www.w3.org/2000/svg" xmlns:xlink="http://www.w3.org/1999/xlink" width="500px" height="500px" x="0px" y="0px"
	 viewBox="0 0 504.112 504.112" style="enable-background:new 0 0 504.112 504.112;" xml:space="preserve">
<path style="fill:#99B5B5;" d="M368.131,180.577c-7.294,7.294-19.117,7.294-26.419,0l-18.172-18.172
	c-7.302-7.294-7.302-19.133-0.008-26.427l12.808-12.8c7.302-7.294,19.133-7.294,26.427,0l18.172,18.172
	c7.294,7.294,7.294,19.133,0,26.427L368.131,180.577z"/>
<path style="fill:#88A3A2;" d="M368.131,180.577l12.225-12.201c-0.528-0.701-1.048-1.41-1.686-2.048l-40.873-40.881
	c-0.646-0.63-1.355-1.142-2.048-1.67l-12.209,12.201c-0.276,0.284-0.48,0.607-0.733,0.914l44.418,44.434
	C367.532,181.065,367.855,180.861,368.131,180.577z"/>
<g>
	<path style="fill:#205F72;" d="M51.802,457.27c-1.371,1.371-3.592,1.371-4.955,0l0,0c-1.371-1.371-1.371-3.584,0-4.955
		l111.222-111.222c1.371-1.371,3.592-1.371,4.962,0l0,0c1.363,1.371,1.363,3.584,0,4.955L51.802,457.27z"/>
	<path style="fill:#205F72;" d="M304.548,315.619c-2.402,2.395-6.278,2.395-8.68,0l-107.37-107.37c-2.395-2.402-2.395-6.278,0-8.68
		l0,0c2.395-2.395,6.278-2.395,8.68,0l107.37,107.386C306.951,309.333,306.943,313.232,304.548,315.619L304.548,315.619z"/>
</g>
<path style="fill:#1F3954;" d="M353.897,217.535c-7.302,7.302-19.133,7.302-26.435,0l-40.873-40.881
	c-7.31-7.302-7.31-19.141,0-26.435l18.18-18.172c7.302-7.294,19.133-7.294,26.435,0l40.865,40.889c7.31,7.294,7.31,19.133,0,26.427
	L353.897,217.535z"/>
<path style="fill:#0E253A;" d="M304.753,132.047c7.302-7.294,19.133-7.294,26.435,0l40.865,40.889c7.31,7.294,7.31,19.133,0,26.427
	l-18.172,18.172c-7.302,7.302-19.133,7.302-26.435,0"/>
<path style="fill:#18456D;" d="M304.753,132.047c7.302-7.294,19.133-7.294,26.435,0l40.865,40.889c7.31,7.294,7.31,19.133,0,26.427"
	/>
<path style="fill:#738E8C;" d="M220.651,365.244c-9.633,9.633-25.253,9.641-34.895-0.008l-46.876-46.868
	c-9.649-9.649-9.641-25.261-0.008-34.895l94.129-94.129c9.626-9.633,25.253-9.633,54.713-19.818l46.868,46.876
	c-10.177,29.46-10.193,45.088-19.81,54.713L220.651,365.244z"/>
<path style="fill:#5E7A77;" d="M233.002,189.352c9.626-9.633,25.253-9.633,54.713-19.818l46.868,46.876
	c-10.177,29.46-10.193,45.088-19.81,54.713l-94.129,94.129c-9.633,9.633-25.253,9.641-34.895-0.008"/>
<path style="fill:#455B58;" d="M233.002,189.352c9.626-9.633,25.253-9.633,54.713-19.818l46.868,46.876
	c-10.177,29.46-10.193,45.088-19.81,54.713"/>
<path style="fill:#324441;" d="M287.715,169.526l46.868,46.876c-10.177,29.46-10.193,45.088-19.81,54.713"/>
<path style="fill:#205F72;" d="M282.808,171.125c0.898,1.985,2.127,3.891,3.773,5.53l40.873,40.881
	c1.646,1.638,3.537,2.867,5.537,3.765c0.544-1.638,1-3.167,1.591-4.899l-46.868-46.876
	C285.99,170.124,284.462,170.589,282.808,171.125z"/>
<path style="fill:#99B5B5;" d="M255.381,198.332v-96.823c1.591-0.662,3.08-1.623,4.364-2.907c5.356-5.348,5.348-14.06,0-19.409
	c-5.348-5.356-14.06-5.356-19.409,0c-1.371,1.355-2.379,2.93-3.056,4.608h-71.215c-2.592,0.008-4.671,2.095-4.671,4.671
	c0,2.584,2.079,4.671,4.671,4.671h26.23c0.095,0.102,0.11,0.205,0.197,0.299l53.13,53.13c0.126,0.126,0.291,0.173,0.417,0.276
	v51.476c0,1.3,0.52,2.458,1.371,3.3c0.851,0.851,2.016,1.371,3.308,1.371C253.309,203.003,255.381,200.907,255.381,198.332z
	 M205.417,93.151l31.634,0.008c0.646,1.985,1.701,3.868,3.285,5.443c1.646,1.654,3.616,2.725,5.711,3.363v31.823L205.417,93.151z"/>
<path style="fill:#738E8C;" d="M256.224,82.698c-4.75-4.742-12.107-5.254-17.455-1.591c-0.591,0.851-1.119,1.757-1.489,2.694h-1.355
	c-0.882,1.095-1.646,2.261-2.143,3.513h-71.247c-0.331,0-0.63,0.134-0.945,0.197c-0.071,0.323-0.205,0.622-0.189,0.961
	c0,2.584,2.079,4.671,4.671,4.671h26.23c0.095,0.102,0.11,0.205,0.197,0.299l53.13,53.13c0.126,0.126,0.291,0.173,0.417,0.276
	v51.476c0,1.3,0.52,2.458,1.371,3.3c0.851,0.851,2.016,1.371,3.308,1.371c0.347,0,0.646-0.126,0.969-0.189
	c0.079-0.331,0.189-0.622,0.189-0.969v-96.823c1.252-0.528,2.426-1.3,3.497-2.213v-1.292c0.843-0.354,1.662-0.803,2.418-1.331
	C261.493,94.837,260.973,87.456,256.224,82.698z M246.039,133.78l3.111,3.104l-6.609,0.41l-40.637-40.637l0.402-6.609l3.119,3.104
	l31.634,0.008c0.646,1.985,1.701,3.868,3.285,5.443c1.646,1.654,3.616,2.725,5.711,3.363v31.815H246.039z"/>
<path style="fill:#99B5B5;" d="M165.237,196.819c-6.081,6.081-6.081,15.943,0,22.024l0,0c6.073,6.073,15.943,6.073,22.024,0
	l22.567-22.575c6.089-6.081,6.089-15.943,0.016-22.024l0,0c-6.081-6.081-15.935-6.081-22.032,0L165.237,196.819z"/>
<path style="fill:#88A3A2;" d="M209.828,196.268c6.089-6.081,6.089-15.943,0.016-22.024l0,0c-6.081-6.081-15.935-6.081-22.032,0
	l-22.575,22.575c-6.081,6.081-6.081,15.943,0,22.024l0,0"/>
<path style="fill:#B6CECD;" d="M209.844,174.244c-6.081-6.081-15.935-6.081-22.032,0l-9.358,9.366
	c-6.081,6.073-6.081,15.943,0.008,22.016c6.073,6.073,15.935,6.073,22.016,0l9.358-9.358
	C215.917,190.187,215.917,180.325,209.844,174.244z"/>
<path style="fill:#99B5B5;" d="M209.844,174.244c-6.081-6.081-15.935-6.081-22.032,0l-9.358,9.366
	c-6.081,6.073-6.081,15.943,0.008,22.016"/>
<path style="fill:#27D6FF;" d="M154.54,220.852c-4.805,4.805-12.627,4.805-17.432,0L8.565,92.3c-4.805-4.805-4.805-12.611,0-17.424
	L73.936,9.514c4.797-4.805,12.619-4.805,17.424,0l128.551,128.551c4.797,4.805,4.805,12.619,0,17.424L154.54,220.852z"/>
<path style="fill:#349DD1;" d="M149.586,225.806c-4.805,4.805-12.627,4.805-17.432,0L3.603,97.255
	c-4.805-4.805-4.805-12.611,0.008-17.416l65.363-65.363c4.813-4.813,12.619-4.813,17.432-0.008L214.941,143.02
	c4.821,4.805,4.821,12.619,0,17.424L149.586,225.806z"/>
<path style="fill:#108EBF;" d="M214.941,143.012c4.821,4.805,4.821,12.619,0,17.424l-65.355,65.363
	c-4.805,4.805-12.627,4.805-17.432,0L3.603,97.247c-4.805-4.805-4.805-12.611,0.008-17.416"/>
<g>
	<path style="fill:#27D6FF;" d="M35.567,113.316c-0.685,0.685-1.796,0.685-2.473,0l0,0c-0.685-0.677-0.685-1.796,0-2.473
		l66.899-66.899c0.685-0.685,1.796-0.685,2.473,0l0,0c0.693,0.685,0.693,1.788,0,2.473L35.567,113.316z"/>
	<path style="fill:#27D6FF;" d="M63.231,140.988c-0.685,0.685-1.796,0.685-2.473,0l0,0c-0.685-0.685-0.685-1.796,0-2.473
		l66.899-66.899c0.685-0.685,1.804-0.685,2.473,0l0,0c0.693,0.685,0.693,1.788,0,2.473L63.231,140.988z"/>
	<path style="fill:#27D6FF;" d="M90.895,168.659c-0.685,0.685-1.788,0.685-2.465,0l0,0c-0.693-0.677-0.693-1.796,0-2.473
		l66.891-66.899c0.693-0.685,1.804-0.685,2.473,0l0,0c0.693,0.685,0.693,1.788,0,2.473L90.895,168.659z"/>
	<path style="fill:#27D6FF;" d="M118.582,196.331c-0.701,0.685-1.804,0.677-2.489,0l0,0c-0.677-0.685-0.677-1.796,0-2.481
		L183,126.951c0.685-0.685,1.804-0.685,2.481,0l0,0c0.685,0.685,0.685,1.796,0,2.473L118.582,196.331z"/>
	<circle style="fill:#27D6FF;" cx="71.037" cy="29.238" r="1.749"/>
	<circle style="fill:#27D6FF;" cx="76.819" cy="35.019" r="1.749"/>
	<circle style="fill:#27D6FF;" cx="82.6" cy="40.801" r="1.757"/>
	<circle style="fill:#27D6FF;" cx="88.39" cy="46.583" r="1.757"/>
	<circle style="fill:#27D6FF;" cx="99.008" cy="57.185" r="1.749"/>
	<circle style="fill:#27D6FF;" cx="104.766" cy="62.967" r="1.757"/>
	<circle style="fill:#27D6FF;" cx="110.548" cy="68.748" r="1.757"/>
	<circle style="fill:#27D6FF;" cx="116.329" cy="74.53" r="1.757"/>
	<circle style="fill:#27D6FF;" cx="126.94" cy="85.132" r="1.757"/>
	<circle style="fill:#27D6FF;" cx="132.721" cy="90.89" r="1.749"/>
	<circle style="fill:#27D6FF;" cx="138.471" cy="96.696" r="1.757"/>
	<circle style="fill:#27D6FF;" cx="144.277" cy="102.477" r="1.749"/>
	<circle style="fill:#27D6FF;" cx="154.855" cy="113.08" r="1.749"/>
	<circle style="fill:#27D6FF;" cx="160.661" cy="118.861" r="1.757"/>
	<circle style="fill:#27D6FF;" cx="166.442" cy="124.643" r="1.749"/>
	<circle style="fill:#27D6FF;" cx="172.224" cy="130.432" r="1.749"/>
	<circle style="fill:#27D6FF;" cx="182.826" cy="141.027" r="1.757"/>
	<circle style="fill:#27D6FF;" cx="188.608" cy="146.816" r="1.757"/>
	<path style="fill:#27D6FF;" d="M195.642,153.835c-0.701,0.677-1.804,0.685-2.489,0c-0.685-0.685-0.685-1.804,0-2.481
		c0.685-0.685,1.796-0.685,2.489,0C196.304,152.031,196.304,153.15,195.642,153.835z"/>
	<circle style="fill:#27D6FF;" cx="200.179" cy="158.372" r="1.757"/>
	<circle style="fill:#27D6FF;" cx="60.506" cy="39.769" r="1.749"/>
	<circle style="fill:#27D6FF;" cx="66.287" cy="45.551" r="1.749"/>
	<circle style="fill:#27D6FF;" cx="72.069" cy="51.348" r="1.757"/>
	<circle style="fill:#27D6FF;" cx="77.858" cy="57.114" r="1.757"/>
	<circle style="fill:#27D6FF;" cx="88.445" cy="67.732" r="1.749"/>
	<circle style="fill:#27D6FF;" cx="94.235" cy="73.498" r="1.757"/>
	<circle style="fill:#27D6FF;" cx="100.016" cy="79.28" r="1.757"/>
	<circle style="fill:#27D6FF;" cx="105.798" cy="85.061" r="1.757"/>
	<circle style="fill:#27D6FF;" cx="116.4" cy="95.664" r="1.757"/>
	<circle style="fill:#27D6FF;" cx="122.166" cy="101.445" r="1.749"/>
	<circle style="fill:#27D6FF;" cx="127.964" cy="107.196" r="1.757"/>
	<circle style="fill:#27D6FF;" cx="133.745" cy="113.009" r="1.757"/>
	<circle style="fill:#27D6FF;" cx="144.348" cy="123.611" r="1.757"/>
	<circle style="fill:#27D6FF;" cx="150.137" cy="129.393" r="1.757"/>
	<circle style="fill:#27D6FF;" cx="155.911" cy="135.174" r="1.749"/>
	<circle style="fill:#27D6FF;" cx="161.708" cy="140.956" r="1.757"/>
	<circle style="fill:#27D6FF;" cx="172.295" cy="151.558" r="1.757"/>
	<circle style="fill:#27D6FF;" cx="178.092" cy="157.34" r="1.757"/>
	<circle style="fill:#27D6FF;" cx="183.858" cy="163.122" r="1.757"/>
	<circle style="fill:#27D6FF;" cx="189.648" cy="168.903" r="1.757"/>
	<circle style="fill:#27D6FF;" cx="49.974" cy="50.301" r="1.757"/>
	<circle style="fill:#27D6FF;" cx="55.756" cy="56.082" r="1.749"/>
	<circle style="fill:#27D6FF;" cx="61.537" cy="61.864" r="1.757"/>
	<circle style="fill:#27D6FF;" cx="67.343" cy="67.653" r="1.749"/>
	<circle style="fill:#27D6FF;" cx="77.929" cy="78.248" r="1.749"/>
	<circle style="fill:#27D6FF;" cx="83.703" cy="84.03" r="1.757"/>
	<circle style="fill:#27D6FF;" cx="89.485" cy="89.811" r="1.757"/>
	<circle style="fill:#27D6FF;" cx="95.266" cy="95.593" r="1.757"/>
	<path style="fill:#27D6FF;" d="M107.121,107.44c-0.701,0.677-1.804,0.685-2.481,0c-0.677-0.685-0.685-1.796,0-2.481
		c0.685-0.685,1.788-0.685,2.481,0C107.783,105.644,107.783,106.754,107.121,107.44z"/>
	<circle style="fill:#27D6FF;" cx="111.658" cy="111.977" r="1.749"/>
	<circle style="fill:#27D6FF;" cx="117.432" cy="117.759" r="1.749"/>
	<circle style="fill:#27D6FF;" cx="123.19" cy="123.54" r="1.749"/>
	<circle style="fill:#27D6FF;" cx="133.816" cy="134.143" r="1.757"/>
	<circle style="fill:#27D6FF;" cx="139.606" cy="139.924" r="1.757"/>
	<circle style="fill:#27D6FF;" cx="145.387" cy="145.706" r="1.749"/>
	<circle style="fill:#27D6FF;" cx="151.161" cy="151.487" r="1.757"/>
	<circle style="fill:#27D6FF;" cx="161.787" cy="162.098" r="1.757"/>
	<circle style="fill:#27D6FF;" cx="167.545" cy="167.871" r="1.757"/>
	<circle style="fill:#27D6FF;" cx="173.327" cy="173.653" r="1.757"/>
	<circle style="fill:#27D6FF;" cx="179.116" cy="179.435" r="1.757"/>
	<circle style="fill:#27D6FF;" cx="39.443" cy="60.832" r="1.749"/>
	<circle style="fill:#27D6FF;" cx="45.224" cy="66.614" r="1.749"/>
	<circle style="fill:#27D6FF;" cx="51.014" cy="72.395" r="1.757"/>
	<path style="fill:#27D6FF;" d="M58.04,79.414c-0.701,0.685-1.804,0.685-2.481,0c-0.677-0.685-0.685-1.788,0-2.473
		c0.685-0.685,1.788-0.685,2.481,0C58.702,77.626,58.702,78.736,58.04,79.414z"/>
	<circle style="fill:#27D6FF;" cx="67.422" cy="88.779" r="1.749"/>
	<circle style="fill:#27D6FF;" cx="73.172" cy="94.561" r="1.757"/>
	<circle style="fill:#27D6FF;" cx="78.953" cy="100.343" r="1.757"/>
	<circle style="fill:#27D6FF;" cx="84.735" cy="106.124" r="1.757"/>
	<circle style="fill:#27D6FF;" cx="95.345" cy="116.727" r="1.757"/>
	<circle style="fill:#27D6FF;" cx="101.127" cy="122.477" r="1.749"/>
	<circle style="fill:#27D6FF;" cx="106.885" cy="128.29" r="1.749"/>
	<circle style="fill:#27D6FF;" cx="112.69" cy="134.072" r="1.749"/>
	<circle style="fill:#27D6FF;" cx="123.269" cy="144.674" r="1.757"/>
	<circle style="fill:#27D6FF;" cx="129.074" cy="150.456" r="1.757"/>
	<circle style="fill:#27D6FF;" cx="134.856" cy="156.237" r="1.749"/>
	<circle style="fill:#27D6FF;" cx="140.63" cy="162.019" r="1.757"/>
	<circle style="fill:#27D6FF;" cx="151.232" cy="172.621" r="1.757"/>
	<circle style="fill:#27D6FF;" cx="157.014" cy="178.403" r="1.757"/>
	<circle style="fill:#27D6FF;" cx="162.811" cy="184.185" r="1.757"/>
	<circle style="fill:#27D6FF;" cx="168.585" cy="189.966" r="1.757"/>
	<circle style="fill:#27D6FF;" cx="28.911" cy="71.363" r="1.749"/>
	<circle style="fill:#27D6FF;" cx="34.693" cy="77.145" r="1.749"/>
	<circle style="fill:#27D6FF;" cx="40.482" cy="82.935" r="1.757"/>
	<circle style="fill:#27D6FF;" cx="46.272" cy="88.708" r="1.757"/>
	<circle style="fill:#27D6FF;" cx="56.866" cy="99.319" r="1.749"/>
	<circle style="fill:#27D6FF;" cx="62.648" cy="105.092" r="1.749"/>
	<circle style="fill:#27D6FF;" cx="68.422" cy="110.874" r="1.757"/>
	<circle style="fill:#27D6FF;" cx="74.204" cy="116.656" r="1.757"/>
	<circle style="fill:#27D6FF;" cx="84.814" cy="127.258" r="1.757"/>
	<circle style="fill:#27D6FF;" cx="90.58" cy="133.04" r="1.749"/>
	<circle style="fill:#27D6FF;" cx="96.369" cy="138.782" r="1.749"/>
	<circle style="fill:#27D6FF;" cx="102.159" cy="144.603" r="1.749"/>
	<circle style="fill:#27D6FF;" cx="112.753" cy="155.166" r="1.757"/>
	<circle style="fill:#27D6FF;" cx="118.543" cy="160.987" r="1.757"/>
	<circle style="fill:#27D6FF;" cx="124.324" cy="166.769" r="1.749"/>
	<circle style="fill:#27D6FF;" cx="130.122" cy="172.55" r="1.757"/>
	<circle style="fill:#27D6FF;" cx="140.693" cy="183.153" r="1.757"/>
	<circle style="fill:#27D6FF;" cx="146.506" cy="188.934" r="1.757"/>
	<circle style="fill:#27D6FF;" cx="152.264" cy="194.708" r="1.757"/>
	<circle style="fill:#27D6FF;" cx="158.053" cy="200.498" r="1.757"/>
	<circle style="fill:#27D6FF;" cx="18.38" cy="81.895" r="1.749"/>
	<circle style="fill:#27D6FF;" cx="24.161" cy="87.677" r="1.749"/>
	<circle style="fill:#27D6FF;" cx="29.951" cy="93.458" r="1.757"/>
	<circle style="fill:#27D6FF;" cx="35.756" cy="99.24" r="1.749"/>
	<circle style="fill:#27D6FF;" cx="46.335" cy="109.842" r="1.749"/>
	<circle style="fill:#27D6FF;" cx="52.109" cy="115.624" r="1.757"/>
	<circle style="fill:#27D6FF;" cx="57.89" cy="121.406" r="1.757"/>
	<circle style="fill:#27D6FF;" cx="63.672" cy="127.187" r="1.757"/>
	<circle style="fill:#27D6FF;" cx="74.282" cy="137.79" r="1.757"/>
	<circle style="fill:#27D6FF;" cx="80.056" cy="143.571" r="1.741"/>
	<circle style="fill:#27D6FF;" cx="85.838" cy="149.353" r="1.749"/>
	<circle style="fill:#27D6FF;" cx="91.627" cy="155.166" r="1.749"/>
	<circle style="fill:#27D6FF;" cx="102.222" cy="165.737" r="1.749"/>
	<circle style="fill:#27D6FF;" cx="108.003" cy="171.518" r="1.757"/>
	<circle style="fill:#27D6FF;" cx="113.793" cy="177.3" r="1.749"/>
	<circle style="fill:#27D6FF;" cx="119.575" cy="183.082" r="1.757"/>
	<circle style="fill:#27D6FF;" cx="130.201" cy="193.684" r="1.757"/>
	<circle style="fill:#27D6FF;" cx="135.951" cy="199.466" r="1.757"/>
	<circle style="fill:#27D6FF;" cx="141.74" cy="205.247" r="1.757"/>
	<circle style="fill:#27D6FF;" cx="147.522" cy="211.013" r="1.757"/>
</g>
<path style="fill:#99B5B5;" d="M301.114,253.391c0,1.284,0.52,2.458,1.363,3.3c0.851,0.851,2.024,1.371,3.308,1.371h51.476
	c0.102,0.142,0.158,0.291,0.284,0.425l53.13,53.138c0.087,0.087,0.197,0.118,0.291,0.189v26.238c0,2.576,2.087,4.671,4.671,4.671
	s4.671-2.095,4.671-4.671v-71.223c1.678-0.677,3.261-1.686,4.624-3.048c5.348-5.356,5.348-14.06,0-19.409
	c-5.356-5.348-14.052-5.356-19.417,0c-1.284,1.284-2.229,2.765-2.899,4.348h-96.839C303.201,248.72,301.114,250.815,301.114,253.391
	z M370.329,258.062h31.823c0.646,2.103,1.709,4.08,3.363,5.727c1.583,1.568,3.466,2.631,5.451,3.277v31.649L370.329,258.062z"/>
<path style="fill:#738E8C;" d="M403.932,246.31c-0.528,0.756-0.977,1.568-1.323,2.41h-1.284c-0.922,1.087-1.701,2.261-2.229,3.505
	h-96.823c-0.347,0-0.638,0.126-0.961,0.197c-0.079,0.323-0.197,0.614-0.197,0.961c0,1.284,0.52,2.458,1.363,3.3
	c0.851,0.851,2.024,1.371,3.308,1.371h51.476c0.102,0.142,0.158,0.291,0.284,0.425l53.13,53.138
	c0.087,0.087,0.197,0.118,0.291,0.189v26.238c0,2.576,2.087,4.671,4.671,4.671c0.347,0.008,0.638-0.126,0.961-0.181
	c0.079-0.339,0.205-0.63,0.205-0.969v-71.231c1.237-0.504,2.418-1.26,3.497-2.135v-1.371c0.953-0.386,1.843-0.89,2.71-1.489
	c3.663-5.341,3.143-12.705-1.591-17.447C416.661,243.135,409.28,242.616,403.932,246.31z M402.151,258.062
	c0.646,2.103,1.709,4.08,3.363,5.727c1.583,1.568,3.466,2.631,5.451,3.277v31.649l3.104,3.096l-6.609,0.417l-40.645-40.645
	l0.417-6.601l3.104,3.096h31.815V258.062z"/>
<path style="fill:#99B5B5;" d="M307.297,338.879c-6.073,6.073-15.943,6.073-22.032-0.008l0,0c-6.073-6.073-6.073-15.935,0-22.024
	l22.575-22.575c6.081-6.073,15.951-6.073,22.032,0l0,0c6.073,6.081,6.073,15.935,0,22.032L307.297,338.879z"/>
<path style="fill:#88A3A2;" d="M307.841,294.272c6.081-6.073,15.951-6.073,22.032,0l0,0c6.073,6.081,6.073,15.935,0,22.032
	l-22.575,22.575c-6.073,6.073-15.943,6.073-22.032-0.008l0,0"/>
<path style="fill:#B6CECD;" d="M329.873,294.272c6.073,6.081,6.073,15.935,0,22.032l-9.358,9.358
	c-6.073,6.073-15.943,6.073-22.032-0.008c-6.081-6.073-6.081-15.935,0-22.024l9.358-9.358
	C313.922,288.199,323.792,288.199,329.873,294.272z"/>
<path style="fill:#99B5B5;" d="M329.873,294.272c6.073,6.081,6.073,15.935,0,22.032l-9.358,9.358
	c-6.073,6.073-15.943,6.073-22.032-0.008"/>
<path style="fill:#27D6FF;" d="M283.273,349.576c-4.813,4.805-4.813,12.619-0.016,17.424l128.559,128.551
	c4.797,4.805,12.619,4.805,17.424,0l65.363-65.371c4.813-4.805,4.813-12.619,0-17.424L366.059,284.214
	c-4.813-4.813-12.619-4.813-17.424,0L283.273,349.576z"/>
<path style="fill:#349DD1;" d="M278.31,354.539c-4.805,4.797-4.813,12.619,0,17.416l128.544,128.551
	c4.805,4.805,12.619,4.805,17.432,0l65.363-65.363c4.805-4.813,4.805-12.627,0-17.424L361.097,289.168
	c-4.805-4.813-12.611-4.813-17.424,0L278.31,354.539z"/>
<path style="fill:#108EBF;" d="M361.097,289.168c-4.805-4.813-12.611-4.813-17.424,0l-65.363,65.371
	c-4.805,4.797-4.813,12.619,0,17.416l128.544,128.551c4.805,4.805,12.619,4.805,17.432,0"/>
<g>
	<path style="fill:#27D6FF;" d="M390.793,468.549c-0.677,0.685-0.685,1.796,0,2.473l0,0c0.685,0.685,1.796,0.685,2.473,0
		l66.907-66.899c0.677-0.685,0.677-1.796,0-2.481l0,0c-0.693-0.677-1.804-0.677-2.473,0L390.793,468.549z"/>
	<path style="fill:#27D6FF;" d="M363.129,440.878c-0.685,0.693-0.685,1.804,0,2.481l0,0c0.685,0.685,1.788,0.685,2.481,0
		l66.891-66.899c0.685-0.693,0.685-1.804,0-2.473l0,0c-0.677-0.693-1.796-0.693-2.473,0L363.129,440.878z"/>
	<path style="fill:#27D6FF;" d="M335.457,413.214c-0.685,0.677-0.685,1.796,0,2.473l0,0c0.685,0.685,1.788,0.685,2.481,0
		l66.899-66.907c0.685-0.677,0.685-1.788,0-2.473l0,0c-0.685-0.677-1.804-0.677-2.481,0L335.457,413.214z"/>
	<path style="fill:#27D6FF;" d="M307.786,385.535c-0.685,0.693-0.685,1.804,0,2.481l0,0c0.685,0.685,1.788,0.685,2.481,0
		l66.899-66.899c0.685-0.693,0.685-1.804,0-2.473l0,0c-0.685-0.693-1.804-0.693-2.481,0L307.786,385.535z"/>
	<circle style="fill:#27D6FF;" cx="474.879" cy="433.064" r="1.757"/>
	<circle style="fill:#27D6FF;" cx="469.066" cy="427.29" r="1.757"/>
	<circle style="fill:#27D6FF;" cx="463.316" cy="421.485" r="1.749"/>
	<circle style="fill:#27D6FF;" cx="457.566" cy="415.735" r="1.749"/>
	<circle style="fill:#27D6FF;" cx="446.932" cy="405.124" r="1.749"/>
	<circle style="fill:#27D6FF;" cx="441.182" cy="399.351" r="1.749"/>
	<circle style="fill:#27D6FF;" cx="435.361" cy="393.6" r="1.757"/>
	<circle style="fill:#27D6FF;" cx="429.602" cy="387.779" r="1.749"/>
	<circle style="fill:#27D6FF;" cx="418.977" cy="377.138" r="1.757"/>
	<circle style="fill:#27D6FF;" cx="413.203" cy="371.395" r="1.757"/>
	<circle style="fill:#27D6FF;" cx="407.39" cy="365.614" r="1.749"/>
	<circle style="fill:#27D6FF;" cx="401.639" cy="359.808" r="1.757"/>
	<circle style="fill:#27D6FF;" cx="391.006" cy="349.238" r="1.757"/>
	<circle style="fill:#27D6FF;" cx="385.255" cy="343.424" r="1.749"/>
	<circle style="fill:#27D6FF;" cx="379.474" cy="337.674" r="1.749"/>
	<circle style="fill:#27D6FF;" cx="373.692" cy="331.885" r="1.757"/>
	<circle style="fill:#27D6FF;" cx="363.09" cy="321.29" r="1.757"/>
	<circle style="fill:#27D6FF;" cx="357.3" cy="315.501" r="1.757"/>
	<circle style="fill:#27D6FF;" cx="351.542" cy="309.719" r="1.749"/>
	<circle style="fill:#27D6FF;" cx="345.713" cy="303.961" r="1.757"/>
	<circle style="fill:#27D6FF;" cx="464.34" cy="443.603" r="1.749"/>
	<circle style="fill:#27D6FF;" cx="458.558" cy="437.79" r="1.757"/>
	<circle style="fill:#27D6FF;" cx="452.776" cy="432.04" r="1.749"/>
	<circle style="fill:#27D6FF;" cx="447.01" cy="426.258" r="1.757"/>
	<circle style="fill:#27D6FF;" cx="436.4" cy="415.656" r="1.749"/>
	<circle style="fill:#27D6FF;" cx="430.626" cy="409.906" r="1.749"/>
	<circle style="fill:#27D6FF;" cx="424.798" cy="404.093" r="1.757"/>
	<circle style="fill:#27D6FF;" cx="419.055" cy="398.327" r="1.749"/>
	<circle style="fill:#27D6FF;" cx="408.414" cy="387.716" r="1.749"/>
	<circle style="fill:#27D6FF;" cx="402.671" cy="381.927" r="1.749"/>
	<circle style="fill:#27D6FF;" cx="396.89" cy="376.114" r="1.757"/>
	<circle style="fill:#27D6FF;" cx="391.084" cy="370.364" r="1.757"/>
	<circle style="fill:#27D6FF;" cx="380.498" cy="359.73" r="1.749"/>
	<circle style="fill:#27D6FF;" cx="374.7" cy="353.98" r="1.749"/>
	<circle style="fill:#27D6FF;" cx="368.95" cy="348.198" r="1.757"/>
	<circle style="fill:#27D6FF;" cx="363.161" cy="342.416" r="1.749"/>
	<circle style="fill:#27D6FF;" cx="352.566" cy="331.814" r="1.757"/>
	<circle style="fill:#27D6FF;" cx="346.769" cy="326.032" r="1.757"/>
	<circle style="fill:#27D6FF;" cx="340.995" cy="320.266" r="1.749"/>
	<circle style="fill:#27D6FF;" cx="335.237" cy="314.437" r="1.749"/>
	<circle style="fill:#27D6FF;" cx="453.785" cy="454.174" r="1.757"/>
	<circle style="fill:#27D6FF;" cx="448.034" cy="448.345" r="1.757"/>
	<circle style="fill:#27D6FF;" cx="442.253" cy="442.571" r="1.749"/>
	<circle style="fill:#27D6FF;" cx="436.471" cy="436.79" r="1.749"/>
	<circle style="fill:#27D6FF;" cx="425.9" cy="426.187" r="1.749"/>
	<circle style="fill:#27D6FF;" cx="420.087" cy="420.406" r="1.749"/>
	<circle style="fill:#27D6FF;" cx="414.321" cy="414.632" r="1.757"/>
	<circle style="fill:#27D6FF;" cx="408.492" cy="408.882" r="1.749"/>
	<circle style="fill:#27D6FF;" cx="397.937" cy="398.248" r="1.749"/>
	<circle style="fill:#27D6FF;" cx="392.108" cy="392.498" r="1.757"/>
	<circle style="fill:#27D6FF;" cx="386.358" cy="386.677" r="1.749"/>
	<circle style="fill:#27D6FF;" cx="380.569" cy="380.895" r="1.757"/>
	<circle style="fill:#27D6FF;" cx="369.974" cy="370.285" r="1.757"/>
	<circle style="fill:#27D6FF;" cx="364.185" cy="364.511" r="1.749"/>
	<circle style="fill:#27D6FF;" cx="358.395" cy="358.706" r="1.749"/>
	<circle style="fill:#27D6FF;" cx="352.645" cy="352.956" r="1.749"/>
	<circle style="fill:#27D6FF;" cx="342.027" cy="342.345" r="1.757"/>
	<circle style="fill:#27D6FF;" cx="336.261" cy="336.572" r="1.757"/>
	<circle style="fill:#27D6FF;" cx="330.432" cy="330.782" r="1.749"/>
	<circle style="fill:#27D6FF;" cx="324.682" cy="325" r="1.749"/>
	<circle style="fill:#27D6FF;" cx="443.285" cy="464.65" r="1.749"/>
	<circle style="fill:#27D6FF;" cx="437.479" cy="458.884" r="1.757"/>
	<circle style="fill:#27D6FF;" cx="431.729" cy="453.071" r="1.749"/>
	<circle style="fill:#27D6FF;" cx="425.979" cy="447.321" r="1.757"/>
	<circle style="fill:#27D6FF;" cx="415.345" cy="436.719" r="1.749"/>
	<circle style="fill:#27D6FF;" cx="409.516" cy="430.937" r="1.749"/>
	<circle style="fill:#27D6FF;" cx="403.766" cy="425.187" r="1.757"/>
	<circle style="fill:#27D6FF;" cx="398.016" cy="419.374" r="1.749"/>
	<circle style="fill:#27D6FF;" cx="387.39" cy="408.803" r="1.749"/>
	<circle style="fill:#27D6FF;" cx="381.608" cy="402.99" r="1.749"/>
	<path style="fill:#27D6FF;" d="M374.582,395.971c-0.677,0.693-0.677,1.796,0,2.473c0.693,0.685,1.796,0.685,2.489,0
		c0.662-0.677,0.662-1.788,0-2.473C376.37,395.294,375.275,395.294,374.582,395.971z"/>
	<circle style="fill:#27D6FF;" cx="370.053" cy="391.395" r="1.757"/>
	<circle style="fill:#27D6FF;" cx="359.419" cy="380.824" r="1.749"/>
	<circle style="fill:#27D6FF;" cx="353.669" cy="375.011" r="1.749"/>
	<circle style="fill:#27D6FF;" cx="347.879" cy="369.261" r="1.757"/>
	<circle style="fill:#27D6FF;" cx="342.098" cy="363.479" r="1.749"/>
	<circle style="fill:#27D6FF;" cx="331.495" cy="352.877" r="1.757"/>
	<circle style="fill:#27D6FF;" cx="325.714" cy="347.095" r="1.757"/>
	<circle style="fill:#27D6FF;" cx="319.956" cy="341.313" r="1.749"/>
	<circle style="fill:#27D6FF;" cx="314.127" cy="335.548" r="1.749"/>
	<circle style="fill:#27D6FF;" cx="432.753" cy="475.198" r="1.749"/>
	<circle style="fill:#27D6FF;" cx="426.972" cy="469.376" r="1.757"/>
	<circle style="fill:#27D6FF;" cx="421.19" cy="463.626" r="1.749"/>
	<circle style="fill:#27D6FF;" cx="415.424" cy="457.876" r="1.749"/>
	<circle style="fill:#27D6FF;" cx="404.806" cy="447.242" r="1.749"/>
	<circle style="fill:#27D6FF;" cx="399.04" cy="441.492" r="1.749"/>
	<circle style="fill:#27D6FF;" cx="393.211" cy="435.679" r="1.757"/>
	<circle style="fill:#27D6FF;" cx="387.453" cy="429.913" r="1.749"/>
	<circle style="fill:#27D6FF;" cx="376.827" cy="419.303" r="1.749"/>
	<circle style="fill:#27D6FF;" cx="371.077" cy="413.521" r="1.749"/>
	<circle style="fill:#27D6FF;" cx="365.295" cy="407.779" r="1.749"/>
	<circle style="fill:#27D6FF;" cx="359.498" cy="401.95" r="1.749"/>
	<circle style="fill:#27D6FF;" cx="348.903" cy="391.395" r="1.757"/>
	<circle style="fill:#27D6FF;" cx="343.114" cy="385.566" r="1.749"/>
	<circle style="fill:#27D6FF;" cx="337.364" cy="379.792" r="1.749"/>
	<circle style="fill:#27D6FF;" cx="331.566" cy="374.011" r="1.757"/>
	<circle style="fill:#27D6FF;" cx="320.98" cy="363.408" r="1.749"/>
	<circle style="fill:#27D6FF;" cx="315.182" cy="357.627" r="1.757"/>
	<circle style="fill:#27D6FF;" cx="309.393" cy="351.853" r="1.741"/>
	<circle style="fill:#27D6FF;" cx="303.65" cy="346.103" r="1.757"/>
	<circle style="fill:#27D6FF;" cx="422.198" cy="485.76" r="1.757"/>
	<circle style="fill:#27D6FF;" cx="416.448" cy="479.932" r="1.757"/>
	<circle style="fill:#27D6FF;" cx="410.658" cy="474.166" r="1.749"/>
	<circle style="fill:#27D6FF;" cx="404.877" cy="468.376" r="1.757"/>
	<circle style="fill:#27D6FF;" cx="394.282" cy="457.797" r="1.757"/>
	<circle style="fill:#27D6FF;" cx="388.493" cy="451.992" r="1.749"/>
	<circle style="fill:#27D6FF;" cx="382.735" cy="446.218" r="1.757"/>
	<circle style="fill:#27D6FF;" cx="376.906" cy="440.468" r="1.749"/>
	<circle style="fill:#27D6FF;" cx="366.351" cy="429.834" r="1.749"/>
	<circle style="fill:#27D6FF;" cx="360.522" cy="424.084" r="1.749"/>
	<circle style="fill:#27D6FF;" cx="354.764" cy="418.271" r="1.749"/>
	<circle style="fill:#27D6FF;" cx="348.982" cy="412.489" r="1.757"/>
	<circle style="fill:#27D6FF;" cx="338.388" cy="401.871" r="1.749"/>
	<circle style="fill:#27D6FF;" cx="332.598" cy="396.105" r="1.749"/>
	<circle style="fill:#27D6FF;" cx="326.816" cy="390.292" r="1.757"/>
	<circle style="fill:#27D6FF;" cx="321.058" cy="384.542" r="1.757"/>
	<circle style="fill:#27D6FF;" cx="310.432" cy="373.948" r="1.749"/>
	<circle style="fill:#27D6FF;" cx="304.674" cy="368.158" r="1.757"/>
	<circle style="fill:#27D6FF;" cx="298.861" cy="362.408" r="1.749"/>
	<circle style="fill:#27D6FF;" cx="293.087" cy="356.595" r="1.749"/>
</g>
<path style="fill:#1F3954;" d="M194.13,378.248c-2.875,2.891-7.554,2.891-10.453,0L125.86,320.44c-2.891-2.891-2.875-7.57,0-10.453
	l0,0c2.899-2.883,7.57-2.891,10.461,0l57.809,57.809C197.044,370.687,197.021,375.365,194.13,378.248L194.13,378.248z"/>
<g>
	<path style="fill:#99B5B5;" d="M239.91,241.08c-0.788,0.796-2.08,0.796-2.883,0l-16.935-16.935c-0.803-0.803-0.796-2.087,0-2.891
		l0,0c0.811-0.796,2.103-0.803,2.891,0l16.928,16.935C240.714,238.984,240.714,240.276,239.91,241.08L239.91,241.08z"/>
	<path style="fill:#99B5B5;" d="M228.15,252.848c-0.796,0.803-2.095,0.803-2.891,0l-16.935-16.928c-0.796-0.803-0.788-2.095,0-2.891
		l0,0c0.803-0.796,2.103-0.803,2.899,0l16.928,16.928C228.938,250.752,228.938,252.052,228.15,252.848L228.15,252.848z"/>
	<path style="fill:#99B5B5;" d="M216.374,264.616c-0.796,0.803-2.087,0.811-2.891,0l-16.928-16.928
		c-0.803-0.796-0.788-2.095,0-2.883l0,0c0.803-0.803,2.095-0.803,2.891,0l16.928,16.92
		C217.178,262.529,217.17,263.82,216.374,264.616L216.374,264.616z"/>
	<path style="fill:#99B5B5;" d="M204.614,276.392c-0.803,0.796-2.103,0.796-2.899,0l-16.928-16.935
		c-0.803-0.803-0.796-2.087,0-2.883l0,0c0.803-0.803,2.095-0.803,2.899,0l16.92,16.927
		C205.409,274.297,205.394,275.588,204.614,276.392L204.614,276.392z"/>
	<path style="fill:#99B5B5;" d="M192.838,288.16c-0.803,0.796-2.103,0.796-2.891-0.008l-16.935-16.92
		c-0.796-0.811-0.796-2.095,0.008-2.899l0,0c0.788-0.796,2.087-0.796,2.883,0l16.935,16.935
		C193.633,286.065,193.633,287.357,192.838,288.16L192.838,288.16z"/>
</g>
<circle style="fill:#349DD1;" cx="43.476" cy="460.665" r="16.801"/>
<path style="fill:#108EBF;" d="M26.651,460.665c0,9.279,7.515,16.801,16.809,16.809c9.279,0,16.809-7.522,16.809-16.817"/>
<path style="fill:#FF7F00;" d="M107.744,442.556c3.017-3.017,3.009-7.908,0-10.925l-35.273-35.249
	c-3.009-3.017-7.885-3.025-10.917,0l0,0c-3.009,3.017-3.009,7.893,0,10.91l35.281,35.265
	C99.843,445.557,104.735,445.565,107.744,442.556L107.744,442.556z"/>
<path style="fill:#FF5B00;" d="M96.834,442.556c3.009,3.009,7.901,3.017,10.91,0l0,0c3.017-3.017,3.009-7.908,0-10.925
	l-35.273-35.249"/>
<path style="fill:#FF7F00;" d="M125.9,424.383c3.025-3.017,3.025-7.908,0-10.925l-35.257-35.249
	c-3.009-3.025-7.901-3.025-10.91-0.008l0,0c-3.017,3.017-3.017,7.893,0,10.91l35.265,35.273
	C118.007,427.392,122.907,427.4,125.9,424.383L125.9,424.383z"/>
<path style="fill:#FF5B00;" d="M115.006,424.383c3.009,3.009,7.901,3.017,10.902,0l0,0c3.025-3.017,3.025-7.908,0-10.925
	l-35.257-35.249"/>
<path style="fill:#FF7F00;" d="M144.08,406.211c3.025-3.017,3.017-7.908,0.016-10.925l-35.265-35.265
	c-3.025-3.009-7.908-3.017-10.925,0l0,0c-3.017,3.017-3.025,7.901,0,10.91l35.265,35.281
	C136.187,409.22,141.071,409.22,144.08,406.211L144.08,406.211z"/>
<path style="fill:#FF5B00;" d="M133.17,406.211c3.017,3.009,7.901,3.009,10.91,0l0,0c3.025-3.017,3.017-7.908,0.016-10.925
	l-35.265-35.265"/>
<path style="fill:#FF7F00;" d="M162.252,388.047c3.017-3.017,3.017-7.908,0.016-10.925l-35.281-35.265
	c-3.001-3.009-7.885-3.017-10.91,0l0,0c-3.009,3.017-3.009,7.901,0,10.91l35.273,35.265
	C154.351,391.048,159.243,391.048,162.252,388.047L162.252,388.047z"/>
<path style="fill:#FF5B00;" d="M151.342,388.031c3.009,3.025,7.901,3.025,10.91,0.016l0,0c3.017-3.017,3.017-7.908,0.016-10.925
	l-35.281-35.265"/>
<path style="fill:#27D6FF;" d="M436.692,182.231c-7.294,7.302-19.133,7.294-26.427,0l-88.371-88.379
	c-7.302-7.302-7.302-19.133,0-26.427l61.944-61.952c7.302-7.294,19.125-7.294,26.419,0l88.379,88.379
	c7.302,7.302,7.302,19.141,0,26.435L436.692,182.231z"/>
<path style="fill:#349DD1;" d="M434.226,184.704c-7.31,7.302-19.141,7.302-26.435,0l-88.379-88.371
	c-7.302-7.302-7.302-19.141,0-26.435l61.944-61.944c7.302-7.302,19.141-7.302,26.427,0l88.379,88.379
	c7.302,7.286,7.302,19.125,0,26.427L434.226,184.704z"/>
<path style="fill:#108EBF;" d="M381.356,7.954c7.302-7.302,19.141-7.302,26.427,0l88.379,88.379c7.302,7.286,7.302,19.125,0,26.427
	l-61.936,61.944c-7.31,7.302-19.141,7.302-26.435,0"/>
<g>
	<circle style="fill:#27D6FF;" cx="470.72" cy="106.644" r="1.757"/>
	<circle style="fill:#27D6FF;" cx="464.97" cy="100.839" r="1.749"/>
	<circle style="fill:#27D6FF;" cx="459.172" cy="95.057" r="1.749"/>
	<circle style="fill:#27D6FF;" cx="453.391" cy="89.276" r="1.757"/>
	<circle style="fill:#27D6FF;" cx="442.788" cy="78.673" r="1.757"/>
	<circle style="fill:#27D6FF;" cx="437.007" cy="72.892" r="1.757"/>
	<circle style="fill:#27D6FF;" cx="431.257" cy="67.102" r="1.757"/>
	<circle style="fill:#27D6FF;" cx="425.428" cy="61.328" r="1.749"/>
	<circle style="fill:#27D6FF;" cx="414.873" cy="50.726" r="1.749"/>
	<circle style="fill:#27D6FF;" cx="409.044" cy="44.944" r="1.757"/>
	<path style="fill:#27D6FF;" d="M402.025,37.926c-0.662,0.677-0.662,1.788,0,2.473c0.701,0.685,1.804,0.685,2.489,0
		s0.685-1.788,0-2.473S402.726,37.241,402.025,37.926z"/>
	<circle style="fill:#27D6FF;" cx="397.496" cy="33.389" r="1.757"/>
	<circle style="fill:#27D6FF;" cx="460.204" cy="117.152" r="1.749"/>
	<circle style="fill:#27D6FF;" cx="454.415" cy="111.37" r="1.749"/>
	<circle style="fill:#27D6FF;" cx="448.665" cy="105.589" r="1.749"/>
	<circle style="fill:#27D6FF;" cx="442.867" cy="99.807" r="1.757"/>
	<circle style="fill:#27D6FF;" cx="432.281" cy="89.205" r="1.757"/>
	<circle style="fill:#27D6FF;" cx="426.475" cy="83.407" r="1.757"/>
	<circle style="fill:#27D6FF;" cx="420.694" cy="77.641" r="1.757"/>
	<circle style="fill:#27D6FF;" cx="414.951" cy="71.86" r="1.749"/>
	<circle style="fill:#27D6FF;" cx="404.318" cy="61.257" r="1.757"/>
	<circle style="fill:#27D6FF;" cx="398.489" cy="55.476" r="1.757"/>
	<circle style="fill:#27D6FF;" cx="392.738" cy="49.694" r="1.757"/>
	<circle style="fill:#27D6FF;" cx="386.965" cy="43.912" r="1.757"/>
	<circle style="fill:#27D6FF;" cx="449.689" cy="127.683" r="1.749"/>
	<circle style="fill:#27D6FF;" cx="443.891" cy="121.902" r="1.749"/>
	<circle style="fill:#27D6FF;" cx="438.11" cy="116.12" r="1.749"/>
	<circle style="fill:#27D6FF;" cx="432.359" cy="110.338" r="1.757"/>
	<circle style="fill:#27D6FF;" cx="421.726" cy="99.736" r="1.757"/>
	<circle style="fill:#27D6FF;" cx="415.975" cy="93.954" r="1.757"/>
	<circle style="fill:#27D6FF;" cx="410.146" cy="88.173" r="1.757"/>
	<circle style="fill:#27D6FF;" cx="404.388" cy="82.391" r="1.749"/>
	<circle style="fill:#27D6FF;" cx="393.762" cy="71.789" r="1.749"/>
	<circle style="fill:#27D6FF;" cx="387.997" cy="66.007" r="1.757"/>
	<circle style="fill:#27D6FF;" cx="382.183" cy="60.225" r="1.757"/>
	<circle style="fill:#27D6FF;" cx="376.433" cy="54.444" r="1.757"/>
	<circle style="fill:#27D6FF;" cx="439.134" cy="138.231" r="1.749"/>
	<circle style="fill:#27D6FF;" cx="433.383" cy="132.433" r="1.749"/>
	<circle style="fill:#27D6FF;" cx="427.586" cy="126.652" r="1.749"/>
	<circle style="fill:#27D6FF;" cx="421.804" cy="120.87" r="1.757"/>
	<circle style="fill:#27D6FF;" cx="411.202" cy="110.268" r="1.757"/>
	<circle style="fill:#27D6FF;" cx="405.412" cy="104.486" r="1.757"/>
	<circle style="fill:#27D6FF;" cx="399.591" cy="98.688" r="1.749"/>
	<circle style="fill:#27D6FF;" cx="393.841" cy="92.923" r="1.749"/>
	<circle style="fill:#27D6FF;" cx="383.286" cy="82.32" r="1.749"/>
	<circle style="fill:#27D6FF;" cx="377.457" cy="76.539" r="1.757"/>
	<circle style="fill:#27D6FF;" cx="371.683" cy="70.757" r="1.757"/>
	<circle style="fill:#27D6FF;" cx="365.91" cy="64.975" r="1.749"/>
	<circle style="fill:#27D6FF;" cx="428.61" cy="148.746" r="1.749"/>
	<circle style="fill:#27D6FF;" cx="422.828" cy="142.965" r="1.757"/>
	<circle style="fill:#27D6FF;" cx="417.078" cy="137.183" r="1.749"/>
	<circle style="fill:#27D6FF;" cx="411.265" cy="131.378" r="1.757"/>
	<circle style="fill:#27D6FF;" cx="400.694" cy="120.799" r="1.757"/>
	<circle style="fill:#27D6FF;" cx="394.881" cy="114.994" r="1.749"/>
	<circle style="fill:#27D6FF;" cx="389.099" cy="109.236" r="1.749"/>
	<circle style="fill:#27D6FF;" cx="383.286" cy="103.454" r="1.749"/>
	<circle style="fill:#27D6FF;" cx="372.723" cy="92.852" r="1.749"/>
	<circle style="fill:#27D6FF;" cx="366.902" cy="87.07" r="1.757"/>
	<circle style="fill:#27D6FF;" cx="361.152" cy="81.288" r="1.757"/>
	<circle style="fill:#27D6FF;" cx="355.37" cy="75.53" r="1.757"/>
	<circle style="fill:#27D6FF;" cx="418.102" cy="159.278" r="1.749"/>
	<circle style="fill:#27D6FF;" cx="412.297" cy="153.496" r="1.749"/>
	<circle style="fill:#27D6FF;" cx="406.523" cy="147.714" r="1.749"/>
	<circle style="fill:#27D6FF;" cx="400.773" cy="141.933" r="1.757"/>
	<circle style="fill:#27D6FF;" cx="390.139" cy="131.299" r="1.757"/>
	<circle style="fill:#27D6FF;" cx="384.389" cy="125.549" r="1.757"/>
	<circle style="fill:#27D6FF;" cx="378.568" cy="119.767" r="1.749"/>
	<circle style="fill:#27D6FF;" cx="372.794" cy="113.985" r="1.741"/>
	<circle style="fill:#27D6FF;" cx="362.176" cy="103.383" r="1.749"/>
	<circle style="fill:#27D6FF;" cx="356.402" cy="97.601" r="1.757"/>
	<circle style="fill:#27D6FF;" cx="350.597" cy="91.82" r="1.757"/>
	<circle style="fill:#27D6FF;" cx="344.847" cy="86.038" r="1.757"/>
</g>
<g>
</g>
<g>
</g>
<g>
</g>
<g>
</g>
<g>
</g>
<g>
</g>
<g>
</g>
<g>
</g>
<g>
</g>
<g>
</g>
<g>
</g>
<g>
</g>
<g>
</g>
<g>
</g>
<g>
</g>
</svg>
