<?xml version="1.0" encoding="UTF-8" standalone="no"?>
<!DOCTYPE svg PUBLIC "-//W3C//DTD SVG 1.1//EN" "http://www.w3.org/Graphics/SVG/1.1/DTD/svg11.dtd">
<svg width="500px" height="500px" viewBox="0 0 64 64" version="1.1" xmlns="http://www.w3.org/2000/svg" xmlns:xlink="http://www.w3.org/1999/xlink" xml:space="preserve" style="fill-rule:evenodd;clip-rule:evenodd;stroke-linejoin:round;stroke-miterlimit:1.41421;">
    <g id="Layer-1" transform="matrix(-1,0,-0,1,66.0001,0)">
        <path d="M18,41.5C18,45.089 15.09,48 11.5,48C7.91,48 5,45.089 5,41.5C5,37.911 7.91,35 11.5,35C15.09,35 18,37.911 18,41.5M11.5,32C6.252,32 2,36.252 2,41.5C2,46.748 6.252,51 11.5,51C16.748,51 21,46.748 21,41.5C21,36.252 16.748,32 11.5,32M61,41.5C61,45.089 58.091,48 54.5,48C50.909,48 48,45.089 48,41.5C48,37.911 50.909,35 54.5,35C58.091,35 61,37.911 61,41.5M54.5,32C49.252,32 45,36.252 45,41.5C45,46.748 49.252,51 54.5,51C59.748,51 64,46.748 64,41.5C64,36.252 59.748,32 54.5,32" style="fill:rgb(71,71,94);fill-rule:nonzero;"/>
        <g>
            <clipPath id="_clip1">
                <path d="M45,41.5C45,46.748 49.252,51 54.5,51C59.748,51 64,46.748 64,41.5C64,36.252 59.748,32 54.5,32C49.252,32 45,36.252 45,41.5ZM48,41.5C48,37.911 50.909,35 54.5,35C58.09,35 61,37.911 61,41.5C61,45.089 58.09,48 54.5,48C50.909,48 48,45.089 48,41.5ZM2,41.5C2,46.748 6.252,51 11.5,51C16.747,51 21,46.748 21,41.5C21,36.252 16.747,32 11.5,32C6.252,32 2,36.252 2,41.5ZM5,41.5C5,37.911 7.91,35 11.5,35C15.09,35 18,37.911 18,41.5C18,45.089 15.09,48 11.5,48C7.91,48 5,45.089 5,41.5Z"/>
            </clipPath>
            <g clip-path="url(#_clip1)">
                <g>
                    <g opacity="0.300003">
                        <path d="M13.366,32L2,32L2,51L6.451,51L13.366,32Z" style="fill:white;fill-rule:nonzero;"/>
                    </g>
                </g>
                <g>
                    <g opacity="0.300003">
                        <path d="M64,32L64,43.9L45,32.93L45,32L64,32Z" style="fill:white;fill-rule:nonzero;"/>
                    </g>
                </g>
            </g>
        </g>
        <path d="M11.501,43C11.33,43 11.157,42.971 10.987,42.909C10.209,42.626 9.808,41.765 10.092,40.986L20.661,11.986C20.944,11.208 21.808,10.808 22.584,11.091C23.362,11.375 23.763,12.235 23.479,13.014L12.91,42.014C12.689,42.622 12.113,43 11.501,43" style="fill:rgb(166,166,159);fill-rule:nonzero;"/>
        <path d="M26.5,11L22.083,11C21.254,11 20.583,11.671 20.583,12.5C20.583,13.329 21.254,14 22.083,14L26.5,14C27.328,14 28,13.329 28,12.5C28,11.671 27.328,11 26.5,11" style="fill:rgb(71,71,94);fill-rule:nonzero;"/>
        <path d="M55.688,39.102C55.112,38.77 22.049,19.678 22.049,19.678L20.225,24.687C20.225,24.687 52.487,43.317 53.063,43.649C54.318,44.373 55.923,43.943 56.649,42.688C57.374,41.432 56.943,39.827 55.688,39.102" style="fill:rgb(166,166,159);fill-rule:nonzero;"/>
        <g>
            <clipPath id="_clip2">
                <path d="M20.225,24.686C20.225,24.686 52.487,43.316 53.062,43.648C54.318,44.373 55.923,43.943 56.649,42.687C57.373,41.432 56.942,39.826 55.688,39.102C55.112,38.769 22.05,19.678 22.05,19.678L20.225,24.686Z"/>
            </clipPath>
            <g clip-path="url(#_clip2)">
                <g opacity="0.300003">
                    <path d="M48,41.5C48,38.08 50.644,35.281 54,35.025L54,30L41,30L41,44L48.5,44C48.179,43.23 48,42.386 48,41.5" style="fill:rgb(35,31,32);fill-rule:nonzero;"/>
                </g>
            </g>
        </g>
        <g>
            <clipPath id="_clip3">
                <path d="M20.146,22.073C19.445,22.023 18.734,21.998 18.01,21.998C12.764,21.998 7.862,23.422 3.641,25.885L4.865,28.005C7.119,26.728 9.725,26 12.5,26C18.228,26 23.449,29.118 26.125,33.75L45.516,33.228C48.139,28.681 50.774,26.598 56.962,26.598L59.039,23L62.267,23L64,20L34,20C30.535,18 26.594,17 22.026,17L20.146,22.073Z"/>
            </clipPath>
            <g clip-path="url(#_clip3)">
                <rect x="3.642" y="17" width="60.358" height="16.229" style="fill:rgb(128,179,79);fill-rule:nonzero;"/>
                <g>
                    <g opacity="0.5">
                        <clipPath id="_clip4">
                            <rect x="20.145" y="17" width="43.855" height="9.026"/>
                        </clipPath>
                        <g clip-path="url(#_clip4)">
                            <path d="M33.036,26.026L33.044,26.026C37.877,23.234 39.656,23 52,23L64,23L64,17L20.145,17L20.145,22.072C25.02,22.415 29.333,23.912 33.036,26.026" style="fill:rgb(71,71,94);fill-rule:nonzero;"/>
                        </g>
                    </g>
                </g>
            </g>
        </g>
        <path d="M33.044,26.026L24.2,31.132C25.432,33.266 27.629,37.069 28.241,38.13C29.414,40.163 30.761,41 33.529,41L37.191,41C39.893,41 41.513,40.164 42.892,37.775C43.243,37.166 45.516,33.228 45.516,33.228L33.044,26.026Z" style="fill:rgb(166,166,159);fill-rule:nonzero;"/>
        <g>
            <g opacity="0.300003">
                <clipPath id="_clip5">
                    <rect x="24.2" y="26.026" width="21.316" height="14.974"/>
                </clipPath>
                <g clip-path="url(#_clip5)">
                    <path d="M33.044,26.026L24.2,31.132C25.432,33.266 27.629,37.069 28.241,38.13C29.414,40.163 30.761,41 33.529,41L37.191,41C39.893,41 41.513,40.164 42.892,37.775C43.243,37.166 45.516,33.228 45.516,33.228L33.044,26.026Z" style="fill:white;fill-rule:nonzero;"/>
                </g>
            </g>
        </g>
    </g>
</svg>
