<?xml version="1.0" encoding="iso-8859-1"?>
<!-- Generator: Adobe Illustrator 19.0.0, SVG Export Plug-In . SVG Version: 6.00 Build 0)  -->
<svg version="1.1" id="Layer_1" xmlns="http://www.w3.org/2000/svg" xmlns:xlink="http://www.w3.org/1999/xlink" width="500px" height="500px" x="0px" y="0px"
	 viewBox="0 0 512 512" style="enable-background:new 0 0 512 512;" xml:space="preserve">
<path style="fill:#6FA945;" d="M495.304,372.934h-36.457c-7.066,0-13.364-4.51-15.734-11.167
	c-4.734-13.332-17.31-22.32-31.288-22.32c-13.978,0-26.554,9.005-31.288,22.337c-2.37,6.657-8.668,11.152-15.734,11.152h-47.587
	c-9.223,0-16.696-7.601-16.696-16.824V155.764c0-9.223,7.473-16.568,16.696-16.568h111.288c4.429,0,8.674,1.696,11.804,4.827
	l66.799,66.767c3.131,3.131,4.892,7.343,4.892,11.773v133.549C512,365.333,504.527,372.934,495.304,372.934z"/>
<path style="fill:#51951F;" d="M507.108,210.757l-66.799-66.735c-3.131-3.131-7.375-4.827-11.804-4.827h-16.679v200.22
	c13.979,0,26.554,9.02,31.288,22.352c2.37,6.657,8.668,11.167,15.734,11.167h36.457c9.223,0,16.696-7.601,16.696-16.824v-133.55
	C512,218.132,510.239,213.887,507.108,210.757z"/>
<path style="fill:#D1E7F8;" d="M317.217,372.934H147.196c-7.066,0-13.364-4.51-15.734-11.167
	c-4.734-13.332-17.31-22.32-31.288-22.32s-26.554,9.005-31.288,22.337c-2.37,6.657-8.668,11.152-15.734,11.152H16.696
	C7.473,372.935,0,365.334,0,356.112V88.981c0-9.223,7.473-16.568,16.696-16.568h300.522c9.223,0,16.696,7.345,16.696,16.568v267.13
	C333.913,365.333,326.44,372.934,317.217,372.934z"/>
<path style="fill:#C2DFF6;" d="M317.217,72.412H166.957v300.522h150.261c9.223,0,16.696-7.601,16.696-16.824V88.98
	C333.913,79.756,326.44,72.412,317.217,72.412z"/>
<path style="fill:#D1E7F8;" d="M512,272.76H395.13c-9.22,0-16.696-7.603-16.696-16.824V139.195h50.066
	c4.429,0,8.677,1.695,11.808,4.827l66.799,66.767c3.132,3.132,4.892,7.347,4.892,11.777L512,272.76L512,272.76z"/>
<path style="fill:#C2DFF6;" d="M507.108,210.757l-66.799-66.735c-3.132-3.132-7.381-4.827-11.808-4.827h-16.674V272.76H512v-50.195
	C512,218.135,510.24,213.888,507.108,210.757z"/>
<path style="fill:#AA6100;" d="M16.696,372.934h300.522c9.22,0,16.696-7.603,16.696-16.824v-83.35H0v83.35
	C0,365.331,7.475,372.934,16.696,372.934z"/>
<path style="fill:#884E00;" d="M166.957,372.934h150.261c9.22,0,16.696-7.603,16.696-16.824v-83.35H166.957V372.934z"/>
<path style="fill:#6A563D;" d="M100.174,439.588c-36.826,0-66.783-29.956-66.783-66.783s29.956-66.783,66.783-66.783
	s66.783,29.956,66.783,66.783S137,439.588,100.174,439.588z"/>
<path style="fill:#554431;" d="M166.957,372.805c0-36.826-29.956-66.783-66.783-66.783v133.565
	C137,439.588,166.957,409.631,166.957,372.805z"/>
<path style="fill:#D1E7F8;" d="M100.174,339.414c-18.413,0-33.391,14.978-33.391,33.391c0,18.413,14.978,33.391,33.391,33.391
	s33.391-14.978,33.391-33.391C133.565,354.392,118.587,339.414,100.174,339.414z"/>
<path style="fill:#C2DFF6;" d="M133.565,372.805c0-18.413-14.978-33.391-33.391-33.391v66.783
	C118.587,406.196,133.565,391.218,133.565,372.805z"/>
<path style="fill:#6A563D;" d="M411.826,439.588c-36.826,0-66.783-29.956-66.783-66.783s29.956-66.783,66.783-66.783
	s66.783,29.956,66.783,66.783S448.652,439.588,411.826,439.588z"/>
<path style="fill:#554431;" d="M478.609,372.805c0-36.826-29.956-66.783-66.783-66.783v133.565
	C448.652,439.588,478.609,409.631,478.609,372.805z"/>
<path style="fill:#D1E7F8;" d="M411.826,339.414c-18.413,0-33.391,14.978-33.391,33.391c0,18.413,14.978,33.391,33.391,33.391
	c18.413,0,33.391-14.978,33.391-33.391C445.217,354.392,430.239,339.414,411.826,339.414z"/>
<path style="fill:#C2DFF6;" d="M445.217,372.805c0-18.413-14.978-33.391-33.391-33.391v66.783
	C430.239,406.196,445.217,391.218,445.217,372.805z"/>
<g>
</g>
<g>
</g>
<g>
</g>
<g>
</g>
<g>
</g>
<g>
</g>
<g>
</g>
<g>
</g>
<g>
</g>
<g>
</g>
<g>
</g>
<g>
</g>
<g>
</g>
<g>
</g>
<g>
</g>
</svg>
