<?xml version="1.0" encoding="UTF-8" standalone="no"?>
<!DOCTYPE svg PUBLIC "-//W3C//DTD SVG 1.1//EN" "http://www.w3.org/Graphics/SVG/1.1/DTD/svg11.dtd">
<svg width="500px" height="500px" viewBox="0 0 64 64" version="1.1" xmlns="http://www.w3.org/2000/svg" xmlns:xlink="http://www.w3.org/1999/xlink" xml:space="preserve" style="fill-rule:evenodd;clip-rule:evenodd;stroke-linejoin:round;stroke-miterlimit:1.41421;">
    <g id="Layer-1" transform="matrix(-1,0,-0,1,63.9995,0)">
        <path d="M52.779,11.285C52.152,10.192 51.137,10 49.735,10L31.69,10L34,14L34,25L38,25L38,14L49.652,14L56.613,26L60.078,24L52.779,11.285Z" style="fill:rgb(119,114,109);fill-rule:nonzero;"/>
        <path d="M63.541,33.504C64.101,32.559 64.202,31.159 63.541,30.008C62.522,28.234 60.078,24 60.078,24L52.937,24C51.22,24 50.088,24.806 49.398,26L47.666,29L40.887,29L38,24L23,24C21.138,24 20,25.323 20,27L20,42C20,43.31 20.972,44 22,44L57.481,44L63.541,33.504Z" style="fill:rgb(247,201,11);fill-rule:nonzero;"/>
        <g>
            <clipPath id="_clip1">
                <path d="M52.937,24C51.22,24 50.088,24.806 49.398,26L47.666,29L40.887,29L38,24L23,24C21.138,24 20,25.322 20,27L20,42C20,43.31 20.972,44 22,44L57.481,44L63.541,33.503C64.101,32.559 64.202,31.159 63.541,30.008C62.522,28.234 60.078,24 60.078,24L52.937,24Z"/>
            </clipPath>
            <g clip-path="url(#_clip1)">
                <g>
                    <g opacity="0.300003">
                        <rect x="20" y="24" width="6" height="20" style="fill:rgb(71,71,94);fill-rule:nonzero;"/>
                    </g>
                </g>
                <g>
                    <g opacity="0.149994">
                        <path d="M64,24L50.553,24L39.006,44L64,44L64,24Z" style="fill:rgb(125,28,199);fill-rule:nonzero;"/>
                    </g>
                </g>
            </g>
        </g>
        <path d="M50,34L29,34C24.028,34 20,38.028 20,43C20,47.972 24.028,52 29,52L50,52C54.972,52 59,47.972 59,43C59,38.028 54.972,34 50,34" style="fill:rgb(119,114,109);fill-rule:nonzero;"/>
        <g>
            <clipPath id="_clip2">
                <path d="M29,34C24.028,34 20,38.029 20,43C20,47.972 24.028,52 29,52L50,52C54.972,52 59,47.972 59,43C59,38.029 54.972,34 50,34L29,34Z"/>
            </clipPath>
            <g clip-path="url(#_clip2)">
                <g opacity="0.5">
                    <g>
                        <g opacity="0.300003">
                            <path d="M44.779,34L20,34L20,52L34.385,52L44.779,34Z" style="fill:white;fill-rule:nonzero;"/>
                        </g>
                    </g>
                    <path d="M49.998,38L29,38C26.238,38 24,40.239 24,43C24,45.761 26.238,48 29,48L49.998,48C52.761,48 54.998,45.761 54.998,43C54.998,40.239 52.761,38 49.998,38" style="fill:rgb(212,213,209);fill-rule:nonzero;"/>
                </g>
            </g>
        </g>
        <path d="M17.854,28.014L6.314,48L4.62,48C3.109,48 1.736,48.992 1.154,49.999C0.768,50.67 -0.001,52 -0.001,52L4.006,52C12.841,52 20.004,44.839 20.004,36.002C20.004,33.09 19.216,30.365 17.854,28.014" style="fill:rgb(119,114,109);fill-rule:nonzero;"/>
    </g>
</svg>
