<?xml version="1.0" encoding="UTF-8" standalone="no"?>
<!DOCTYPE svg PUBLIC "-//W3C//DTD SVG 1.1//EN" "http://www.w3.org/Graphics/SVG/1.1/DTD/svg11.dtd">
<svg width="500px" height="500px" viewBox="0 0 64 64" version="1.1" xmlns="http://www.w3.org/2000/svg" xmlns:xlink="http://www.w3.org/1999/xlink" xml:space="preserve" style="fill-rule:evenodd;clip-rule:evenodd;stroke-linejoin:round;stroke-miterlimit:1.41421;">
    <g id="Layer-1" transform="matrix(-1,0,-0,1,62.0005,0)">
        <path d="M15,41.5C15,44.536 12.538,47 9.5,47C6.462,47 4,44.536 4,41.5C4,38.464 6.462,36 9.5,36C12.538,36 15,38.464 15,41.5M9.5,32C4.252,32 0,36.252 0,41.5C0,46.748 4.252,51 9.5,51C14.748,51 19,46.748 19,41.5C19,36.252 14.748,32 9.5,32M58,41.5C58,44.536 55.538,47 52.5,47C49.462,47 47,44.536 47,41.5C47,38.464 49.462,36 52.5,36C55.538,36 58,38.464 58,41.5M52.5,32C47.252,32 43,36.252 43,41.5C43,46.748 47.252,51 52.5,51C57.748,51 62,46.748 62,41.5C62,36.252 57.748,32 52.5,32" style="fill:rgb(71,71,94);fill-rule:nonzero;"/>
        <g>
            <clipPath id="_clip1">
                <path d="M43,41.5C43,46.748 47.252,51 52.5,51C57.748,51 62,46.748 62,41.5C62,36.252 57.748,32 52.5,32C47.252,32 43,36.252 43,41.5ZM47,41.5C47,38.464 49.462,36 52.5,36C55.538,36 58,38.464 58,41.5C58,44.536 55.538,47 52.5,47C49.462,47 47,44.536 47,41.5ZM0,41.5C0,46.748 4.253,51 9.5,51C14.747,51 19,46.748 19,41.5C19,36.252 14.747,32 9.5,32C4.253,32 0,36.252 0,41.5ZM4,41.5C4,38.464 6.462,36 9.5,36C12.538,36 15,38.464 15,41.5C15,44.536 12.538,47 9.5,47C6.462,47 4,44.536 4,41.5Z"/>
            </clipPath>
            <g clip-path="url(#_clip1)">
                <g>
                    <g opacity="0.5">
                        <path d="M14.969,32L0,32L0,51L4,51L14.969,32Z" style="fill:rgb(199,68,28);fill-rule:nonzero;"/>
                    </g>
                </g>
                <g>
                    <g opacity="0.5">
                        <path d="M62,32L62,43.9L43,32.93L43,32L62,32Z" style="fill:rgb(199,68,28);fill-rule:nonzero;"/>
                    </g>
                </g>
            </g>
        </g>
        <path d="M53.688,39.102C53.112,38.77 20.608,20 20.608,20L18.783,25.009C18.783,25.009 50.487,43.317 51.063,43.649C52.318,44.373 53.923,43.943 54.649,42.688C55.374,41.432 54.943,39.827 53.688,39.102" style="fill:rgb(166,166,159);fill-rule:nonzero;"/>
        <path d="M61.949,19.112C61.773,18.456 61.178,18 60.5,18L46.937,18C45.633,18 44.777,18.672 44.299,19.5L41.701,24L35.558,20.453C32.574,18.73 30.231,18 28.058,18C24.715,18 22.944,18.649 20.608,20L16.175,12.321C10.762,15.447 4.634,21.259 2.187,25.5C1.095,27.39 1.062,30 4,30L13.59,30C13.59,30 15.482,31.092 16.664,31.775C19.324,33.311 21.981,37.558 21.981,41.392C21.981,43.009 21.477,45.049 21.038,45.96C20.598,46.871 21.234,48 22.244,48L38.833,48C40.03,48 41,47.03 41,45.833L41,39.91C41.01,35.337 43.395,31.322 46.988,29.033L61.25,20.799C61.838,20.46 62.125,19.768 61.949,19.112" style="fill:rgb(199,68,28);fill-rule:nonzero;"/>
        <g>
            <clipPath id="_clip2">
                <path d="M2.188,25.5C1.095,27.39 1.063,30 4,30L13.59,30C13.59,30 15.482,31.092 16.664,31.775C19.325,33.311 21.982,37.558 21.982,41.392C21.982,43.008 21.478,45.049 21.038,45.96C20.598,46.871 21.234,48 22.244,48L38.833,48C40.03,48 41,47.031 41,45.833L41,39.911C41.009,35.337 43.395,31.322 46.988,29.033L61.25,20.799C61.838,20.46 62.125,19.768 61.949,19.112C61.773,18.456 61.178,18 60.5,18L46.938,18C45.633,18 44.778,18.671 44.299,19.5L41.702,24L35.559,20.454C32.575,18.729 30.231,18 28.058,18C24.715,18 22.944,18.648 20.608,20L16.176,12.321C10.763,15.447 4.634,21.259 2.188,25.5Z"/>
            </clipPath>
            <g clip-path="url(#_clip2)">
                <g>
                    <g opacity="0.300003">
                        <rect x="41.701" y="18" width="20.299" height="6" style="fill:rgb(71,71,94);fill-rule:nonzero;"/>
                    </g>
                </g>
                <g>
                    <g opacity="0.300003">
                        <path d="M62,48L27.845,48L41.701,24L41.937,18L62,18L62,48Z" style="fill:rgb(71,71,94);fill-rule:nonzero;"/>
                    </g>
                </g>
                <path d="M9.041,16.172L10.458,12.321L20.608,12.321L20.608,20L13.59,24.052L9.041,16.172Z" style="fill:rgb(166,166,159);fill-rule:nonzero;"/>
                <g>
                    <g opacity="0.300003">
                        <clipPath id="_clip3">
                            <rect x="13.59" y="20" width="43.14" height="30.454"/>
                        </clipPath>
                        <g clip-path="url(#_clip3)">
                            <path d="M53.688,39.102C52.355,38.332 20.608,20 20.608,20C19.431,20.681 13.59,24.052 13.59,24.052L13.59,30C13.59,35.938 13.59,30 13.59,30C13.59,30 46.931,49.25 47.603,49.639C50.513,51.319 54.234,50.321 55.916,47.413C57.594,44.502 56.597,40.782 53.688,39.102" style="fill:white;fill-rule:nonzero;"/>
                        </g>
                    </g>
                </g>
            </g>
        </g>
    </g>
</svg>
