<?xml version="1.0" encoding="UTF-8" standalone="no"?>
<!DOCTYPE svg PUBLIC "-//W3C//DTD SVG 1.1//EN" "http://www.w3.org/Graphics/SVG/1.1/DTD/svg11.dtd">
<svg width="500px" height="500px" viewBox="0 0 64 64" version="1.1" xmlns="http://www.w3.org/2000/svg" xmlns:xlink="http://www.w3.org/1999/xlink" xml:space="preserve" style="fill-rule:evenodd;clip-rule:evenodd;stroke-linejoin:round;stroke-miterlimit:1.41421;">
    <g id="Layer-1" transform="matrix(-1,0,-0,1,63,0)">
        <path d="M51.619,29C50.464,27 47,21 47,21C34.062,21 28.856,21.329 26.75,22.513C24.933,23.534 23,25.242 20.253,30C14.762,31 9,32 7,33C3.775,34.612 4,41.371 4,43C4,45 6.062,46 7,46L51,46C56,46 59,45.143 59,42.071L59,33C59,31.126 58,30 51.619,29" style="fill:rgb(200,68,29);fill-rule:nonzero;"/>
        <g>
            <clipPath id="_clip1">
                <path d="M26.75,22.513C24.934,23.533 23,25.242 20.253,30C14.762,31 9,32 7,33C3.775,34.612 4,41.371 4,43C4,45 6.062,46 7,46L51,46C56,46 59,45.142 59,42.072L59,33C59,31.127 58,30 51.62,29C50.464,27 47,21 47,21C34.062,21 28.856,21.329 26.75,22.513Z"/>
            </clipPath>
            <g clip-path="url(#_clip1)">
                <g opacity="0.199997">
                    <clipPath id="_clip2">
                        <rect x="16" y="25" width="43" height="21"/>
                    </clipPath>
                    <g clip-path="url(#_clip2)">
                        <path d="M16.789,44C16.789,44 21.805,35.312 23.717,32C25.351,29.171 27.352,26.763 28.71,26C30.373,25.065 35,25 44.478,25L59,25L59,46L16,46L16.789,44Z" style="fill-rule:nonzero;"/>
                    </g>
                </g>
            </g>
        </g>
        <clipPath id="_clip3">
            <path d="M44.477,25C35,25 30.372,25.065 28.709,26C27.352,26.763 25.35,29.171 23.717,32C21.804,35.312 16.789,44 16.789,44L16,46L51,46C56,46 59,45.142 59,42.072L59,33C59,31.127 58,30 51.62,29C51.123,28.141 50.2,26.543 49.31,25L44.477,25Z"/>
        </clipPath>
        <g clip-path="url(#_clip3)">
            <path d="M44.478,25L38,24.649L38,32L48.52,32L44.478,25ZM22.166,32L35,32L35,24.487L26,24L22.166,32Z" style="fill:rgb(212,213,209);fill-rule:nonzero;"/>
        </g>
        <g>
            <clipPath id="_clip4">
                <path d="M26.75,22.513C24.934,23.533 23,25.242 20.253,30C14.762,31 9,32 7,33C3.775,34.612 4,41.371 4,43C4,45 6.062,46 7,46L51,46C56,46 59,45.142 59,42.072L59,33C59,31.127 58,30 51.62,29C50.464,27 47,21 47,21C34.062,21 28.856,21.329 26.75,22.513Z"/>
            </clipPath>
            <g clip-path="url(#_clip4)">
                <g>
                    <g opacity="0.5">
                        <rect x="3" y="40" width="57" height="8" style="fill-rule:nonzero;"/>
                    </g>
                </g>
                <path d="M10,40L4,40L4,36L7,36C8.657,36 10,37.343 10,39L10,40Z" style="fill:rgb(247,201,11);fill-rule:nonzero;"/>
                <path d="M55,40L59,40L59,34L58,34C56.344,34 55,35.343 55,37L55,40Z" style="fill:rgb(200,68,29);fill-rule:nonzero;"/>
            </g>
        </g>
        <path d="M23,44.5C23,48.09 20.09,51 16.5,51C12.91,51 10,48.09 10,44.5C10,40.91 12.91,38 16.5,38C20.09,38 23,40.91 23,44.5" style="fill:rgb(158,165,165);fill-rule:nonzero;"/>
        <g>
            <clipPath id="_clip5">
                <path d="M10,44.5C10,48.09 12.911,51 16.5,51C20.09,51 23,48.09 23,44.5C23,40.91 20.09,38 16.5,38C12.911,38 10,40.91 10,44.5Z"/>
            </clipPath>
            <g clip-path="url(#_clip5)">
                <g>
                    <g opacity="0.199997">
                        <path d="M23,51L12.748,51L20.253,38L23,38L23,51Z" style="fill-rule:nonzero;"/>
                    </g>
                </g>
                <path d="M20,44.5C20,46.433 18.433,48 16.5,48C14.567,48 13,46.433 13,44.5C13,42.567 14.567,41 16.5,41C18.433,41 20,42.567 20,44.5" style="fill:rgb(212,213,209);fill-rule:nonzero;"/>
            </g>
        </g>
        <path d="M53,44.5C53,48.09 50.09,51 46.5,51C42.91,51 40,48.09 40,44.5C40,40.91 42.91,38 46.5,38C50.09,38 53,40.91 53,44.5" style="fill:rgb(158,165,165);fill-rule:nonzero;"/>
        <g>
            <clipPath id="_clip6">
                <path d="M40,44.5C40,48.09 42.91,51 46.5,51C50.09,51 53,48.09 53,44.5C53,40.91 50.09,38 46.5,38C42.91,38 40,40.91 40,44.5Z"/>
            </clipPath>
            <g clip-path="url(#_clip6)">
                <g>
                    <g opacity="0.199997">
                        <path d="M53,51L42.748,51L50.253,38L53,38L53,51Z" style="fill-rule:nonzero;"/>
                    </g>
                </g>
                <path d="M50,44.5C50,46.433 48.434,48 46.5,48C44.566,48 43,46.433 43,44.5C43,42.567 44.566,41 46.5,41C48.434,41 50,42.567 50,44.5" style="fill:rgb(212,213,209);fill-rule:nonzero;"/>
            </g>
        </g>
    </g>
</svg>
