<?xml version="1.0" encoding="UTF-8" standalone="no"?>
<!DOCTYPE svg PUBLIC "-//W3C//DTD SVG 1.1//EN" "http://www.w3.org/Graphics/SVG/1.1/DTD/svg11.dtd">
<svg width="500px" height="500px" viewBox="0 0 64 64" version="1.1" xmlns="http://www.w3.org/2000/svg" xmlns:xlink="http://www.w3.org/1999/xlink" xml:space="preserve" style="fill-rule:evenodd;clip-rule:evenodd;stroke-linejoin:round;stroke-miterlimit:1.41421;">
    <g id="Layer-1" transform="matrix(-1,0,-0,1,62,0)">
        <path d="M50,47.999C50,50.206 51.793,52 54.002,52C56.211,52 58,50.206 58,47.999C58,45.791 56.211,44 54.002,44C51.793,44 50,45.791 50,47.999M42,47.999C42,50.206 43.793,52 46.002,52C48.211,52 50,50.206 50,47.999C50,45.791 48.211,44 46.002,44C43.793,44 42,45.791 42,47.999M25,47.999C25,50.206 26.793,52 29.002,52C31.211,52 33,50.206 33,47.999C33,45.791 31.211,44 29.002,44C26.793,44 25,45.791 25,47.999M17,47.999C17,50.206 18.793,52 21.002,52C23.211,52 25,50.206 25,47.999C25,45.791 23.211,44 21.002,44C18.793,44 17,45.791 17,47.999" style="fill:rgb(119,114,109);fill-rule:nonzero;"/>
        <path d="M62,23C62,21.208 60.792,20 59,20L36.381,20C30.966,20 26.137,20.691 22.039,23.058C17.802,25.504 15.118,29.332 13,33C9.994,34.735 0,43.209 0,46.829C0,49.167 1.698,50.671 4,52L17.94,51.999L25,47.999C25,47.999 57.887,48 59,48C60.657,48 62,46.657 62,45L62,23Z" style="fill:rgb(147,193,207);fill-rule:nonzero;"/>
        <g>
            <clipPath id="_clip1">
                <path d="M36.381,20C30.965,20 26.137,20.691 22.038,23.057C17.802,25.504 15.117,29.332 13,33C9.994,34.736 0,43.209 0,46.829C0,49.167 1.698,50.671 4,52L17.94,51.999L25,47.999C25,47.999 57.887,48 59,48C60.657,48 62,46.657 62,45L62,23C62,21.209 60.792,20 59,20L36.381,20Z"/>
            </clipPath>
            <g clip-path="url(#_clip1)">
                <path d="M62,37L62,27L43.393,27C37.977,27 33.287,27.611 29.05,30.058C28.562,30.339 17.618,36.657 17.025,37L62,37ZM35.516,20C35.516,20 18.013,30.105 13,33L13,20L35.516,20Z" style="fill:rgb(71,71,94);fill-rule:nonzero;"/>
                <g>
                    <g opacity="0.300003">
                        <path d="M62,33L23.954,33L0,46.829L0,20L62,20L62,33Z" style="fill:white;fill-rule:nonzero;"/>
                    </g>
                </g>
                <path d="M62,33L33,33L23.954,33C23.954,33 17.618,36.657 17.025,37L62,37L62,33Z" style="fill:rgb(117,162,216);fill-rule:nonzero;"/>
            </g>
        </g>
    </g>
</svg>
