<?xml version="1.0" encoding="iso-8859-1"?>
<!-- Generator: Adobe Illustrator 19.0.0, SVG Export Plug-In . SVG Version: 6.00 Build 0)  -->
<svg class="scaling-svg" version="1.1" id="Layer_1" xmlns="http://www.w3.org/2000/svg" xmlns:xlink="http://www.w3.org/1999/xlink"  width="500px" height="500px" x="0px" y="0px"
	 viewBox="0 0 512 512" style="enable-background:new 0 0 512 512;" xml:space="preserve">
<path style="fill:#464655;" d="M428.331,442.661l-0.012-44.079l-58.477,0.016l0.012,44.061
	c-49.869,0.005-113.745,0.012-113.861,0.012H142.107V398.6H83.63v44.079c-29.236,0.176-52.969,24.008-52.969,53.285
	c0,8.856,7.18,16.036,16.036,16.036s16.036-7.18,16.036-16.036c0-11.701,9.519-21.221,21.221-21.221
	c0,0,171.832,0.029,172.025,0.029l172.04-0.047c11.701-0.003,21.223,9.513,21.226,21.214c0.002,8.856,7.184,16.034,16.04,16.032
	c8.856-0.002,16.034-7.184,16.032-16.04C481.307,466.654,457.568,442.829,428.331,442.661z"/>
<path style="fill:#FF6840;" d="M247.839,0.734c-13.565,2.381-25.572,10.62-32.594,22.786L25.849,351.561
	c-7.019,12.157-8.155,26.663-3.444,39.596l0.037,0.105l39.132-25.086l186.39-322.835V0.713L247.839,0.734z"/>
<path style="fill:#FF9140;" d="M81.431,363.855h349.102L255.981,61.523L81.431,363.855z M363.899,328.04H148.065l107.917-186.918
	L363.899,328.04z"/>
<g>
	<path style="fill:#FF6840;" d="M263.999,0.712v42.627l186.389,322.834l39.182,25.118c-0.001,0.002-0.002,0.004-0.002,0.006
		c1.857-5.056,2.871-10.517,2.871-16.216c0-9.104-2.586-17.604-7.064-24.805L296.72,23.52
		c-7.016-12.153-19.007-20.388-32.556-22.778L263.999,0.712z"/>
	<path style="fill:#FF6840;" d="M442.072,379.891H69.892L30.46,405.169c8.849,10.625,22.03,16.952,36.129,16.952h378.788
		c0.006,0,0.012,0,0.02,0c14.525,0,27.509-6.586,36.137-16.933L442.072,379.891z"/>
</g>
<path style="fill:#464655;" d="M489.569,391.291l-39.182-25.118L263.999,43.339V0.712C261.374,0.258,258.698,0,255.981,0
	s-5.393,0.258-8.019,0.713v42.626L61.574,366.175l-39.132,25.086c0.922,2.514,2.042,4.975,3.407,7.34
	c1.353,2.345,2.911,4.527,4.61,6.568l39.432-25.279h372.179l39.463,25.298C484.955,401.088,487.694,396.399,489.569,391.291z
	 M81.431,363.855L255.981,61.523l174.551,302.332L81.431,363.855L81.431,363.855z"/>
</svg>
