<?xml version="1.0" encoding="utf-8"?>
<svg class="scaling-svg" id="Layer_1" style="enable-background:new 0 0 512 512;" x="0px" y="0px" width="500px" height="500px" viewBox="0 0 512 512" xmlns="http://www.w3.org/2000/svg">
  <path d="M 278.421 396.913 C 278.421 396.913 276.025 407.618 275.495 397.908 L 236.049 396.913 C 105.305 399.561 1.123 424.278 0.032 454.292 C -1.124 486.071 112.705 511.671 253.946 511.671 C 395.187 511.671 510.876 486.071 512.032 454.292 C 513.123 424.278 407.95 400.677 275.632 398.029" style="fill: rgb(119, 194, 197);"/>
  <path style="fill: rgb(67, 176, 91);" d="M 256 0 C 158.897 0 88.276 74.73 88.276 156.03 C 88.276 205.302 106.814 231.581 131.531 279.211 C 180.966 374.472 256 476.302 256 476.302 C 256 476.302 331.034 374.472 380.469 279.211 C 405.186 231.581 423.724 205.302 423.724 156.03 C 423.724 74.73 353.103 0 256 0"/>
  <path style="fill:#ED7161;" d="M353.103,167.724c0-53.848-43.255-97.103-97.103-97.103s-97.103,43.255-97.103,97.103&#10;&#9;s43.255,97.103,97.103,97.103S353.103,221.572,353.103,167.724"/>
  <g>
    <path style="fill:#FFFFFF;" d="M300.138,220.69c-2.648,0-4.414-0.883-6.179-2.648l-88.276-88.276&#10;&#9;&#9;c-3.531-3.531-3.531-8.828,0-12.359c3.531-3.531,8.828-3.531,12.359,0l88.276,88.276c3.531,3.531,3.531,8.828,0,12.359&#10;&#9;&#9;C304.552,219.807,302.786,220.69,300.138,220.69z"/>
    <path style="fill:#FFFFFF;" d="M211.862,220.69c-2.648,0-4.414-0.883-6.179-2.648c-3.531-3.531-3.531-8.828,0-12.359l88.276-88.276&#10;&#9;&#9;c3.531-3.531,8.828-3.531,12.359,0s3.531,8.828,0,12.359l-88.276,88.276C216.276,219.807,214.51,220.69,211.862,220.69z"/>
  </g>
  <g/>
  <g/>
  <g/>
  <g/>
  <g/>
  <g/>
  <g/>
  <g/>
  <g/>
  <g/>
  <g/>
  <g/>
  <g/>
  <g/>
  <g/>
</svg>