<?xml version="1.0" encoding="utf-8"?>
<svg class="scaling-svg" id="Layer_1" style="enable-background:new 0 0 512 512;" x="0px" y="0px" width="500px" height="500px" viewBox="0 0 512 512" xmlns="http://www.w3.org/2000/svg">
  <path d="M 278.947 396.355 C 278.947 396.355 276.551 407.06 276.021 397.35 L 236.575 396.355 C 105.831 399.003 1.649 423.72 0.558 453.734 C -0.598 485.513 113.231 511.113 254.472 511.113 C 395.713 511.113 511.402 485.513 512.558 453.734 C 513.649 423.72 408.476 400.119 276.158 397.471" style="fill: rgb(119, 194, 197);"/>
  <path style="fill: rgb(67, 176, 91);" d="M 256 0 C 158.897 0 88.276 72.542 88.276 151.462 C 88.276 199.292 106.814 224.801 131.531 271.037 C 180.966 363.509 256 462.357 256 462.357 C 256 462.357 331.034 363.509 380.469 271.037 C 405.186 224.801 423.724 199.292 423.724 151.462 C 423.724 72.542 353.103 0 256 0"/>
  <path style="fill:#FFFFFF;" d="M353.103,167.724c0-53.848-43.255-97.103-97.103-97.103s-97.103,43.255-97.103,97.103&#10;&#9;s43.255,97.103,97.103,97.103S353.103,221.572,353.103,167.724"/>
  <g>
    <path style="fill:#48A0DC;" d="M256,238.345c-5.297,0-8.828-3.531-8.828-8.828V105.931c0-5.297,3.531-8.828,8.828-8.828&#10;&#9;&#9;c5.297,0,8.828,3.531,8.828,8.828v123.586C264.828,234.814,261.297,238.345,256,238.345z"/>
    <path style="fill:#48A0DC;" d="M256,238.345c-2.648,0-4.414-0.883-6.179-2.648l-35.31-35.31c-3.531-3.531-3.531-8.828,0-12.359&#10;&#9;&#9;c3.531-3.531,8.828-3.531,12.359,0L256,217.159l29.131-29.131c3.531-3.531,8.828-3.531,12.359,0c3.531,3.531,3.531,8.828,0,12.359&#10;&#9;&#9;l-35.31,35.31C260.414,237.462,258.648,238.345,256,238.345z"/>
  </g>
  <g/>
  <g/>
  <g/>
  <g/>
  <g/>
  <g/>
  <g/>
  <g/>
  <g/>
  <g/>
  <g/>
  <g/>
  <g/>
  <g/>
  <g/>
</svg>