<?xml version="1.0" encoding="utf-8"?>
<svg class="scaling-svg" id="Layer_1" style="enable-background:new 0 0 512 512;" x="0px" y="0px" width="500px" height="500px" viewBox="0 0 512 512" xmlns="http://www.w3.org/2000/svg">
  <path d="M 278.422 396.913 C 278.422 396.913 276.026 407.618 275.496 397.908 L 236.05 396.913 C 105.306 399.561 1.124 424.278 0.033 454.292 C -1.123 486.071 112.706 511.671 253.947 511.671 C 395.188 511.671 510.877 486.071 512.033 454.292 C 513.124 424.278 407.951 400.677 275.633 398.029" style="fill: rgb(119, 194, 197);"/>
  <path style="fill: rgb(67, 176, 91);" d="M 256 0 C 158.897 0 88.276 73.68 88.276 153.837 C 88.276 202.418 106.814 228.327 131.531 275.288 C 180.966 369.209 256 469.608 256 469.608 C 256 469.608 331.034 369.209 380.469 275.288 C 405.186 228.327 423.724 202.418 423.724 153.837 C 423.724 73.68 353.103 0 256 0"/>
  <path style="fill:#FFFFFF;" d="M353.103,167.724c0-53.848-43.255-97.103-97.103-97.103s-97.103,43.255-97.103,97.103&#10;&#9;s43.255,97.103,97.103,97.103S353.103,221.572,353.103,167.724"/>
  <g>
    <path style="fill:#43AF5B;" d="M256,238.345c-5.297,0-8.828-3.531-8.828-8.828V105.931c0-5.297,3.531-8.828,8.828-8.828&#10;&#9;&#9;c5.297,0,8.828,3.531,8.828,8.828v123.586C264.828,234.814,261.297,238.345,256,238.345z"/>
    <path style="fill:#43AF5B;" d="M291.31,150.069c-2.648,0-4.414-0.883-6.179-2.648L256,118.29l-29.131,29.131&#10;&#9;&#9;c-3.531,3.531-8.828,3.531-12.359,0c-3.531-3.531-3.531-8.828,0-12.359l35.31-35.31c3.531-3.531,8.828-3.531,12.359,0l35.31,35.31&#10;&#9;&#9;c3.531,3.531,3.531,8.828,0,12.359C295.724,149.186,293.959,150.069,291.31,150.069z"/>
  </g>
  <g/>
  <g/>
  <g/>
  <g/>
  <g/>
  <g/>
  <g/>
  <g/>
  <g/>
  <g/>
  <g/>
  <g/>
  <g/>
  <g/>
  <g/>
</svg>