<?xml version="1.0" encoding="utf-8"?>
<svg class="scaling-svg" id="Layer_1" style="enable-background:new 0 0 496.159 496.159;" width="500px" height="500px" x="0px" y="0px" viewBox="0 0 496.159 496.159" xmlns="http://www.w3.org/2000/svg">
  <path d="M496.159,248.085c0-137.023-111.07-248.082-248.076-248.082C111.071,0.003,0,111.063,0,248.085&#10;&#9;c0,137.001,111.07,248.07,248.083,248.07C385.089,496.155,496.159,385.086,496.159,248.085z" style="fill: rgb(117, 255, 198);"/>
  <g/>
  <g/>
  <g/>
  <g/>
  <g/>
  <g/>
  <g/>
  <g/>
  <g/>
  <g/>
  <g/>
  <g/>
  <g/>
  <g/>
  <g/>
  <path style="fill:#424242;" d="M 114.912 227.878 C 98.96 198.351 104.953 162.759 129.819 139.31 C 154.687 115.863 192.432 110.213 223.748 125.252 L 214.076 143.16 C 191.012 132.083 163.209 136.244 144.89 153.517 C 126.572 170.794 122.156 197.009 133.902 218.756 L 114.912 227.878 Z"/>
  <path d="M 272.11 117.472 L 225.588 99.302 L 196.996 164.389 L 243.519 182.559 C 244.319 216.144 265.722 247.734 300.749 261.416 C 348.058 279.893 402.294 258.709 421.889 214.099 C 441.486 169.493 419.02 118.349 371.712 99.872 C 336.685 86.19 297.862 94.258 272.11 117.472 Z M 389.204 201.334 C 377.104 228.876 343.498 242.005 314.286 230.597 C 285.077 219.185 271.156 187.497 283.255 159.952 C 295.355 132.408 328.962 119.281 358.174 130.69 C 387.384 142.099 401.305 173.79 389.204 201.334 Z" style="fill: rgb(202, 199, 199);"/>
  <path d="M 371.712 99.872 C 336.685 86.19 297.863 94.258 272.11 117.472 L 225.588 99.302 L 196.996 164.389 L 243.519 182.559 C 243.529 182.974 243.556 183.382 243.572 183.794 C 244.597 192.421 252.523 198.973 261.87 198.638 C 271.206 198.306 278.592 191.231 278.948 182.574 C 278.649 175.05 280.007 167.353 283.255 159.952 C 295.355 132.41 328.962 119.284 358.174 130.693 C 387.384 142.102 401.305 173.79 389.204 201.334 C 389.079 201.624 388.935 201.902 388.802 202.189 C 385.722 210.505 390.03 219.738 398.766 223.151 C 407.32 226.492 417.049 223.059 421.264 215.475 C 421.476 215.019 421.688 214.563 421.889 214.099 C 441.486 169.49 419.02 118.349 371.712 99.872 Z" style="fill: rgb(165, 158, 158);"/>
  <circle style="fill:#424242;" cx="231.359" cy="69.851" r="15.248" transform="matrix(0.679801, 0, 0, 0.641006, 88.842628, 100.669067)"/>
  <path d="M 87.995 367.398 C 107.59 412.006 161.827 433.19 209.135 414.713 C 256.444 396.235 278.91 345.092 259.314 300.485 C 244.804 267.456 211.305 247.275 175.687 246.519 L 156.417 202.65 L 87.389 229.613 L 106.66 273.481 C 82.04 297.763 73.486 334.369 87.995 367.398 Z M 120.68 354.632 C 108.581 327.09 122.503 295.399 151.712 283.989 C 180.924 272.581 214.532 285.707 226.631 313.249 C 238.73 340.794 224.81 372.482 195.599 383.894 C 166.388 395.303 132.78 382.176 120.68 354.632 Z" style="fill: rgb(160, 153, 153);"/>
  <path d="M 218.72 392.915 C 215.017 384.486 204.839 380.441 195.873 383.778 C 195.78 383.815 195.691 383.856 195.598 383.894 C 166.386 395.303 132.78 382.176 120.68 354.632 C 108.58 327.09 122.5 295.399 151.712 283.989 C 159.296 281.028 167.177 279.732 174.9 279.9 C 184.438 279.965 192.367 272.873 192.73 263.825 C 193.086 254.914 185.974 247.372 176.67 246.556 C 176.344 246.546 176.017 246.527 175.688 246.519 L 156.417 202.65 L 87.389 229.613 L 106.66 273.481 C 82.04 297.76 73.486 334.369 87.995 367.397 C 107.59 412.006 161.827 433.19 209.135 414.713 C 209.435 414.596 209.728 414.472 210.026 414.351 C 218.449 410.549 222.339 401.149 218.72 392.915 Z" style="fill: rgb(208, 203, 203);"/>
  <circle style="fill:#424242;" cx="69.85" cy="231.36" r="15.248" transform="matrix(0.679801, 0, 0, 0.641006, 88.842628, 100.669067)"/>
</svg>