<?xml version="1.0" encoding="utf-8"?>
<svg class="scaling-svg" id="Layer_1" style="enable-background:new 0 0 496.159 496.159;" width="500px" height="500px" x="0px" y="0px" viewBox="0 0 496.159 496.159" xmlns="http://www.w3.org/2000/svg">
  <path d="M496.159,248.085c0-137.023-111.07-248.082-248.076-248.082C111.071,0.003,0,111.063,0,248.085&#10;&#9;c0,137.001,111.07,248.07,248.083,248.07C385.089,496.155,496.159,385.086,496.159,248.085z" style="fill: rgb(144, 223, 170);"/>
  <g/>
  <g/>
  <g/>
  <g/>
  <g/>
  <g/>
  <g/>
  <g/>
  <g/>
  <g/>
  <g/>
  <g/>
  <g/>
  <g/>
  <g/>
  <ellipse cx="285.106" cy="311.051" rx="76.484" ry="60.539" style="fill: rgb(255, 0, 0);"/>
  <g transform="matrix(7.007204, 0, 0, 7.129238, 90.075897, 76.191605)">
    <g>
      <path d="M29.134,21.096H16.829c-6.366,0-11.537,5.167-11.537,11.534v11.181c0,1.18,0.968,2.135,2.149,2.135h31.08&#10;&#9;&#9;&#9;c1.183,0,2.133-0.955,2.133-2.135V32.63C40.653,26.264,35.5,21.096,29.134,21.096z M34.065,34.363&#10;&#9;&#9;&#9;c-0.086,0.084-4.222,4.201-5.744,5.716c-0.307,0.306-0.805,0.306-1.11,0c-1.522-1.515-5.659-5.632-5.745-5.716&#10;&#9;&#9;&#9;c-1.742-1.742-1.742-4.57,0-6.312c1.741-1.738,4.559-1.742,6.301-0.012c1.744-1.73,4.562-1.727,6.301,0.012&#10;&#9;&#9;&#9;C35.81,29.793,35.81,32.621,34.065,34.363z"/>
      <circle cx="22.982" cy="8.971" r="8.971"/>
    </g>
  </g>
  <ellipse transform="matrix(NaN, NaN, NaN, NaN, NaN, NaN)" style="fill: rgb(216, 216, 216);"/>
</svg>