<?xml version="1.0" encoding="utf-8"?>
<svg class="scaling-svg" id="Layer_1" style="enable-background:new 0 0 496.159 496.159;" width="500px" height="500px" x="0px" y="0px" viewBox="0 0 496.159 496.159" xmlns="http://www.w3.org/2000/svg">
  <path d="M496.159,248.085c0-137.023-111.07-248.082-248.076-248.082C111.071,0.003,0,111.063,0,248.085&#10;&#9;c0,137.001,111.07,248.07,248.083,248.07C385.089,496.155,496.159,385.086,496.159,248.085z" style="fill: rgb(144, 223, 170);"/>
  <g/>
  <g/>
  <g/>
  <g/>
  <g/>
  <g/>
  <g/>
  <g/>
  <g/>
  <g/>
  <g/>
  <g/>
  <g/>
  <g/>
  <g/>
  <polygon style="fill: rgb(201, 25, 17);" points="353.703 273.425 140.649 273.425 181.931 79.267 353.703 79.267"/>
  <polygon style="fill: rgb(165, 10, 10);" points="329.978 257.245 168.17 257.245 199.962 95.446 329.978 95.446"/>
  <polygon style="fill: rgb(209, 233, 237);" points="329.978 268.031 166.271 268.031 198.539 106.233 329.978 106.233"/>
  <polyline style="fill: rgb(177, 217, 221);" points="329.978 106.233 329.978 268.031 168.645 268.031"/>
  <polygon style="fill: rgb(229, 247, 249);" points="275.409 106.233 198.539 106.233 180.033 201.155"/>
  <g transform="matrix(0.593137, 0, 0, 0.674159, 97.468163, 79.26667)">
    <path style="fill:#97BFC1;" d="M368,184.8c0,4-3.2,7.2-7.2,7.2h-1.6c-4,0-7.2-3.2-7.2-7.2v-33.6c0-4,3.2-7.2,7.2-7.2h1.6&#10;&#9;&#9;c4,0,7.2,3.2,7.2,7.2V184.8z"/>
    <path style="fill:#97BFC1;" d="M376.8,144c0,4.8-3.2,8-8,8h-21.6c-4.8,0-8-4-8-8l0,0c0-4,3.2-8,8-8h21.6&#10;&#9;&#9;C372.8,136,376.8,140,376.8,144L376.8,144z"/>
  </g>
  <path style="fill: rgb(201, 25, 17);" d="M 353.703 366.189 C 353.703 393.695 332.35 413.649 307.675 413.649 L 163.425 413.649 C 139.225 413.649 135.429 393.695 135.429 366.189 L 135.429 254.01 C 135.429 226.503 139.225 203.312 163.425 203.312 L 325.233 203.312 C 349.433 203.312 353.228 226.503 353.228 254.01 L 353.228 366.189 L 353.703 366.189 Z"/>
  <path style="fill: rgb(165, 10, 10);" d="M 325.707 203.312 C 349.907 203.312 353.703 226.503 353.703 254.01 L 353.703 366.189 C 353.703 393.695 332.35 413.649 307.675 413.649 L 163.425 413.649 C 139.225 413.649 135.429 393.695 135.429 366.189 L 135.429 251.852"/>
  <polygon style="fill: rgb(122, 4, 4);" points="353.703 284.75 329.978 257.245 281.579 257.245 274.459 265.874 353.703 354.863"/>
  <path style="fill: rgb(209, 233, 237);" d="M 329.978 261.02 C 329.978 264.795 327.13 268.031 323.81 268.031 L 288.695 268.031 C 285.373 268.031 282.527 264.795 282.527 261.02 L 282.527 258.863 C 282.527 255.088 285.373 251.852 288.695 251.852 L 323.81 251.852 C 327.13 251.852 329.978 255.088 329.978 258.863 L 329.978 261.02 Z"/>
  <circle style="fill: rgb(239, 184, 29);" cx="284.491" cy="200.806" r="19.2" transform="matrix(0.593137, 0, 0, 0.674159, 114.733734, 123.487717)"/>
  <path style="fill: rgb(237, 138, 32);" d="M 275.409 249.695 C 280.154 244.301 287.272 244.301 292.017 249.695 C 296.762 255.088 296.762 263.178 292.017 268.571"/>
</svg>