<?xml version="1.0" encoding="UTF-8" standalone="no"?>
<!DOCTYPE svg PUBLIC "-//W3C//DTD SVG 1.1//EN" "http://www.w3.org/Graphics/SVG/1.1/DTD/svg11.dtd">
<svg class="scaling-svg" width="500px" height="500px"  viewBox="0 0 64 64" version="1.1" xmlns="http://www.w3.org/2000/svg" xmlns:xlink="http://www.w3.org/1999/xlink" xml:space="preserve" style="fill-rule:evenodd;clip-rule:evenodd;stroke-linejoin:round;stroke-miterlimit:1.41421;">
    <g id="Layer-1">
        <path d="M32,62C30.464,62 28.929,61.414 27.757,60.242L3.757,36.242C2.632,35.117 2,33.591 2,32C2,30.409 2.632,28.882 3.757,27.757L27.757,3.758C28.929,2.586 30.464,2 32,2C33.535,2 35.071,2.586 36.242,3.758L60.242,27.757C61.368,28.882 62,30.409 62,32C62,33.591 61.368,35.117 60.242,36.242L36.242,60.242C35.071,61.414 33.535,62 32,62" style="fill:rgb(247,201,11);fill-rule:nonzero;"/>
        <g>
            <clipPath id="_clip1">
                <path d="M27.757,3.758L3.758,27.757C2.633,28.882 2,30.408 2,32C2,33.591 2.633,35.117 3.758,36.242L27.757,60.242C28.929,61.414 30.464,62 32,62C33.535,62 35.071,61.414 36.242,60.242L60.242,36.242C61.368,35.117 62,33.591 62,32C62,30.408 61.368,28.882 60.242,27.757L36.242,3.758C35.071,2.587 33.535,2.001 32,2.001C30.464,2.001 28.93,2.587 27.757,3.758Z"/>
            </clipPath>
            <g clip-path="url(#_clip1)">
                <g>
                    <g opacity="0.300003">
                        <path d="M2,62L14.681,62L49.324,2L2,2L2,62Z" style="fill:white;fill-rule:nonzero;"/>
                    </g>
                </g>
                <g>
                    <g opacity="0.600006">
                        <g>
                            <g opacity="0.699997">
                                <path d="M41,23C39.893,18.867 39.025,17 37,17L27,17C24.975,17 24.107,18.867 23,23L41,23Z" style="fill:rgb(71,71,94);fill-rule:nonzero;"/>
                            </g>
                        </g>
                        <path d="M41,23L23,23C22.033,24.674 21,25.581 21,30.845L23,32L23,35L26,35L26,32L38,32L38,35L41,35L41,32L43,30.845C43,25.579 41.967,24.674 41,23" style="fill:rgb(71,71,94);fill-rule:nonzero;"/>
                        <path d="M23,35C21.391,35.929 20,36.831 20,38C20,39.431 21.534,40.342 23.373,41.403C26.55,43.238 27,43.708 27,45.004C27,46.048 25.216,47.779 23.404,49.592C21.593,51.403 10.75,62 10.75,62L17,62L29,50C31.132,47.868 32,46.458 32,45.162C32,43.417 30.5,42.422 27,40.4C25.246,39.388 23,38.492 23,37.563C23,36.697 24.412,35.917 26,35L23,35ZM41,35C39.412,35.917 38,36.697 38,37.563C38,38.492 40.246,39.388 42,40.4C45.5,42.422 49,43.5 49,45.813C49,47.031 48.273,48.211 47.401,49.083L37,62L28.75,62C28.75,62 39.593,51.403 41.404,49.592C43.216,47.779 44,47.048 44,46.004C44,44.708 41.55,43.238 38.373,41.403C36.534,40.342 35,39.431 35,38C35,36.831 36.391,35.929 38,35L41,35Z" style="fill:rgb(71,71,94);fill-rule:nonzero;"/>
                    </g>
                </g>
            </g>
        </g>
    </g>
</svg>
