<?xml version="1.0" encoding="utf-8"?>
<svg class="scaling-svg" id="Layer_1" style="enable-background:new 0 0 496.158 496.158;" width="500px" height="500px" x="0px" y="0px" viewBox="0 0 496.158 496.158" xmlns="http://www.w3.org/2000/svg">
  <path style="fill:#D61E1E;" d="M248.082,0.003C111.07,0.003,0,111.063,0,248.085c0,137.001,111.07,248.07,248.082,248.07&#10;&#9;c137.006,0,248.076-111.069,248.076-248.07C496.158,111.062,385.088,0.003,248.082,0.003z"/>
  <path style="fill:#F4EDED;" d="M248.082,39.002C132.609,39.002,39,132.602,39,248.084c0,115.463,93.609,209.072,209.082,209.072&#10;&#9;c115.467,0,209.076-93.609,209.076-209.072C457.158,132.602,363.549,39.002,248.082,39.002z"/>
  <g transform="matrix(0.676336, 0, 0, 0.802889, 77.731117, 66.843292)">
    <path style="fill:#BFDFE8;" d="M480,203.5c-6.4,0-12-2.4-16.8-7.2c-116.8-116-305.6-116-422.4,0c-9.6,9.6-24.8,9.6-33.6,0&#10;&#9;&#9;c-9.6-9.6-9.6-24.8,0-33.6c135.2-135.2,355.2-135.2,490.4,0c9.6,9.6,9.6,24.8,0,33.6C492.8,201.1,486.4,203.5,480,203.5z"/>
    <path style="fill:#BFDFE8;" d="M396,288.3c-6.4,0-12-2.4-16.8-7.2c-70.4-70.4-184-70.4-254.4,0c-9.6,9.6-24.8,9.6-33.6,0&#10;&#9;&#9;c-9.6-9.6-9.6-24.8,0-33.6c88.8-88.8,232.8-88.8,321.6,0c9.6,9.6,9.6,24.8,0,33.6C408,285.9,402.4,288.3,396,288.3z"/>
    <path style="fill:#BFDFE8;" d="M309.6,369.1c-6.4,0-12-2.4-16.8-7.2c-22.4-22.4-59.2-22.4-81.6,0c-9.6,9.6-24.8,9.6-33.6,0&#10;&#9;&#9;c-9.6-9.6-9.6-24.8,0-33.6c40.8-40.8,108-40.8,148.8,0c9.6,9.6,9.6,24.8,0,33.6C321.6,366.7,316,369.1,309.6,369.1z"/>
  </g>
  <g transform="matrix(0.676336, 0, 0, 0.802889, 77.731117, 66.843292)">
    <path style="fill:#ACD9E5;" d="M7.2,189.1c-0.8,0.8-2.4,2.4-3.2,4c0.8,1.6,1.6,2.4,3.2,4c9.6,9.6,24.8,9.6,33.6,0&#10;&#9;&#9;c116.8-116.8,305.6-116.8,422.4,0c4.8,4.8,11.2,7.2,16.8,7.2s12-2.4,16.8-7.2c0.8-0.8,2.4-2.4,3.2-4c-0.8-1.6-1.6-2.4-3.2-4&#10;&#9;&#9;C361.6,53.9,142.4,53.9,7.2,189.1z"/>
    <path style="fill:#ACD9E5;" d="M91.2,273.9c-0.8,0.8-2.4,2.4-3.2,4c0.8,1.6,1.6,2.4,3.2,4c9.6,9.6,24.8,9.6,33.6,0&#10;&#9;&#9;c70.4-70.4,184-70.4,254.4,0c4.8,4.8,11.2,7.2,16.8,7.2s12-2.4,16.8-7.2c0.8-0.8,2.4-2.4,3.2-4c-0.8-1.6-1.6-2.4-3.2-4&#10;&#9;&#9;C324,185.1,180,185.1,91.2,273.9z"/>
    <path style="fill:#ACD9E5;" d="M177.6,354.7c-0.8,0.8-2.4,2.4-3.2,4c0.8,1.6,1.6,2.4,3.2,4c9.6,9.6,24.8,9.6,33.6,0&#10;&#9;&#9;c22.4-22.4,59.2-22.4,81.6,0c4.8,4.8,11.2,7.2,16.8,7.2s12-2.4,16.8-7.2c0.8-0.8,2.4-2.4,3.2-4c-0.8-1.6-1.6-2.4-3.2-4&#10;&#9;&#9;C285.6,313.1,218.4,313.1,177.6,354.7z"/>
  </g>
  <circle style="fill: rgb(0, 166, 249);" cx="233.43" cy="393.269" r="24" transform="matrix(0.676337, 0, 0, 0.802889, 90.290916, 87.903412)"/>
  <path style="fill: rgb(0, 147, 247);" d="M 248.168 405.583 C 242.758 405.583 237.347 408.793 234.642 413.932 C 237.347 419.07 242.758 422.283 248.168 422.283 C 253.58 422.283 258.989 419.07 261.694 413.932 C 258.989 409.436 253.58 405.583 248.168 405.583 Z"/>
  <path style="fill:#D61E1E;" d="M85.85,60.394c-9.086,7.86-17.596,16.37-25.456,25.456l349.914,349.914&#10;&#9;c9.086-7.861,17.596-16.37,25.456-25.456L85.85,60.394z"/>
  <g/>
  <g/>
  <g/>
  <g/>
  <g/>
  <g/>
  <g/>
  <g/>
  <g/>
  <g/>
  <g/>
  <g/>
  <g/>
  <g/>
  <g/>
</svg>