<?xml version="1.0" encoding="utf-8"?>
<svg class="scaling-svg" id="Layer_1" style="enable-background:new 0 0 496.159 496.159;" width="500px" height="500px" x="0px" y="0px" viewBox="0 0 496.159 496.159" xmlns="http://www.w3.org/2000/svg">
  <path d="M496.159,248.085c0-137.023-111.07-248.082-248.076-248.082C111.071,0.003,0,111.063,0,248.085&#10;&#9;c0,137.001,111.07,248.07,248.083,248.07C385.089,496.155,496.159,385.086,496.159,248.085z" style="fill: rgb(255, 117, 117);"/>
  <g/>
  <g/>
  <g/>
  <g/>
  <g/>
  <g/>
  <g/>
  <g/>
  <g/>
  <g/>
  <g/>
  <g/>
  <g/>
  <g/>
  <g/>
  <g transform="matrix(5.154836, 0, 0, 5.683689, 83.048447, 61.596703)">
    <g opacity="0.300003">
      <g clip-path="url(#_clip1)">
        <path d="M66,30.804L57,36L57,26L66,26L66,30.804Z" style="fill:white;fill-rule:nonzero;"/>
      </g>
    </g>
  </g>
  <path d="M 186.145 146.852 C 186.145 137.434 193.068 129.801 201.61 129.801 L 315.016 129.801 C 323.558 129.801 330.481 137.434 330.481 146.852 L 330.481 300.312 C 330.481 309.73 323.558 317.363 315.016 317.363 L 201.61 317.363 C 193.068 317.363 186.145 309.73 186.145 300.312 L 186.145 146.852 Z" style="fill:rgb(217,154,87);fill-rule:nonzero;"/>
  <path d="M 248.003 192.322 C 248.003 182.904 241.08 175.27 232.539 175.27 L 129.442 175.27 C 120.9 175.27 113.977 182.904 113.977 192.322 L 113.977 300.312 C 113.977 309.73 120.9 317.363 129.442 317.363 L 232.539 317.363 C 241.08 317.363 248.003 309.73 248.003 300.312 L 248.003 192.322 Z" style="fill:rgb(233,191,84);fill-rule:nonzero;"/>
  <g transform="matrix(5.154836, 0, 0, 5.683689, 83.048447, 61.596703)">
    <g clip-path="url(#_clip4)">
      <g opacity="0.300003">
        <rect x="20" y="20" width="12" height="25" style="fill:white;fill-rule:nonzero;"/>
      </g>
    </g>
  </g>
  <path d="M 309.861 334.414 C 298.464 334.414 289.242 344.593 289.242 357.149 C 289.242 369.704 298.464 379.883 309.861 379.883 C 321.259 379.883 330.481 369.704 330.481 357.149 C 330.481 344.593 321.259 334.414 309.861 334.414 M 134.597 334.414 C 123.21 334.414 113.977 344.593 113.977 357.149 C 113.977 369.704 123.21 379.883 134.597 379.883 C 145.984 379.883 155.216 369.704 155.216 357.149 C 155.216 344.593 145.984 334.414 134.597 334.414 M 351.1 334.414 C 345.409 334.414 340.79 329.321 340.79 323.046 C 340.79 316.772 345.409 311.679 351.1 311.679 C 362.471 311.679 371.719 301.482 371.719 288.944 L 371.719 180.954 C 371.719 160.726 381.591 141.867 397.488 131.728 C 402.401 128.59 408.721 130.443 411.571 135.877 C 414.422 141.31 412.741 148.267 407.808 151.41 C 398.267 157.498 392.339 168.82 392.339 180.954 L 392.339 288.944 C 392.339 314.015 373.838 334.414 351.1 334.414" style="fill:rgb(166,166,159);fill-rule:nonzero;"/>
  <g transform="matrix(5.154836, 0, 0, 5.683689, 83.048447, 61.596703)"/>
  <rect x="93.358" y="300.312" width="257.742" height="34.102" style="fill:rgb(71,71,94);fill-rule:nonzero;"/>
  <g transform="matrix(5.154836, 0, 0, 5.683689, 83.048447, 61.596703)">
    <g clip-path="url(#_clip7)">
      <g opacity="0.300003">
        <g clip-path="url(#_clip8)">
          <path d="M46.894,48L20,48L20,42L43.43,42L46.894,48Z" style="fill:rgb(35,31,32);fill-rule:nonzero;"/>
        </g>
      </g>
    </g>
  </g>
</svg>