<?xml version="1.0" encoding="utf-8"?>
<svg class="scaling-svg" style="fill-rule:evenodd;clip-rule:evenodd;stroke-linejoin:round;stroke-miterlimit:1.41421;" width="500px" height="500px" viewBox="0 0 64 64" xmlns="http://www.w3.org/2000/svg">
  <g id="Layer-1" transform="matrix(1.215873, 0, 0, 1.205146, -6.873055, -6.66925)">
    <path d="M58,32C58,46.359 46.359,58 32,58C17.641,58 6,46.359 6,32C6,17.641 17.641,6 32,6C46.359,6 58,17.641 58,32" style="fill:rgb(222,112,71);fill-rule:nonzero;"/>
    <g clip-path="url(#_clip1)">
      <g>
        <g opacity="0.199997"/>
      </g>
      <path d="M52,32C52,43.046 43.046,52 32,52C20.954,52 12,43.046 12,32C12,20.954 20.954,12 32,12C43.046,12 52,20.954 52,32" style="fill:rgb(222,220,217);fill-rule:nonzero;"/>
    </g>
    <g clip-path="url(#_clip3)">
      <g/>
      <g>
        <g opacity="0.600006">
          <g clip-path="url(#_clip5)">
            <path d="M25.11,41C25.11,41 30.772,31.875 31.002,31.459C31.518,30.518 32,29.833 32,28.725C32,27.647 31.313,27 30.465,27C29.099,27 28.999,29.512 29,30L25,30C24.998,28.752 25.199,26.854 26.11,25.373C27.305,23.428 28.923,23.056 30.465,23.056C31.832,23.056 32.977,23.142 34.138,24.173C35.412,25.303 35.992,27.114 35.992,28.725C35.992,30.375 35.363,31.626 34.704,32.74C34.568,32.967 32.154,37.01 32.154,37.01L37.375,37.01L35.163,41L25.11,41Z" style="fill:rgb(71,71,94);fill-rule:nonzero;"/>
          </g>
        </g>
      </g>
      <g>
        <g opacity="0.600006">
          <g clip-path="url(#_clip6)">
            <path d="M43.51,27.01C41.537,27.01 41.01,30.152 41.01,32.01C41.01,33.867 41.537,37.01 43.51,37.01C45.484,37.01 46.01,33.867 46.01,32.01C46.01,30.152 45.484,27.01 43.51,27.01M43.501,41C39.553,41 37,37.467 37,32C37,26.534 39.553,23 43.501,23C47.449,23 50,26.534 50,32C50,37.467 47.449,41 43.501,41" style="fill:rgb(71,71,94);fill-rule:nonzero;"/>
          </g>
        </g>
      </g>
      <g>
        <g opacity="0.600006">
          <g clip-path="url(#_clip7)">
            <path d="M19.398,23L15,25.586L15,29.582L19,27.582L19,41L22.998,41L22.998,23L19.398,23Z" style="fill:rgb(71,71,94);fill-rule:nonzero;"/>
          </g>
        </g>
      </g>
    </g>
  </g>
</svg>