<?xml version="1.0" encoding="utf-8"?>
<svg class="scaling-svg" id="Layer_1" style="enable-background:new 0 0 512 512;" x="0px" y="0px" width="500px" height="500px" viewBox="0 0 512 512" xmlns="http://www.w3.org/2000/svg">
  <path d="M 416 354.572 L 302.04 354.572 C 287.928 379.926 276.512 398.54 273.2 403.901 L 267.344 413.301 C 308.176 414.053 339.984 420.01 339.984 427.249 C 339.984 434.996 303.568 441.286 258.648 441.286 C 213.728 441.286 177.312 435.006 177.312 427.249 C 177.312 420.001 209.152 414.043 250.008 413.301 L 244.184 403.901 C 240.848 398.56 229.392 379.945 215.248 354.572 L 96 354.572 L 0 510.726 L 512 510.726 L 416 354.572 Z" style="fill: rgb(144, 223, 170);"/>
  <path d="M 250.016 413.311 C 209.16 414.053 177.32 420.01 177.32 427.259 C 177.32 435.006 213.736 441.296 258.656 441.296 C 303.576 441.296 339.992 435.016 339.992 427.259 C 339.992 420.02 308.184 414.053 267.352 413.311 L 258.656 427.259 L 250.016 413.311 Z" style="fill: rgb(52, 152, 16);"/>
  <path d="M 250.016 413.311 L 258.656 427.259 L 267.352 413.311 L 273.208 403.911 C 276.512 398.54 287.928 379.926 302.048 354.581 C 332.984 299.022 376.896 211.074 376.896 159.144 C 376.896 68.282 330.512 9.573 258.656 9.573 C 186.8 9.573 140.416 68.292 140.416 159.144 C 140.416 211.123 184.296 299.041 215.256 354.581 C 229.4 379.955 240.856 398.579 244.192 403.911 L 250.016 413.311 Z M 258.56 113.317 C 279.704 113.317 296.848 134.279 296.848 160.132 C 296.848 185.985 279.704 206.946 258.56 206.946 C 237.416 206.946 220.272 185.985 220.272 160.132 C 220.272 134.279 237.416 113.317 258.56 113.317 Z" style="fill: rgb(115, 98, 100);"/>
  <circle style="fill: rgb(255, 255, 255);" cx="258.592" cy="174.2" r="38.288" transform="matrix(1, 0, 0, 1.222706, 0, -52.863781)"/>
  <g/>
  <g/>
  <g/>
  <g/>
  <g/>
  <g/>
  <g/>
  <g/>
  <g/>
  <g/>
  <g/>
  <g/>
  <g/>
  <g/>
  <g/>
</svg>