<?xml version="1.0" encoding="iso-8859-1"?>
<!-- Generator: Adobe Illustrator 19.0.0, SVG Export Plug-In . SVG Version: 6.00 Build 0)  -->
<svg class="scaling-svg" version="1.1" id="Layer_1" xmlns="http://www.w3.org/2000/svg" xmlns:xlink="http://www.w3.org/1999/xlink" width="500px" height="500px" x="0px" y="0px"
	 viewBox="0 0 512 512" style="enable-background:new 0 0 512 512;" xml:space="preserve">
<path style="fill:#D8D8D8;" d="M256,264.828c-12.359,0-23.834-1.766-34.428-4.414l16.772,233.931
	C239.228,504.055,246.29,512,256,512c9.71,0,16.772-7.945,17.655-17.655l16.772-233.931
	C279.835,263.945,268.359,264.828,256,264.828"/>
<path style="fill:#F0CE49;" d="M388.414,132.414C388.414,59.145,329.269,0,256,0S123.586,59.145,123.586,132.414
	S182.731,264.828,256,264.828S388.414,205.683,388.414,132.414"/>
<polygon style="fill:#FFFFFF;" points="256,44.138 276.303,105.931 335.448,105.931 288.662,142.124 308.966,203.034 256,169.49 
	203.034,203.034 223.338,142.124 176.552,105.931 236.579,105.931 "/>
<g>
</g>
<g>
</g>
<g>
</g>
<g>
</g>
<g>
</g>
<g>
</g>
<g>
</g>
<g>
</g>
<g>
</g>
<g>
</g>
<g>
</g>
<g>
</g>
<g>
</g>
<g>
</g>
<g>
</g>
</svg>
