<?xml version="1.0" encoding="utf-8"?>
<svg class="scaling-svg" id="Layer_1" style="enable-background:new 0 0 496.158 496.158;" x="0px" y="0px" width="500px" height="500px" viewBox="0 0 496.158 496.158" xmlns="http://www.w3.org/2000/svg">
  <path d="M496.158,248.085c0-137.021-111.07-248.082-248.076-248.082C111.07,0.003,0,111.063,0,248.085&#10;&#9;c0,137.002,111.07,248.07,248.082,248.07C385.088,496.155,496.158,385.087,496.158,248.085z" style="fill: rgb(144, 223, 223);"/>
  <path d="M 373.299 154.891 C 353.741 128.679 325.898 108.868 294.898 99.104 C 294.139 98.866 293.31 99.001 292.669 99.473 C 292.026 99.944 291.648 100.693 291.648 101.489 L 291.808 141.745 C 291.808 142.819 292.322 143.805 293.14 144.307 C 324.872 163.763 359.644 191.307 359.644 247.544 C 359.644 309.059 309.597 359.104 248.082 359.104 C 186.565 359.104 136.516 309.059 136.516 247.544 C 136.516 188.807 171.715 162.883 204.131 143.627 C 204.967 143.131 205.494 142.135 205.494 141.047 L 205.648 101.138 C 205.648 100.345 205.273 99.599 204.635 99.128 C 203.997 98.656 203.175 98.517 202.416 98.747 C 171.133 108.333 143.006 128.104 123.214 154.419 C 102.747 181.634 91.929 214.022 91.929 248.081 C 91.929 334.18 161.978 404.227 248.081 404.227 C 334.181 404.227 404.228 334.18 404.228 248.081 C 404.228 214.235 393.533 182.01 373.299 154.891 Z" style="fill: rgb(40, 152, 18);"/>
  <path d="M 251.851 67.009 L 244.302 67.009 C 232.514 67.009 222.924 76.599 222.924 88.386 L 222.924 269.575 C 222.924 281.362 232.514 290.952 244.302 290.952 L 251.851 290.952 C 263.639 290.952 273.229 281.362 273.229 269.575 L 273.229 88.386 C 273.229 76.599 263.64 67.009 251.851 67.009 Z" style="fill: rgb(40, 152, 18);"/>
  <g/>
  <g/>
  <g/>
  <g/>
  <g/>
  <g/>
  <g/>
  <g/>
  <g/>
  <g/>
  <g/>
  <g/>
  <g/>
  <g/>
  <g/>
</svg>