<?xml version="1.0" encoding="utf-8"?>
<svg class="scaling-svg" id="Layer_1" style="enable-background:new 0 0 512 512;" width="500px" height="500px" x="0px" y="0px" viewBox="0 0 512 512" xmlns="http://www.w3.org/2000/svg" xmlns:bx="https://boxy-svg.com">
  <path d="M 416 354.572 L 213.962 354.572 C 199.85 379.926 13.129 553.173 339.984 427.249 C 347.213 424.464 303.568 441.286 258.648 441.286 C 213.728 441.286 177.312 435.006 177.312 427.249 C 177.312 420.001 209.152 414.043 250.008 413.301 L 244.184 403.901 C 240.848 398.56 229.392 379.945 215.248 354.572 L 96 354.572 L 0 510.726 L 512 510.726 L 416 354.572 Z" style="fill: rgb(138, 213, 221);"/>
  <path d="M 250.016 413.311 C 209.16 414.053 177.32 420.01 177.32 427.259 C 177.32 435.006 213.736 441.296 258.656 441.296 C 303.576 441.296 339.992 435.016 339.992 427.259 C 339.992 420.02 308.184 414.053 267.352 413.311 L 259.171 413.352 L 250.016 413.311 Z" style="fill: rgb(121, 194, 198);" bx:origin="0.505 0.058"/>
  <circle style="fill: rgb(255, 255, 255);" cx="258.592" cy="174.2" r="38.288" transform="matrix(1, 0, 0, 1.222706, 0, -52.863781)"/>
  <g/>
  <g/>
  <g/>
  <g/>
  <g/>
  <g/>
  <g/>
  <g/>
  <g/>
  <g/>
  <g/>
  <g/>
  <g/>
  <g/>
  <g/>
  <path style="fill: rgb(229, 196, 0);" d="M 420.768 154.437 L 365.649 99.318 C 359.289 92.958 348.976 92.957 342.616 99.318 L 100.919 341.014 C 94.559 347.374 94.559 357.687 100.919 364.047 L 156.038 419.166 C 162.398 425.526 172.711 425.526 179.071 419.166 L 420.767 177.47 C 427.129 171.11 427.129 160.797 420.768 154.437 Z M 366.122 153.964 C 361.591 149.434 361.591 142.087 366.122 137.557 C 370.652 133.026 377.998 133.026 382.529 137.557 C 387.059 142.087 387.059 149.434 382.529 153.964 C 377.998 158.495 370.653 158.495 366.122 153.964 Z"/>
  <rect x="269.718" y="104.738" transform="matrix(-0.707108, -0.707108, 0.707107, -0.707109, 500.85213, 478.820816)" style="fill: rgb(89, 89, 90);" width="24.433" height="7.161"/>
  <rect x="248.428" y="126.033" transform="matrix(-0.707106, -0.707107, 0.707107, -0.707107, 449.449773, 500.118508)" style="fill: rgb(89, 89, 90);" width="24.433" height="7.161"/>
  <rect x="227.134" y="147.328" transform="matrix(-0.707107, -0.707107, 0.707109, -0.707103, 398.038566, 521.41469)" style="fill: rgb(89, 89, 90);" width="24.433" height="7.161"/>
  <rect x="205.831" y="168.626" transform="matrix(-0.707107, -0.707107, 0.707105, -0.707105, 346.614825, 542.709903)" style="fill: rgb(89, 89, 90);" width="24.434" height="7.161"/>
  <rect x="184.538" y="189.924" transform="matrix(-0.707106, -0.707106, 0.70711, -0.707105, 295.203976, 564.008858)" style="fill: rgb(89, 89, 90);" width="24.433" height="7.161"/>
  <rect x="163.241" y="211.22" transform="matrix(-0.707107, -0.707107, 0.707107, -0.707107, 243.788143, 585.306615)" style="fill: rgb(89, 89, 90);" width="24.433" height="7.161"/>
  <rect x="141.942" y="232.519" transform="matrix(-0.707107, -0.707107, 0.707104, -0.707108, 192.368849, 606.60302)" style="fill: rgb(89, 89, 90);" width="24.434" height="7.161"/>
  <rect x="120.648" y="253.815" transform="matrix(-0.707106, -0.707107, 0.707105, -0.707109, 140.957561, 627.90204)" style="fill: rgb(89, 89, 90);" width="24.433" height="7.161"/>
  <rect x="99.352" y="275.11" transform="matrix(-0.707107, -0.707106, 0.707109, -0.707111, 89.543017, 649.198518)" style="fill: rgb(89, 89, 90);" width="24.433" height="7.161"/>
  <rect x="78.059" y="296.408" transform="matrix(-0.707108, -0.707106, 0.707109, -0.707107, 38.132758, 670.499296)" style="fill: rgb(89, 89, 90);" width="24.433" height="7.161"/>
  <path style="opacity: 0.3; fill: rgb(91, 91, 95);" d="M 420.768 154.437 L 393.209 126.878 L 382.53 137.557 L 382.53 137.557 C 387.06 142.087 387.06 149.434 382.53 153.964 C 377.999 158.495 370.653 158.495 366.122 153.964 L 366.122 153.964 L 128.478 391.607 L 156.037 419.166 C 162.397 425.526 172.71 425.527 179.07 419.166 L 420.767 177.47 C 427.129 171.11 427.129 160.797 420.768 154.437 Z"/>
</svg>