<?xml version="1.0" encoding="UTF-8" standalone="no"?>
<!DOCTYPE svg PUBLIC "-//W3C//DTD SVG 1.1//EN" "http://www.w3.org/Graphics/SVG/1.1/DTD/svg11.dtd">
<svg class="scaling-svg" width="500px" height="500px" viewBox="0 0 64 64" version="1.1" xmlns="http://www.w3.org/2000/svg" xmlns:xlink="http://www.w3.org/1999/xlink" xml:space="preserve" style="fill-rule:evenodd;clip-rule:evenodd;stroke-linejoin:round;stroke-miterlimit:1.41421;">
    <g id="Layer-1">
        <path d="M31.5,57C45.584,57 57,45.585 57,31.5C57,17.417 45.584,6 31.5,6C17.416,6 6,17.417 6,31.5C6,45.585 17.416,57 31.5,57" style="fill:rgb(175,203,225);fill-rule:nonzero;"/>
        <g>
            <clipPath id="_clip1">
                <path d="M6,31.5C6,45.585 17.416,57 31.5,57C45.584,57 57,45.585 57,31.5C57,17.417 45.584,6 31.5,6C17.416,6 6,17.417 6,31.5Z"/>
            </clipPath>
            <g clip-path="url(#_clip1)">
                <g>
                    <g opacity="0.600006">
                        <clipPath id="_clip2">
                            <rect x="6" y="6" width="51" height="39.55"/>
                        </clipPath>
                        <g clip-path="url(#_clip2)">
                            <path d="M31.5,6C17.439,6 6,17.439 6,31.5C6,35.98 7.181,40.391 9.415,44.252L10.165,45.55L15.416,42.518L13.929,39.913L11.305,41.428C10.013,38.8 9.246,35.933 9.05,33L12.076,33L12.076,30L9.049,30C9.249,26.994 10.041,24.146 11.31,21.575L13.929,23.087L15.417,20.482L12.814,18.979C14.449,16.546 16.546,14.449 18.979,12.813L20.482,15.417L23.087,13.929L21.575,11.31C24.146,10.041 26.994,9.249 30,9.049L30,12.076L33,12.076L33,9.049C36.006,9.249 38.854,10.041 41.425,11.31L39.913,13.929L42.518,15.416L44.021,12.813C46.453,14.449 48.551,16.546 50.187,18.979L47.584,20.482L49.071,23.087L51.69,21.575C52.959,24.146 53.752,26.994 53.95,30L50.924,30L50.924,33L53.95,33C53.754,35.934 52.987,38.801 51.694,41.429L49.071,39.914L47.584,42.519L52.834,45.55L53.584,44.253C55.819,40.392 57,35.982 57,31.5C57,17.439 45.561,6 31.5,6" style="fill:rgb(71,71,94);fill-rule:nonzero;"/>
                        </g>
                    </g>
                </g>
                <g>
                    <g opacity="0.300003">
                        <path d="M57,6L6,6L6,47.954L57,18.509L57,6Z" style="fill:white;fill-rule:nonzero;"/>
                    </g>
                </g>
            </g>
        </g>
        <path d="M30.75,30.201C30.033,30.615 29.787,31.533 30.201,32.25C30.615,32.968 31.533,33.213 32.25,32.799C32.756,32.507 44.733,25.592 45.24,25.299C45.958,24.885 46.204,23.968 45.789,23.25C45.375,22.532 44.458,22.286 43.74,22.701C43.233,22.993 31.255,29.909 30.75,30.201" style="fill:rgb(117,162,216);fill-rule:nonzero;"/>
        <path d="M35,31.5C35,33.434 33.434,35 31.5,35C29.566,35 28,33.434 28,31.5C28,29.566 29.566,28 31.5,28C33.434,28 35,29.566 35,31.5" style="fill:rgb(117,162,216);fill-rule:nonzero;"/>
    </g>
</svg>
