<?xml version="1.0" encoding="utf-8"?>
<svg class="scaling-svg" id="Layer_1" style="enable-background:new 0 0 496.159 496.159;" width="500px" height="500px" x="0px" y="0px" viewBox="0 0 496.159 496.159" xmlns="http://www.w3.org/2000/svg">
  <path d="M496.159,248.085c0-137.023-111.07-248.082-248.076-248.082C111.071,0.003,0,111.063,0,248.085&#10;&#9;c0,137.001,111.07,248.07,248.083,248.07C385.089,496.155,496.159,385.086,496.159,248.085z" style="fill: rgb(144, 223, 170);"/>
  <g/>
  <g/>
  <g/>
  <g/>
  <g/>
  <g/>
  <g/>
  <g/>
  <g/>
  <g/>
  <g/>
  <g/>
  <g/>
  <g/>
  <g/>
  <path style="fill: rgb(135, 126, 115);" d="M 388.407 372.07 L 388.407 372.07 C 388.407 397.661 372.239 418.406 352.293 418.406 L 147.65 418.406 C 127.705 418.406 111.536 397.661 111.536 372.07 L 111.536 372.07 C 111.536 359.274 119.62 348.901 129.592 348.901 L 129.592 333.456 C 129.592 307.865 145.761 287.119 165.707 287.119 L 165.707 287.119 L 165.707 217.614 C 165.707 174.962 192.654 140.387 225.896 140.387 L 225.896 140.387 C 209.275 140.387 195.801 123.099 195.801 101.773 L 195.801 101.773 C 195.801 80.447 209.276 63.159 225.896 63.159 L 274.047 63.159 C 290.668 63.159 304.142 80.447 304.142 101.773 L 304.142 101.773 C 304.142 123.099 290.667 140.386 274.047 140.386 L 274.047 140.386 C 307.288 140.386 334.236 174.962 334.236 217.614 L 334.236 287.119 L 334.236 287.119 C 354.181 287.119 370.35 307.865 370.35 333.456 L 370.35 348.901 C 380.323 348.901 388.407 359.274 388.407 372.07 Z"/>
  <path style="fill: rgb(165, 154, 142);" d="M 340.595 386.058 L 340.595 386.058 C 340.595 403.923 330.011 418.406 316.954 418.406 L 182.989 418.406 C 169.932 418.406 159.347 403.924 159.347 386.058 L 159.347 386.058 C 159.347 377.126 164.64 369.885 171.168 369.885 L 171.168 359.103 C 171.168 341.238 181.753 326.754 194.809 326.754 L 194.809 326.754 L 194.809 236.942 C 194.809 207.166 212.451 183.028 234.211 183.028 L 265.732 183.028 C 287.493 183.028 305.134 207.165 305.134 236.942 L 305.134 326.754 L 305.134 326.754 C 318.191 326.754 328.775 341.236 328.775 359.102 L 328.775 369.884 C 335.304 369.884 340.595 377.126 340.595 386.058 Z M 233.921 140.386 L 266.021 140.386 C 277.102 140.386 286.085 130.014 286.085 117.219 L 286.085 117.219 C 286.085 104.423 277.102 94.05 266.022 94.05 L 233.922 94.05 C 222.841 94.05 213.858 104.423 213.858 117.219 L 213.858 117.219 C 213.857 130.014 222.84 140.386 233.921 140.386 Z"/>
  <path style="fill: rgb(61, 54, 48);" d="M 388.407 372.07 L 388.407 372.07 C 388.407 397.661 372.239 418.406 352.293 418.406 L 147.65 418.406 C 127.705 418.406 111.536 397.661 111.536 372.07 L 111.536 372.07 C 111.536 359.274 119.62 348.901 129.592 348.901 L 129.592 333.456 C 129.592 307.865 145.761 287.119 165.707 287.119 L 165.707 287.119 C 185.651 287.119 201.82 307.865 201.82 333.456 L 201.82 348.901 L 298.123 348.901 L 298.123 333.456 C 298.123 307.865 314.292 287.119 334.237 287.119 L 334.237 287.119 C 354.182 287.119 370.351 307.865 370.351 333.456 L 370.351 348.901 C 380.323 348.901 388.407 359.274 388.407 372.07 Z"/>
  <path style="fill: rgb(94, 88, 84);" d="M 201.82 333.456 L 201.82 348.901 L 298.123 348.901 L 298.123 333.456 C 298.123 307.865 314.292 287.119 334.237 287.119 L 334.237 287.119 C 354.182 287.119 370.351 307.865 370.351 333.456 L 370.351 348.901 C 378.212 348.901 384.897 355.35 387.376 364.347 L 112.568 364.347 C 115.047 355.35 121.732 348.901 129.593 348.901 L 129.593 333.456 C 129.593 307.865 145.762 287.119 165.707 287.119 L 165.707 287.119 C 185.651 287.119 201.82 307.865 201.82 333.456 Z"/>
  <path style="fill: rgb(247, 126, 65);" d="M 346.967 194.313 L 216.95 364.347 L 149.543 364.347 L 312.549 151.105 C 317.199 145.008 324.821 144.902 329.573 150.866 L 346.781 172.47 C 351.533 178.436 351.616 188.214 346.967 194.313 Z"/>
</svg>