<?xml version="1.0" encoding="UTF-8" standalone="no"?>
<!DOCTYPE svg PUBLIC "-//W3C//DTD SVG 1.1//EN" "http://www.w3.org/Graphics/SVG/1.1/DTD/svg11.dtd">
<svg class="scaling-svg" width="500px" height="500px" viewBox="0 0 64 64" version="1.1" xmlns="http://www.w3.org/2000/svg" xmlns:xlink="http://www.w3.org/1999/xlink" xml:space="preserve" style="fill-rule:evenodd;clip-rule:evenodd;stroke-linejoin:round;stroke-miterlimit:1.41421;">
    <g id="Layer-1" transform="matrix(1.06736,0,0,1.06736,-2.22713,-2.12943)">
        <path d="M15.266,61C14.551,61 13.891,60.619 13.534,60L12.24,57.758C11.525,56.52 11.525,54.996 12.24,53.758L23.977,33.422C24.348,32.78 25.02,32.422 25.711,32.422C26.051,32.422 26.394,32.508 26.709,32.689L32.33,35.935C32.79,36.2 33.125,36.637 33.262,37.149C33.4,37.662 33.328,38.208 33.063,38.667L21.322,59C20.608,60.238 19.287,61 17.858,61L15.266,61Z" style="fill:rgb(175,203,225);fill-rule:nonzero;"/>
        <g>
            <clipPath id="_clip1">
                <path d="M23.977,33.422L12.239,53.758C11.525,54.996 11.525,56.519 12.239,57.758L13.533,60C13.891,60.619 14.551,61 15.266,61L17.858,61C19.287,61 20.608,60.238 21.322,59L33.062,38.667C33.327,38.208 33.399,37.662 33.261,37.149C33.125,36.636 32.79,36.2 32.33,35.934L26.709,32.69C26.394,32.508 26.051,32.422 25.711,32.422C25.019,32.422 24.347,32.78 23.977,33.422Z"/>
            </clipPath>
            <g clip-path="url(#_clip1)">
                <g opacity="0.300003">
                    <clipPath id="_clip2">
                        <rect x="14.11" y="35.346" width="18.89" height="25.654"/>
                    </clipPath>
                    <g clip-path="url(#_clip2)">
                        <path d="M33,35.346L28.922,35.346L14.11,61L33,61L33,35.346Z" style="fill:rgb(71,71,94);fill-rule:nonzero;"/>
                    </g>
                </g>
            </g>
        </g>
        <path d="M48.388,35.623C44.869,41.722 37.933,44.307 31.838,40.788L22.775,35.505C16.678,31.986 15.43,24.724 18.95,18.627L23.199,11.266C26.719,5.169 34.953,-0.594 45.992,5.78C57.032,12.155 56.158,22.166 52.639,28.264L48.388,35.623Z" style="fill:rgb(117,162,216);fill-rule:nonzero;"/>
        <g>
            <clipPath id="_clip3">
                <path d="M23.198,11.266L18.949,18.627C15.43,24.724 16.678,31.986 22.775,35.505L31.837,40.788C37.932,44.306 44.87,41.721 48.388,35.623L52.638,28.265C56.157,22.166 57.031,12.156 45.992,5.78C42.581,3.81 39.438,3 36.619,3C30.315,3 25.631,7.054 23.198,11.266Z"/>
            </clipPath>
            <g clip-path="url(#_clip3)">
                <g>
                    <g opacity="0.300003">
                        <path d="M17,3L55,3L55,16.147C54.661,15.929 54.313,15.712 53.947,15.501C42.908,9.127 34.674,14.891 31.152,20.988L22.774,35.505L17,36L17,3Z" style="fill:white;fill-rule:nonzero;"/>
                    </g>
                </g>
                <path d="M29.905,20.045C30.445,20.356 32.312,21.434 32.85,21.744C34.476,22.684 36.557,22.125 37.492,20.501C38.432,18.876 37.874,16.795 36.251,15.857C35.714,15.545 33.844,14.467 33.305,14.157C31.68,13.219 29.599,13.776 28.661,15.401C27.723,17.027 28.28,19.107 29.905,20.045" style="fill:rgb(148,135,163);fill-rule:nonzero;"/>
                <path d="M30.584,25.67C30.044,25.358 28.179,24.282 27.639,23.97C26.014,23.032 23.934,23.588 22.996,25.214C22.057,26.84 22.614,28.919 24.24,29.858C24.779,30.17 26.645,31.247 27.184,31.557C28.811,32.497 30.89,31.939 31.828,30.314C32.765,28.689 32.21,26.609 30.584,25.67" style="fill:rgb(148,135,163);fill-rule:nonzero;"/>
                <g>
                    <g opacity="0.300003">
                        <path d="M41.176,14.122C39.651,13.242 38.395,11.951 37.546,10.391C37.221,9.798 37.282,9.07 37.696,8.537C38.108,8.003 38.802,7.764 39.455,7.931C40.888,8.293 42.283,8.872 43.726,9.705C45.168,10.539 46.367,11.457 47.398,12.518C47.871,13.001 48.008,13.719 47.755,14.345C47.499,14.97 46.898,15.384 46.225,15.401C44.448,15.446 42.702,15.002 41.176,14.122" style="fill:rgb(35,31,32);fill-rule:nonzero;"/>
                    </g>
                </g>
            </g>
        </g>
    </g>
</svg>
