<?xml version="1.0" encoding="utf-8"?>
<svg class="scaling-svg" style="fill-rule:evenodd;clip-rule:evenodd;stroke-linejoin:round;stroke-miterlimit:1.41421;" width="500px" height="500px" viewBox="0 0 64 64" xmlns="http://www.w3.org/2000/svg">
  <path d="M 46.391 28 C 46.384 27.999 46.377 28 46.37 28 C 45.857 28 45.339 27.868 44.871 27.598 C 40.65 25.16 37.647 24 32 24 C 26.354 24 23.351 25.16 19.13 27.598 C 17.988 28.257 16.548 28.094 15.583 27.194 C 14.619 26.294 14.355 24.87 14.934 23.684 C 18.15 17.094 24.69 13 32 13 C 39.195 13 45.642 16.964 48.912 23.372 C 49.215 23.84 49.391 24.4 49.391 25 C 49.391 26.657 48.048 28 46.391 28 M 49.081 40.316 C 47.228 44.113 44.116 47.225 40.316 49.076 C 39.895 49.282 39.447 49.38 39.003 49.38 C 38.058 49.38 37.137 48.934 36.558 48.121 C 35.707 46.928 35.844 45.294 36.88 44.258 L 44.264 36.879 C 45.302 35.844 46.935 35.708 48.128 36.56 C 49.321 37.41 49.724 38.999 49.081 40.316 M 27.439 48.121 C 26.86 48.933 25.94 49.379 24.995 49.379 C 24.552 49.379 24.103 49.28 23.682 49.075 C 19.884 47.223 16.772 44.112 14.92 40.318 C 14.277 39.001 14.68 37.412 15.872 36.561 C 17.066 35.708 18.7 35.845 19.736 36.88 L 27.118 44.257 C 28.155 45.293 28.291 46.927 27.439 48.121 M 32 6 C 17.641 6 6 17.641 6 32 C 6 46.359 17.641 58 32 58 C 46.36 58 58 46.359 58 32 C 58 17.641 46.36 6 32 6" style="fill-rule: nonzero; fill: rgb(150, 207, 147);"/>
  <g>
    <g opacity="0.300003">
      <g clip-path="url(#_clip2)"/>
    </g>
  </g>
  <path d="M 42 29 C 42 34.522 37.522 39 32 39 C 26.477 39 22 34.522 22 29 C 22 23.477 26.128 24.926 31.651 24.926 C 37.173 24.926 42 23.477 42 29" style="fill:rgb(148,135,163);fill-rule:nonzero;"/>
  <g>
    <g opacity="0.300003">
      <g clip-path="url(#_clip3)">
        <path d="M13,32C13,21.506 21.506,13 32,13C35.462,13 38.698,13.94 41.493,15.558L47.012,6L6,6L6,58L16.989,58L22.507,48.442C16.83,45.157 13,39.032 13,32" style="fill:white;fill-rule:nonzero;"/>
      </g>
    </g>
  </g>
</svg>