<?xml version="1.0" encoding="UTF-8" standalone="no"?>
<!DOCTYPE svg PUBLIC "-//W3C//DTD SVG 1.1//EN" "http://www.w3.org/Graphics/SVG/1.1/DTD/svg11.dtd">
<svg class="scaling-svg" width="500px" height="500px" viewBox="0 0 64 64" version="1.1" xmlns="http://www.w3.org/2000/svg" xmlns:xlink="http://www.w3.org/1999/xlink" xml:space="preserve" style="fill-rule:evenodd;clip-rule:evenodd;stroke-linejoin:round;stroke-miterlimit:1.41421;">
    <g id="Layer-1">
        <path d="M46.391,28C46.384,27.999 46.377,28 46.37,28C45.857,28 45.339,27.868 44.871,27.598C40.65,25.16 37.647,24 32,24C26.354,24 23.351,25.16 19.13,27.598C17.988,28.257 16.548,28.094 15.583,27.194C14.619,26.294 14.355,24.87 14.934,23.684C18.15,17.094 24.69,13 32,13C39.195,13 45.642,16.964 48.912,23.372C49.215,23.84 49.391,24.4 49.391,25C49.391,26.657 48.048,28 46.391,28M49.081,40.316C47.228,44.113 44.116,47.225 40.316,49.076C39.895,49.282 39.447,49.38 39.003,49.38C38.058,49.38 37.137,48.934 36.558,48.121C35.707,46.928 35.844,45.294 36.88,44.258L44.264,36.879C45.302,35.844 46.935,35.708 48.128,36.56C49.321,37.41 49.724,38.999 49.081,40.316M27.439,48.121C26.86,48.933 25.94,49.379 24.995,49.379C24.552,49.379 24.103,49.28 23.682,49.075C19.884,47.223 16.772,44.112 14.92,40.318C14.277,39.001 14.68,37.412 15.872,36.561C17.066,35.708 18.7,35.845 19.736,36.88L27.118,44.257C28.155,45.293 28.291,46.927 27.439,48.121M32,6C17.641,6 6,17.641 6,32C6,46.359 17.641,58 32,58C46.36,58 58,46.359 58,32C58,17.641 46.36,6 32,6" style="fill:rgb(147,193,207);fill-rule:nonzero;"/>
        <g>
            <clipPath id="_clip1">
                <path d="M6,32C6,46.359 17.641,58 32,58C46.359,58 58,46.359 58,32C58,17.641 46.359,6 32,6C17.641,6 6,17.641 6,32ZM15.583,27.194C14.619,26.294 14.355,24.87 14.934,23.684C18.15,17.094 24.69,13 32,13C39.194,13 45.642,16.964 48.911,23.371C49.215,23.84 49.39,24.4 49.39,25C49.39,26.656 48.048,28 46.391,28C46.384,27.998 46.377,28 46.37,28C45.857,28 45.339,27.869 44.871,27.598C40.649,25.16 37.646,24 32,24C26.354,24 23.351,25.16 19.13,27.598C18.662,27.868 18.144,28 17.63,28C16.888,28 16.153,27.725 15.583,27.194ZM36.558,48.121C35.707,46.928 35.843,45.294 36.88,44.258L44.264,36.878C45.301,35.844 46.935,35.708 48.128,36.56C49.32,37.41 49.723,38.999 49.081,40.316C47.228,44.114 44.115,47.225 40.316,49.076C39.894,49.282 39.446,49.38 39.003,49.38C38.057,49.38 37.137,48.934 36.558,48.121ZM23.681,49.075C19.884,47.223 16.772,44.113 14.919,40.318C14.277,39.001 14.679,37.412 15.872,36.561C17.066,35.708 18.699,35.844 19.736,36.88L27.117,44.257C28.155,45.293 28.291,46.927 27.439,48.121C26.86,48.932 25.94,49.379 24.995,49.379C24.551,49.379 24.103,49.281 23.681,49.075Z"/>
            </clipPath>
            <g clip-path="url(#_clip1)">
                <g>
                    <g opacity="0.300003">
                        <clipPath id="_clip2">
                            <rect x="22.5" y="15.545" width="28.503" height="35.457"/>
                        </clipPath>
                        <g clip-path="url(#_clip2)">
                            <path d="M48.455,41.5C43.208,50.587 31.587,53.701 22.5,48.454L41.5,15.545C50.588,20.792 53.701,32.412 48.455,41.5" style="fill:rgb(148,135,163);fill-rule:nonzero;"/>
                        </g>
                    </g>
                </g>
                <path d="M42,29C42,34.522 37.522,39 32,39C26.477,39 22,34.522 22,29C22,23.477 26.477,19 32,19C37.522,19 42,23.477 42,29" style="fill:rgb(148,135,163);fill-rule:nonzero;"/>
                <g>
                    <g opacity="0.300003">
                        <clipPath id="_clip3">
                            <rect x="6" y="6" width="41.012" height="52"/>
                        </clipPath>
                        <g clip-path="url(#_clip3)">
                            <path d="M13,32C13,21.506 21.506,13 32,13C35.462,13 38.698,13.94 41.493,15.558L47.012,6L6,6L6,58L16.989,58L22.507,48.442C16.83,45.157 13,39.032 13,32" style="fill:white;fill-rule:nonzero;"/>
                        </g>
                    </g>
                </g>
            </g>
        </g>
    </g>
</svg>
