<?xml version="1.0" encoding="utf-8"?>
<svg style="fill-rule:evenodd;clip-rule:evenodd;stroke-linejoin:round;stroke-miterlimit:1.41421;" width="500px" height="500px" viewBox="0 0 64 64" xmlns="http://www.w3.org/2000/svg">
  <g id="Layer-1" transform="matrix(1.227483, 0, 0, 1.207261, -7.147999, -6.763805)">
    <path d="M22.888,58C21.827,58 20.81,57.578 20.06,56.828L7.173,43.941C6.422,43.191 6.001,42.174 6.001,41.113L6,22.887C6,21.826 6.422,20.809 7.172,20.059L20.059,7.171C20.809,6.421 21.826,6 22.888,6L41.113,6C42.173,6 43.191,6.421 43.941,7.171L56.828,20.059C57.578,20.81 58,21.827 58,22.888L58,41.112C58,42.173 57.578,43.19 56.828,43.94L43.941,56.828C43.191,57.578 42.173,58 41.113,58L22.888,58Z" style="fill:rgb(222,220,217);fill-rule:nonzero;"/>
    <g>
      <g clip-path="url(#_clip1)">
        <g>
          <g opacity="0.300003">
            <g clip-path="url(#_clip2)">
              <path d="M6,58L16.989,58L47.012,6L6,6L6,58Z" style="fill:white;fill-rule:nonzero;"/>
            </g>
          </g>
        </g>
        <path d="M53,29.563C53,27.032 52.046,25 47.5,25L44,25L44,39.001L47,39.001L47,34.001L47.5,34.001C51.5,34.001 53,32.063 53,29.563M42,32.001C42,27.749 40.037,25 37,25C33.963,25 32,27.749 32,32.001C32,36.252 33.963,39.001 37,39.001C40.037,39.001 42,36.252 42,32.001M31,25L22,25L22,28L25,28L25,39.001L28,39.001L28,28L31,28L31,25ZM22,34.677C22,31.359 19.716,30.874 17.083,30.244C15.54,29.876 15.348,29.475 15.274,29.063C15.197,28.622 15.485,28 16.595,28C17.375,28 17.981,28.301 18.159,28.919L21.042,28.089C20.493,26.184 18.703,25 16.595,25C15.038,25 13.88,25.526 13.079,26.481C12.384,27.308 12.114,28.412 12.321,29.584C12.8,32.304 16.169,32.927 17.151,33.163C18.871,33.574 19,34.029 19,34.677C19,35.481 18.215,36.001 17,36.001C16.405,36.001 15.366,35.873 15.079,35.019L12.235,35.974C12.871,37.869 14.652,39.001 17,39.001C20.282,39.001 22,36.826 22,34.677M55,22.474L55,41.527L41.526,55.001L22.474,55.001L9,41.528L9,22.474L22.473,9L41.526,9L55,22.474ZM37,28C35.422,28 35,30.514 35,32.001C35,33.487 35.422,36.001 37,36.001C38.579,36.001 39,33.487 39,32.001C39,30.514 38.579,28 37,28M50,29.5C50,30.188 49.77,31.001 48.5,31.001L47,31.001L47,28L48.5,28C49.77,28 50,28.729 50,29.5" style="fill:rgb(222,112,71);fill-rule:nonzero;"/>
      </g>
    </g>
  </g>
</svg>