<svg class="scaling-svg" clip-rule="evenodd" fill-rule="evenodd" height="500" stroke-linejoin="round" stroke-miterlimit="1.41421" viewBox="0 0 64 64" width="500" xmlns="http://www.w3.org/2000/svg"><path d="m20.947 63.257c-1.303 0-2.551-.509-3.472-1.415l-15.818-15.558c-.922-.905-1.439-2.133-1.439-3.414l-.001-22.003c0-1.281.518-2.509 1.439-3.414l15.818-15.56c.921-.905 2.169-1.413 3.473-1.413h22.371c1.301 0 2.55.508 3.471 1.413l15.818 15.56c.921.906 1.439 2.134 1.439 3.415v22.001c0 1.281-.518 2.509-1.439 3.414l-15.818 15.559c-.921.906-2.17 1.415-3.471 1.415z" fill="#dedcd9" fill-rule="nonzero"/><path d="m53 29.563c0-2.531-.954-4.563-5.5-4.563h-3.5v14.001h3v-5h .5c4 0 5.5-1.938 5.5-4.438m-11 2.438c0-4.252-1.963-7.001-5-7.001-3.037 0-5 2.749-5 7.001 0 4.251 1.963 7 5 7 3.037 0 5-2.749 5-7m-11-7.001h-9v3h3v11.001h3v-11.001h3zm-9 9.677c0-3.318-2.284-3.803-4.917-4.433-1.543-.368-1.735-.769-1.809-1.181-.077-.441.211-1.063 1.321-1.063.78 0 1.386.301 1.564.919l2.883-.83c-.549-1.905-2.339-3.089-4.447-3.089-1.557 0-2.715.526-3.516 1.481-.695.827-.965 1.931-.758 3.103.479 2.72 3.848 3.343 4.83 3.579 1.72.411 1.849.866 1.849 1.514 0 .804-.785 1.324-2 1.324-.595 0-1.634-.128-1.921-.982l-2.844.955c.636 1.895 2.417 3.027 4.765 3.027 3.282 0 5-2.175 5-4.324m33-12.203v19.053l-13.474 13.474h-19.052l-13.474-13.473v-19.054l13.473-13.474h19.053zm-18 5.526c-1.578 0-2 2.514-2 4.001 0 1.486.422 4 2 4 1.579 0 2-2.514 2-4 0-1.487-.421-4.001-2-4.001m13 1.5c0 .688-.23 1.501-1.5 1.501h-1.5v-3.001h1.5c1.27 0 1.5.729 1.5 1.5" fill="#de7047" fill-rule="nonzero" transform="matrix(1.227483 0 0 1.207261 -7.147999 -6.763805)"/></svg>