<?xml version="1.0" encoding="utf-8"?>
<svg class="scaling-svg" style="fill-rule:evenodd;clip-rule:evenodd;stroke-linejoin:round;stroke-miterlimit:1.41421;" width="500px" height="500px" viewBox="0 0 64 64" xmlns="http://www.w3.org/2000/svg">
  <g id="Layer-1" transform="matrix(1.227483, 0, 0, 1.207261, -7.147999, -6.763805)">
    <path d="M22.888,58C21.827,58 20.81,57.578 20.06,56.828L7.173,43.941C6.422,43.191 6.001,42.174 6.001,41.113L6,22.887C6,21.826 6.422,20.809 7.172,20.059L20.059,7.171C20.809,6.421 21.826,6 22.888,6L41.113,6C42.173,6 43.191,6.421 43.941,7.171L56.828,20.059C57.578,20.81 58,21.827 58,22.888L58,41.112C58,42.173 57.578,43.19 56.828,43.94L43.941,56.828C43.191,57.578 42.173,58 41.113,58L22.888,58Z" style="fill:rgb(222,220,217);fill-rule:nonzero;"/>
    <g>
      <g clip-path="url(#_clip1)">
        <g>
          <g opacity="0.300003">
            <g clip-path="url(#_clip2)">
              <path d="M6,58L16.989,58L47.012,6L6,6L6,58Z" style="fill:white;fill-rule:nonzero;"/>
            </g>
          </g>
        </g>
        <path d="M 55 22.474 L 55 41.527 L 41.526 55.001 L 22.474 55.001 L 9 41.528 L 9 22.474 L 22.473 9 L 41.526 9 L 55 22.474 Z" style="fill:rgb(222,112,71);fill-rule:nonzero;"/>
      </g>
    </g>
  </g>
  <circle style="fill:#3083C9;" cx="32" cy="31.416" r="16.916"/>
  <path style="fill:#A1C8EC;" d="M 32 49.5 C 22.351 49.5 14.5 41.649 14.5 32 C 14.5 27.337 16.312 22.95 19.604 19.648 C 20.058 19.189 20.797 19.189 21.253 19.644 C 21.71 20.099 21.711 20.838 21.257 21.293 C 18.404 24.157 16.834 27.958 16.834 32 C 16.834 40.363 23.637 47.166 32 47.166 C 40.363 47.166 47.166 40.363 47.166 32 C 47.166 24.03 40.986 17.476 33.166 16.877 L 33.166 23.153 C 33.166 23.797 32.644 24.319 32 24.319 C 31.356 24.319 30.834 23.797 30.834 23.153 L 30.834 15.666 C 30.834 15.022 31.356 14.5 32 14.5 C 41.649 14.5 49.5 22.351 49.5 32 C 49.5 41.649 41.649 49.5 32 49.5 Z"/>
  <path style="fill:#A1C8EC;" d="M 26.166 26.237 L 26.166 26.237 L 33.718 31.699 C 34.461 32.239 34.545 33.316 33.895 33.966 L 33.895 33.966 C 33.245 34.615 32.169 34.531 31.628 33.788 L 26.166 26.237 Z"/>
</svg>