<?xml version="1.0" encoding="iso-8859-1"?>
<!-- Generator: Adobe Illustrator 19.0.0, SVG Export Plug-In . SVG Version: 6.00 Build 0)  -->
<svg version="1.1" class="scaling-svg" id="Layer_1" xmlns="http://www.w3.org/2000/svg" xmlns:xlink="http://www.w3.org/1999/xlink" width="500px" height="500px" x="0px" y="0px"
	 viewBox="0 0 512 512" style="enable-background:new 0 0 512 512;" xml:space="preserve">
<path style="fill:#444C6D;" d="M256,207.448c-8.828,0-17.655-0.883-35.31-3.531v38.841h70.621v-38.841
	C273.655,206.566,264.828,207.448,256,207.448"/>
<path style="fill:#D8D8D8;" d="M229.517,242.759h52.966l-7.945,211.862c0,9.71-8.828,17.655-18.538,17.655
	c-9.71,0-17.655-7.945-18.538-17.655L229.517,242.759z"/>
<path style="fill:#43B05B;" d="M276.303,392.828l-2.648,61.793c0,9.71-8.828,17.655-18.538,17.655s-17.655-7.945-18.538-17.655
	l-2.648-61.793C103.283,395.476,0,420.193,0,450.207c0,31.779,114.759,57.379,256,57.379s256-25.6,256-57.379
	C512,420.193,408.717,395.476,276.303,392.828"/>
<path id="SVGCleanerId_0" style="fill:#DD342E;" d="M361.931,110.345C361.931,52.083,314.262,4.414,256,4.414
	S150.069,52.083,150.069,110.345S197.738,216.276,256,216.276S361.931,168.607,361.931,110.345"/>
<path d="M185.379,119.172c-5.297,0-8.828-3.531-8.828-8.828c0-44.138,35.31-79.448,79.448-79.448c5.297,0,8.828,3.531,8.828,8.828
	s-3.531,8.828-8.828,8.828c-34.428,0-61.793,27.366-61.793,61.793C194.207,115.641,190.676,119.172,185.379,119.172z"/>
<g>
	<path id="SVGCleanerId_0_1_" style="fill:#DD342E;" d="M361.931,110.345C361.931,52.083,314.262,4.414,256,4.414
		S150.069,52.083,150.069,110.345S197.738,216.276,256,216.276S361.931,168.607,361.931,110.345"/>
</g>
<path style="fill:#F86363;" d="M185.379,119.172c-5.297,0-8.828-3.531-8.828-8.828c0-44.138,35.31-79.448,79.448-79.448
	c5.297,0,8.828,3.531,8.828,8.828s-3.531,8.828-8.828,8.828c-34.428,0-61.793,27.366-61.793,61.793
	C194.207,115.641,190.676,119.172,185.379,119.172"/>
</svg>
