<?xml version="1.0" encoding="iso-8859-1"?>
<!-- Generator: Adobe Illustrator 19.0.0, SVG Export Plug-In . SVG Version: 6.00 Build 0)  -->
<svg version="1.1" class="scaling-svg" id="Layer_1" xmlns="http://www.w3.org/2000/svg" xmlns:xlink="http://www.w3.org/1999/xlink" width="500px" height="500px" x="0px" y="0px"
	 viewBox="0 0 512 512" style="enable-background:new 0 0 512 512;" xml:space="preserve">
<path style="fill:#FDC794;" d="M454.347,176.552c0-19.421-15.89-35.31-35.31-35.31c-19.421,0-35.31,15.89-35.31,35.31v61.793V70.621
	c0-19.421-15.89-35.31-35.31-35.31s-35.31,21.186-35.31,35.31v105.931V35.31c0-19.421-15.89-35.31-35.31-35.31
	c-19.421,0-35.31,13.241-35.31,35.31v141.241V73.269c0-24.717-15.89-37.959-35.31-37.959s-35.31,15.007-35.31,35.31v194.207
	l-15.89-23.834c-17.655-30.897-60.028-45.021-88.276-34.428c-4.414,0.883-7.062,3.531-10.593,5.297
	c-10.593,7.062-8.828,15.007-8.828,17.655s50.317,53.848,79.448,105.931c0,0,25.6,42.372,52.966,70.621v26.483
	c0,44.138,35.31,79.448,79.448,79.448h88.276c34.428,0,69.738-29.131,77.683-62.676c1.766-7.945,5.297-19.421,10.593-25.6
	c7.945-8.828,17.655-30.897,17.655-61.793c0-6.179,0-71.503,0-79.448l0,0V176.552z"/>
<g>
	<path style="fill:#F9A671;" d="M180.692,291.31c-3.531,0-6.179-1.766-7.945-5.297l-8.828-17.655c-1.766-4.414,0-9.71,3.531-11.476
		c4.414-1.766,9.71,0,11.476,3.531l8.828,17.655c1.766,4.414,0,9.71-3.531,11.476C183.34,291.31,182.458,291.31,180.692,291.31z"/>
	<path style="fill:#F9A671;" d="M242.485,229.517c-5.297,0-8.828-3.531-8.828-8.828V70.621c0-5.297,3.531-8.828,8.828-8.828
		s8.828,3.531,8.828,8.828V220.69C251.313,225.986,247.782,229.517,242.485,229.517z"/>
	<path style="fill:#F9A671;" d="M313.106,229.517c-5.297,0-8.828-3.531-8.828-8.828V70.621c0-5.297,3.531-8.828,8.828-8.828
		c5.297,0,8.828,3.531,8.828,8.828V220.69C321.934,225.986,318.402,229.517,313.106,229.517z"/>
	<path style="fill:#F9A671;" d="M383.727,273.655c-5.297,0-8.828-3.531-8.828-8.828v-97.103c0-5.297,3.531-8.828,8.828-8.828
		s8.828,3.531,8.828,8.828v97.103C392.554,270.124,389.023,273.655,383.727,273.655z"/>
	<path style="fill:#F9A671;" d="M392.554,450.207c-3.531,0-7.062-2.648-8.828-6.179c-0.883-4.414,1.766-9.71,6.179-10.593
		l4.414-0.883c17.655-4.414,20.303-5.297,25.6-12.359c2.648-3.531,8.828-4.414,12.359-1.766c3.531,2.648,4.414,8.828,1.766,12.359
		c-8.828,12.359-17.655,14.124-35.31,19.421h-3.531C394.32,450.207,393.437,450.207,392.554,450.207z"/>
</g>
<path style="fill:#D3311F;" d="M83.589,485.517c-1.766,0-3.531-0.883-5.297-1.766c-3.531-2.648-4.414-8.828-0.883-12.359
	L448.168,12.359c2.648-3.531,8.828-4.414,12.359-0.883c3.531,2.648,4.414,8.828,1.766,12.359L91.534,482.869
	C88.885,484.634,86.237,485.517,83.589,485.517z"/>
<g>
</g>
<g>
</g>
<g>
</g>
<g>
</g>
<g>
</g>
<g>
</g>
<g>
</g>
<g>
</g>
<g>
</g>
<g>
</g>
<g>
</g>
<g>
</g>
<g>
</g>
<g>
</g>
<g>
</g>
</svg>
